<?xml version="1.0" encoding="UTF-8"?>
<svg id="Layer_2" data-name="Layer 2" xmlns="http://www.w3.org/2000/svg" viewBox="0 0 109.18 131.73">
  <defs>
    <style>
      .cls-1 {
        fill: #8ca1ab;
      }

      .cls-2 {
        fill: #fefefd;
      }

      .cls-3 {
        fill: #eff7fa;
      }

      .cls-4 {
        fill: #c1c1c1;
      }

      .cls-5 {
        fill: #d8d8d8;
      }

      .cls-6 {
        fill: #437da0;
      }

      .cls-7 {
        fill: #b8b8b8;
      }

      .cls-8 {
        fill: #457da0;
      }

      .cls-9 {
        fill: #5f90b3;
      }

      .cls-10 {
        fill: #dcdcdc;
      }

      .cls-11 {
        fill: #79aecc;
      }
    </style>
  </defs>
  <g id="Layer_1-2" data-name="Layer 1">
    <g>
      <path class="cls-10" d="M83.87,131.07l-8.49.23-5.73.17-3.16.26-12.64-.03-11.25-.15-2.13-.2-7.2-.13-5.65-.11-3.18-.2-3.08-.25c-4.15-.34-8.04-1.61-11.39-4.03-4.98-3.6-8.04-8.91-8.55-15.12l-.46-4.06-.19-8.37-.21-7.07-.2-11.18-.24-8.12-.12-11.7.19-2.59.14-6.34.22-5.55.2-6.86.22-7.93.15-6.31.26-3.38c.38-4.88,2.1-9.11,4.98-12.94,2.48-3.3,5.43-5.88,9.38-7.22,2.57-.87,5.17-1.69,7.95-1.73L35.56.01h14.04s7.92.1,7.92.1l6.14.22,1.96-.05,16.25-.07,5.4-.08,4.59.25,4.87.61c8.69,1.09,10.9,8.49,11.52,16.55l.14,8.05.17,3.01.08,5.94.13,11.66.15,5.57.24,2.2v39.16s-.25,1.98-.25,1.98l-.81,4.29c-.77,4.08-5.02,6.8-3.54,10.3l2.28,3.68c.61.99,1.12,2.21,1.21,3.42l.18,2.56c-.24,5.6-4.13,10.12-9.58,10.95l-3.84.58-10.95.17Z"/>
      <path class="cls-2" d="M101.8,3.92c.77.68,1.43,1.49,2.05,2.31.11.14.04.3-.09.44,1.3,2.35,2.07,4.94,2.3,7.75.75,26.06,1.49,52.19.99,78.54-.32,4.34-1.23,8.17-4.52,11.07-.71,1.98-.87,4.51.32,6.36.21-.06.45-.08.58.08.88,1.09,2.05,2.69,2.48,4.02.24.73.26.86-.14,1.46.32-.06.44.54.06.62.15.79.17,1.58.06,2.39.71.96-.22,2.88-.78,3.9-2.62,4.76-7.26,5.14-12.15,5.48-19.68.59-29.52.88-29.52.88l-38.76-.76c-7.22-.41-12.59-1.25-17.82-7.19-.08-.09-.11-.24-.12-.4-.24,0-.5-.02-.69-.18-1.97-1.64-3.79-8.46-3.97-11.11,0-.09.08-.19.2-.28l-.26-6.68-.31-11.15c-.2-.91-.18-1.88,0-2.79v-1.5c-.27-.61-.27-1.32-.01-1.93l-.17-3.96c-.29-1.2-.38-2.87-.05-4.19v-5.82c.01-.31-.03-.55-.18-.75-.12,0-.21,0-.22-.01-.1-.63-.07-1.63.17-2.22l.03-6.68.63-21.22c-.24-.97-.33-2.05.04-3.01l.2-8.99.02-1.17.55-7.89c.63-4.71,2.8-8.75,5.97-12.16,1.92-2.06,4.03-3.63,6.72-4.54,3.61-1.22,7.3-1.7,11.15-1.71l9.06-.02,10.18-.07,24.37.29,12.04-.02c5.07-.01,9.98.08,14.96.85,1.8.28,3.18,1.11,4.61,1.94Z"/>
      <g>
        <path class="cls-5" d="M2.28,109.32c.15,3.74,1.92,8.55,4.46,11.57.13.31.13.4,0,.27,4.72,5.66,11.33,7.67,18.47,7.79,11.81.4,23.63.71,35.46.94,3.9-.04,7.77-.23,11.62-.57,7.94-.1,15.88-.28,23.82-.54,6.47-.8,10.79-4.27,10.21-11.35-.03-.39-.37-2.05-.56-1.46-.21-2.12-1.38-4.06-2.92-5.56-1.5-2.47.17-5.41,1.78-7.39,2.11-4.23,3.06-8.84,2.86-13.82-.19-1.57-.18-3.1.02-4.59-.07-21.5-.32-43.05-.92-64.54-.24-4.45-.61-9.48-2.84-13.37l-1.96-2.76c4.3,2.49,5.55,9.61,5.64,14.73l.13,7.61.16,4.93.2,3.21.06,9.45.1,2.66.09,2.9.17,5.61-.04,37.46c0,3.23-.73,6.18-1.81,9.1l-2.27,3.71c-.83,1.36-1.46,3.47-.56,4.89,1.16,1.83,2.53,3.34,3.14,5.39.86,2.87.67,5.6-.54,8.3-.94,2.1-2.56,3.59-4.64,4.54-1.29.59-2.47,1.07-3.89,1.22l-3.09.31-1.93.13-8.37.09-1.53.08h-1.96s-6.39.14-6.39.14l-4.81.24-2.9.26-11.09.07c-.45,0-.9-.3-1.34-.1-.48.22-.97-.04-1.47-.05l-6.8-.16-10.96-.23-5.51-.18-4.83-.22-2.93-.22c-4.54-.35-8.82-1.62-12.33-4.66-2.45-2.12-4.59-4.53-5.73-7.65-.91-2.5-1.61-4.92-1.78-7.59-.13-.11-.16-.34-.1-.48.05-.11.23-.18.38-.1Z"/>
        <path class="cls-7" d="M6.74,120.89c3.46,4.11,8.68,6.46,14.1,6.87l3.85.29,38.74.76,13.93-.55,10.75-.21c3.56-.07,7-.03,10.43-.8,4.11-.92,6.92-4.17,7.35-8.27.11-.81.09-1.61-.06-2.39l-.06-.62c.04-.09-.08-.29.15-.48,1.71,2.82.4,8.34-1.97,10.59-1.88,1.79-5.39,3.05-8.02,3.14l-2.89.1-1.61.07-7.44.19-2.58-.05-2.06.08-7.02.14-2.13.19-3.78.25h-2.97c-1.45.02-2.83.28-4.27,0h-2.74s-6.84-.16-6.84-.16l-4.17-.09-8.12-.09-4.42-.16-2.95-.18-4.75-.13-2.76-.21c-3.56-.27-8.89-1.43-11.37-3.66l-2.23-2-2.25-2.25c-.14-.14-.03-.42.17-.36Z"/>
        <path class="cls-4" d="M102.85,110.4c-.76-.74-1.44-1.27-1.26-2.67.15-1.16-.17-3.14.75-4.12,1.53-1.63,2.88-3.09,3.4-5.39.59-2.57,1-5.08,1-7.84l-.02-35.77-.38-10.55-.34-17.79-.37-11.8c-.32-2.76-.78-5.34-1.88-7.79.24.33.66.53.88,1.07l.85,2.08,1.09,4.65.22,2.55.21,3.01.09,5.28.02,3.84.16,2.45.18,2.81.07,13.08.07,1.93.17,4.93.06,3.51-.05,2.95.02,7.07-.04,1.96.05,2.86.08,3.11.03,8.8-.23,1.7c.33,1.88.2,3.57.1,5.43-.25,4.6-.85,9.2-3.72,12.76-1.33,1.64-1.6,3.92-1.22,5.88Z"/>
        <g>
          <path class="cls-5" d="M1.3,70.55l-.08,5.72c-.23-.52-.31-1.05-.31-1.54l-.06-5.56c0-.39.17-.7.4-.86l.04,2.23Z"/>
          <path class="cls-5" d="M1.52,81.31c-.03.33.09.74-.17,1.19l-.3-3.67c-.05-.65.06-1.29.43-1.71l.05,4.19Z"/>
          <path class="cls-5" d="M1.91,40.42c-.5-.9-.67-2.19.04-3.01l-.04,3.01Z"/>
          <path class="cls-5" d="M1.71,91.49c-.36-.57-.35-2.15,0-2.79v2.79Z"/>
          <path class="cls-5" d="M1.7,87.19c-.52-.52-.52-1.41-.01-1.93v1.93Z"/>
          <path class="cls-5" d="M105.89,118.97l-.06-2.39c.44.73.14,1.65.06,2.39Z"/>
          <g>
            <path class="cls-11" d="M98.32,97.74c-.15-.08-.33-.19-.33-.35.05-1.44-.09-1.72-1.81-2.09-3.05-.08-6.08-.02-9.11.19l-.85-.2c-2.09.48-4.27.49-6.53.02l-6.58.2c-1.89-.32-3.71-.26-5.45.19-3.61-.14-7.25-.19-10.93-.14-.87.3-1.7.27-2.47-.07-1.48.14-2.97.13-4.47-.03l-8.16.16c-4.06.42-8.15.66-12.26.71-.96.31-1.58.19-1.84-.37.61-6.69.85-13.41.71-20.16.06-6.02.03-12.05-.09-18.08.35-1.01.36-1.94.02-2.81.14-2.01.12-4.04-.06-6.07,0-8.24-.07-16.47-.23-24.72-.34-4.71-.59-9.42-.77-14.15-.38-.96-.34-1.61.13-1.94,1.02-.45,2.18-.22,3.36,0,1.19-.31,2.33-.09,3.49-.21l1.44-.15,3.65.22,2.2-.05,2.06.03h4.11c1.01.01,1.78-.23,2.79-.07,1.07.17,3.3-.04,5.51.05l4.19.16,1.84-.14,4.62.28c.16,0,.34.08.38.17.03.08-.05.23.15.48.84-1.05,1.97-.8,2.98-.79l4.8.05,1.64.17,1.76.08,1.39-.23c.65-.11,1.19-.04,1.71.35.21-.19.54-.44.76-.41.27.04.49.22.62.62.39-.56,1.13-.69,1.7-.33.27-.28.7-.17,1.1-.18l3.24-.12,6.69.74c3.21,1.33,2.62,1.97,3.06,3.92.48,2.12.39,4.09.45,6.19l.18,6.33c.02.63-.26,1.08-.83,1.51.29.2.45.08.78.03l.15,6.04.26,4.42.11,2.76c-.25-.08-.37-.26-.69.01.84.51.69,1.08.7,1.74.02.75.2,1.46-.31,2.09.29.3.25.6.26.96l.04,2.54c.01.75-.22,1.4.14,2.17.2.42-.11.9-.36,1.15.35.53.42,1.19.42,1.86l-.04,3.62.16,2.57-.07,3.73-.03,2.95-.07,5.78-.1,2.29c-.03.71.21,1.07.02,1.81-.11.44.14,1.35.14,1.87v4.88s-.06,3.93-.06,3.93c-.04,2.87.37,5.63-.19,8.42l-.54,2.71c-.11.54-.44.53-.72.72Z"/>
            <path class="cls-9" d="M25.57,8.02c.26.31.27.71.04,1.2-.56,13.18-.95,26.37-1.18,39.57.14,5.07.23,10.16.26,15.26-.11,9.06.19,18.11.91,27.16-.07,1.8-.02,3.61.17,5.4l-.4.31c-2.24.43-4.45.97-6.63,1.64-.5.41-.97.55-1.41.43l-.11.68c-1.84,1.45-3.05,4.49-3.52,6.77-.4,1.93.25,5.32,1.47,6.83,1.54,1.9,3.81,2.77,6.11,3.37,4.15.66,8.32,1.06,12.53,1.2,2.8-.34,5.61-.37,8.41-.1,16.31-.06,32.6-.36,48.88-.92,2.04-.34,4.02-.84,5.95-1.53,1.06.36,2.03.71,2.13,2.09.07,1.04-.29,2.33-1.41,2.76l-1.36.52c-2.9.68-5.77.39-8.71.5l-8,.29-4.03.13c-.33.01-.77-.33-1.23-.04-.57.36-1.18-.15-1.66-.1l-2.51.28h-2.33s-1.37-.03-1.37-.03l-2.92.31-7.41-.14-1.48.15c-1.33-.22-2.71.09-4.04-.39-1.08.41-2.2.21-3.37.25l-4.62-.14h-2.02s-6.51-.15-6.51-.15c-.35,0-.76-.16-1.15-.38-.42.45-.94.31-1.63.28l-2.5-.1c-.43-.02-.74-.17-1.23-.16l-3.19.02c-.55,0-1.37-.05-1.84-.25-.18,0-.57.39-.75.22l-.52-.49c-.14.07-.44.37-.56.29l-.42-.25c-.58-.08-1.17.06-1.75-.21l-2.6-1.23-.34-.63c-.12.41-.41.49-.6.41s-.4-.31-.34-.68c.05-.44-.43-.54-.57.04-.97-1.21-1.97-.49-2.39-2.74-.81-.59-1.5-1.38-1.74-2.37l-.54-2.19-.55-3.78-.16-3.06.1-2.11c.02-.44-.64-.91-.38-1.59.3-.79.15-2.7.14-4.24v-2.53s.31-.54.31-.54l-.31-.38-.24-3.42c-.07-1.02.38-2.07.07-3.09-.23-.76-.32-1.49.29-2.12-.34-.31-.57-.65-.56-1.11.22.04.35.09.57-.1-.56-.26-.62-.71-.54-1.14.04-.24.25-.48.63-.77-.63-.59-.73-1.19-.7-1.93l.07-2.33-.09-4.12c-.04-1.87-.1-3.53.19-5.41-.13-.62-.54-1.4-.52-2.22l.08-2.75c.01-.53.34-.69.71-.92-.48.06-.73-.2-.36-.43l-.16-4.18.23-3.84-.02-3.97c0-.67-.01-1.36.47-1.89-.32-.3-.5-.73-.46-1.19l.27-3.72.13-3.47c.02-.49-.18-.87.14-1.29.45-.58-.17-1.34-.14-1.93l.32-6.72-.05-4.94c-.01-1.1-.02-2.53.49-3.48.35-.66.31-1.04.39-1.61.36-2.63,2.09-4.92,3.76-6.99.97-1.2,2.23-1.74,3.61-2.35l1.74-.77,1.69-.1c1.59-.45,3.19-.86,4.89-.6Z"/>
            <path class="cls-6" d="M27.25,8.04c-.14.67.27,1.24.29,1.9l.14,3.9.22,3.78.41,6.48.05,2.23.17,5.89-.1,5.62c-.01.72.07,1.19.07,1.85v4.34c0,1.07.22,2.36-.02,3.37-.15.64.04.86.06,1.41l.22,5.1c.02.51-.39.74,0,1.43.33.57-.07,1.66-.18,2.26l.02,4.21c0,1.15.14,2.3.12,3.49l-.05,3.71c0,.49-.11.8,0,1.46.21,1.19,0,2.55,0,3.78v1.55s.08,4.56.08,4.56c.02,1.27,0,2.66-.07,3.9l-.11,2.07-.23,4.07-.41,5.79c.97-.38,2.13-.29,3.19-.34l2.79-.13c1.11-.05,1.96-.22,3.09-.08.68.09,1.64-.07,2.34-.16l2.26-.29,6.24-.11c1.51-.03,2.85-.16,4.37.12.72.13,1.84-.38,2.49-.03s.83.16,1.41.04c2.1-.4,4.26-.06,6.33-.09.84-.01,1.46.16,2.32.11l1.61-.1c.38-.02,1.12.2,1.46.11.63-.16,1.01-.44,1.74-.39l3.54.22,1.94-.04,1.91-.03,2.73-.13,3.72.38,1.56-.05c.45-.02.99-.52,1.63-.28,1.05.4,2.1.04,3.18,0l3.18-.13,3.24.08c.55.01,1.27.49,1.73.75.79.44.62,1.44.37,2.11-.74.52-1.5,1.24-2.49,1.26-.16.69-2.28.69-2.52.04l-.48.41c-7.74.24-15.48.18-23.22-.17-.27-.34-.61-.37-1.02-.11-.93-.16-1.87-.16-2.83,0-8.61.15-17.2.13-25.77-.08-6.03.15-12,.78-17.9,1.89l-.38-.36-.4-.3c.16-1.77-1.38-1.24-2.01-.07-1.24.29-2.82.48-1.96-1.25.79-.72,1.77-1.11,2.87-1.36l5.27-1.17c-.16-1.7-.55-3.35-.3-4.94.1-.61-.15-.7-.17-1.15l-.69-13.08.07-2.99v-5.8s-.1-4.44-.1-4.44v-2.61s.04-3.61.04-3.61c0-.47-.03-1.2-.16-1.64-.25-.84-.03-1.55-.05-2.31l-.09-5.09.14-8.39.09-4.48.36-7.08.1-9.18.17-5,.15-2.36c.09-1.47-.13-2.92.55-4.27.56-.43,1.26-.53,1.68.02Z"/>
            <path class="cls-1" d="M95.82,99c.45.52.47.97.25,1.67-.73,2.32-1.46,4.63-1.52,7.07l.43,2.68c.2,1.26,1.08,3.39.33,4.3-.79.7-2.74.39-3.36-.46-.45-.84-.74-1.78-.87-2.82-2.5-.07-5.08.04-7.72.32-17.49.36-35.05.23-52.68-.38-1.17-.31-1.63-.98-.56-1.82l3.04-.38c19.22-.49,38.43-.73,57.63-.73l.16-3.35c-3.52.65-7.11.97-10.67.48-18.16.37-36.36.51-54.58.42-2.81-.24-4.84-1.24-.95-2.21,7.48-.66,14.95-.65,22.46-.5,10.65-.8,21.34-1.18,32.06-1.13,4.12.12,8.24.23,12.36.34.18-1.13.51-2.2,1.01-3.21l.66-.24,2.52-.04Z"/>
            <path class="cls-8" d="M21.7,100.61c.09.16.1.31,0,.45-2.56.57-3.77,1.57-4.65,4.13-1.12,3.25-.28,6.18,2.78,7.88,1.88,1.05,7.24,1.64,9.57,1.82,2.08.16,4.54.23,6.64.22,7.34-.39,14.71-.56,22.06-.39,1.18-.22,2.35-.21,3.51,0,4.7-.34,9.46-.53,14.17-.66,4.48-.13,8.93-.16,13.44-.14.41-.14,2.11-.21,2.39-.1.18.07.28.24.34.42,1.16.27,2.23.44,3.36.46l1.73.59c-.08.6-.61.58-1.04.72-1.71.6-3.34,1.19-5.16,1.25l-5.04.16h-4.08s-6.13.17-6.13.17l-5.39.16-7.72.28-7.49.17-3.49.04-8.94-.08c-.48,0-.56,0-1.06-.03l-3.38-.18-1.87.02c-1.85.25-3.62.45-5.52.23l-8.81-1.05c-1.69-.2-3.19-.89-4.71-1.64-1.17-.58-2.07-1.59-2.87-2.59-.46-.58-.35-1.31-.57-1.84-.84-1.97-.9-3.95-.14-5.97.62-1.67,1.09-3.41,2.23-4.82l1.46-1.34.29,1.17c.62-.31,1.05-.29,1.49-.25.3-1.07,1.45-1.26,2.34-1.1.22.64.31,1.16.25,1.79Z"/>
            <path class="cls-3" d="M93.3,99.04c-.78,1.05-1.02,2.45-1.33,3.93l-.91-.15-8.88-.12-2.91-.13-12.2.07-5.28.12-5.94.5-6.51.34-2.11.09-9-.11-5.89.14-5.06.27c-1.49.08-3.08.06-4.46.94,1.9.81,3.74.62,5.55.63h7.68s6.12.09,6.12.09l13.63-.1,7.69-.21,5.28-.07,6.23-.05,5.32-.07c3.73.47,7.27.23,11.09-.63l-.16,4.37-9.01-.1-1.11.1h-6.13s-9.32.06-9.32.06l-4.37.1-4.29.09-7.7.17-4.48.11-11.66.17-2.63.27c-.41.04-.64.28-.59.6.04.26.32.46.74.47l31.03.63,16.78-.07,4.81-.18,3.29-.24,4.85-.25c-.05,1.51.86,2.66.47,3.42-.32-.07-.8.25-1.37-.05-.32-.17-1.09.21-1.47.16-1.09-.16-2.08-.19-3.15,0l-2.89-.09-2.68.21-4.61.03-2.7.14-3.01.09c-1.67.05-3.24-.13-4.92.24l-2.21.06c-.49.01-1.38.22-1.83.07-1.1-.36-1.97.05-3,.05h-1.97s-2.61-.02-2.61-.02l-3.27-.1-3.54.13-2.89.04-4.19.19-2.9.14c-.9.04-1.96-.04-2.86-.07l-4.51-.15-3.87-.48-3.77-.63c-1.67-.28-2.97-1.25-4.22-2.36-.29-.26-1.5-2.96-1.41-4.04.2-2.6,1.49-5.83,3.57-6.52l2.04-.67,4.48-.9,3.94-.31c1.25-.1,2.35-.33,3.62-.4l6.23-.34h2.2s5.75.2,5.75.2l8.37-.02,4.26-.05,2.64-.05c1.4-.03,3.04.12,4.42-.16.39-.06.99.56,1.5-.18.27.17.41.25.66.52l4.68.08c.61.01,1.25-.02,1.88,0l2.51.08,4.36.12,4.1.06,1.85-.07,1.85-.12c.71-.04,1.53-.01,2.32-.03Z"/>
          </g>
        </g>
      </g>
    </g>
  </g>
</svg>