<?xml version="1.0" encoding="UTF-8"?>
<svg id="Layer_2" data-name="Layer 2" xmlns="http://www.w3.org/2000/svg" viewBox="0 0 94.07 116.21">
  <defs>
    <style>
      .cls-1 {
        fill: #f0f6fa;
      }

      .cls-2 {
        fill: #eef5fa;
      }

      .cls-3 {
        fill: #568aad;
      }

      .cls-4 {
        fill: #f2f7fa;
      }

      .cls-5 {
        fill: #dbdbdb;
      }

      .cls-6 {
        fill: #eff7fa;
      }

      .cls-7 {
        fill: #ddd;
      }

      .cls-8 {
        fill: #d7d7d7;
      }

      .cls-9 {
        fill: #f0f8fb;
      }

      .cls-10 {
        fill: #f2f8fa;
      }

      .cls-11 {
        fill: #f1f8fa;
      }

      .cls-12 {
        fill: #5c8dad;
      }

      .cls-13 {
        fill: #eff6fa;
      }

      .cls-14 {
        fill: #5789ac;
      }

      .cls-15 {
        fill: #bfbfbf;
      }

      .cls-16 {
        fill: #eff5fa;
      }

      .cls-17 {
        fill: #f1f7fa;
      }

      .cls-18 {
        fill: #7db0ca;
      }
    </style>
  </defs>
  <g id="Layer_1-2" data-name="Layer 1">
    <g>
      <path class="cls-5" d="M33.87,113.25l-8.86.05c.02-.1.19-.26.42-.26l8.45.21Z"/>
      <path class="cls-5" d="M24.6,113.3h-3.61c-.22,0-.37-.09-.42-.21h3.61c.23-.02.37.07.42.21Z"/>
      <path class="cls-5" d="M54.09,113.29c-.04.13-.18.24-.4.23h-3.61c.04-.15.18-.24.41-.24h3.59Z"/>
      <path class="cls-5" d="M67.17,112.87c-.02.15-.18.23-.41.23h-2.34c.04-.14.18-.24.41-.24h2.33Z"/>
      <path class="cls-5" d="M59.38,113.08c-.04.13-.19.23-.41.23l-1.72-.02c.04-.13.19-.23.42-.22h1.72Z"/>
      <g>
        <path class="cls-8" d="M70.33,114.75c-.91.07-1.83.14-2.74.22h-5.05c-.71.07-1.43.14-2.14.21l-1.85.13-1.3-.13c-1.33.08-2.67.16-4.01.23l-11.77-.07-4.45-.21c-2.97-.1-5.93-.08-8.86.05h-.41c-1.33-.08-2.68-.15-4.03-.21-3.33.01-6.65-.28-10-.95-5.58-1.11-9.75-5.33-10.94-10.84-.07-.53.04-.68.31-.44.41,1.99,1.59,3.67,2.8,5.25-.08.78.62,1.34,1.25,1.76,2.89,3.33,7.02,3.85,11.29,4.23l4.47.4,5.26.18,5.28-.22c1.04-.04,2.17.1,3.21.13l4.91.15,6.21-.03,7.47.04,2-.06,5.33-.18,8.58-.12c.93-.01,1.82-.06,2.74-.15l2.11-.2c3.01-.03,5.77-.75,8.32-2.28,1.45-.87,2.63-1.75,3.67-3.2,2.18-3.04,3.51-6.69,3.67-10.56l.47-11.11.19-4.95.22-6.24c.04-1.17-.03-2.21-.06-3.38l-.14-5.89-.22-16.93-.23-19.31-.2-4.3-.2-5.17-.53-5.02c-.18-1.66-1.42-5.92-2.53-6.19-.99-2.03-2.45-3.81-4.23-5.17.19-.24.68-.12.97.13,2,1.77,3.81,3.8,4.99,6.26l.7,2.06c.42,1.23.64,2.51.74,3.81l.73,9.33.19,6.48.16,16.74.12,2.2-.05,2.27-.02,2.25.05,4.06.16,8.08.04,11.82-.25,6.53-.26,4.24c-.24,3.79,0,7.46-.89,11.14-.81,3.4-2.22,6.57-4.77,8.86-3.18,2.84-6.98,4.13-11.1,4.18l-5.41.07Z"/>
        <g>
          <path class="cls-15" d="M5.91,107.99c3,3.17,6.99,4.41,11.31,4.62l11.81.58,12.85.18h12.02s13.9-.49,13.9-.49l9.25-.38c4.63-.19,8.85-2.94,11.17-6.97,1.88-3.27,2.57-6.95,2.68-10.71l.25-9.03c.17-5.99.44-11.79.31-17.79l-.29-13.54-.13-20.38-.74-17.11c-.12-2.71-.7-5.27-1.82-7.57.14-.14.39-.31.48-.22,1.18,1.14,2.01,4.53,2.29,6.18,0,0,.27,3.49.81,10.47.32,16.48.57,32.97.74,49.47-.16,7.28-.43,14.56-.81,21.86-.61,9.73-4.96,15.58-14.5,17.05-14.61.78-29.2.93-43.77.47-5.28.19-10.56.06-15.85-.4-3.7-.33-6.96-.96-9.96-3.33-.53-.42-2.23-1.95-2.36-2.52-.04-.17.19-.34.37-.46Z"/>
          <g>
            <path class="cls-7" d="M1.63,80.64c-.26.79-.33,1.59.02,2.36l.16,3c-.17.75-.15,1.46.08,2.13l.43,7.96.31,4.3c.05.94.1,1.88.17,2.79.33.45.58.99.74,1.63,3.88,8.9,10.59,9.54,19.62,9.87l.58.29c1.34.07,2.69.14,4.03.21,0-.44.32-.44.41,0,2.94-.13,5.89-.15,8.86-.05-.02-.19.04-.32.2-.32,5.23.16,10.51.22,15.77.2l.25.39c1.33-.08,2.67-.16,4.01-.23.01-.1.04-.2.09-.28.08-.12,2.81-.1,2.91,0,.07.08.11.17.15.28.72-.07,1.43-.14,2.14-.21.03-.16.06-.28.1-.28.55-.04,4.64-.18,4.81,0,.07.07.11.17.14.29.92-.07,1.83-.14,2.74-.22l.09-.23c6.71-.05,13.88-.18,18.22-6.49,2.32-3.37,3.03-6.95,3.35-10.98.44-5.64.62-11.74.73-17.33-.09-15.78-.24-31.58-.47-47.42l-.52-11.74c-.21-6.83-1.53-11.2-6.69-16-.22-.21-.51-.29-.81-.33-1.92-1.46-4.2-2.26-6.7-2.6-4.94-.67-9.78-.94-14.79-.84l-12.65.25-14.13.32-8.43.24-10.44.44c-2.94.12-5.71.89-8.28,2.29-.02-.68.77-.64,1.04-.85,1.65-1.26,6.51-2.3,8.91-2.37l4.53-.13,4.66-.19,3.88-.13,3.6-.16,13.05-.2,5.28-.23,16.09-.07,2.35.25,2.84.27c2.01.19,3.8.48,5.77.99,4.34,1.13,7.79,4.12,9.83,8.24,1.4,2.83,1.87,5.96,2.12,9.15l.25,3.15.19,3.24.2,4.35.18,17.24.22,18.42.19,6.48c.06,2.21.05,4.3-.05,6.5l-.22,4.93-.13,3.77-.18,6.45c-.17,5.9-.97,12.92-5.27,17.18-3.36,3.33-7.34,4.77-12.01,4.93l-5.09.18-7.89.16-2.13.2-6.32.15h-13.22s-1.81-.12-1.81-.12l-15.62-.16-3.58-.22c-2.62-.16-5.13-.33-7.68-.99-5.37-1.4-9.5-5.63-10.79-11.1l-.73-4.87-.19-4.51-.22-4.26-.2-5.16-.13-3.98-.19-3.63-.16-3.64v-1.76s-.09-15.37-.09-15.37l-.1-2.24v-4.97s-.01-3.58-.01-3.58l.11-1.5.09-14.78.17-3.44.15-3.21.22-2.35.32-3.15c.23-2.32.74-4.52,1.67-6.68,1.02-1.54,1.78-3.29,3.51-4.36-2.35,2.57-3.66,5.59-4.09,9.16-.79,6.64-.94,13.1-.94,19.83v28.94s.42,16.54.42,16.54Z"/>
            <g>
              <path class="cls-5" d="M3.11,102.74c-.17.06-.26.25-.31.44-.19-.9-.64-1.88-.17-2.79l.48,2.35Z"/>
              <path class="cls-5" d="M1.65,83c-.72-.54-.56-1.72-.02-2.36l.02,2.36Z"/>
              <path class="cls-5" d="M1.89,88.13c-.39-.03-.44-1.44-.08-2.13l.08,2.13Z"/>
              <g>
                <path class="cls-18" d="M52.73,106.49c-1.7.09-3.18-.17-4.77-.11l-1.86.07-2.99.06c-.81.02-1.55.08-2.38-.17h-1.95s-2.75-.13-2.75-.13l-3,.11-5.85.04c-.52,0-.81-.05-1.31.03-1.64.26-3.32-.19-4.95-.24-.72-.02-1.33.08-1.92-.55-1.04.27-2.08.09-2.95-.45-.78.4-1.55.25-2.18-.29-2.61-.26-4.25-3.01-4.49-5.51-.08-.87-.24-1.87-.08-2.78.18-1.03.23-1.81-.13-2.78l-.11-2.23-.15-2.65-.27-3.99c-.06-.9-.68-1.94.02-2.92-.44-1.39-.41-2.92-.32-4.5-.35-.91-.11-1.76-.1-2.66,0-.53-.34-1.07-.16-1.69.3-1.02-.05-2-.1-3.01-.04-.9.24-1.74.01-2.61-.1-.38.05-.79.3-1.1-.61-.52-.11-1.3-.15-1.84l-.14-1.79v-4.36s.01-2.46.01-2.46c0-2.46-.33-4.85,0-7.33l-.04-2.93.09-2-.03-1.73-.04-3.19c-.01-1.01-.32-2.36.11-3.29.28-.6-.03-.75-.03-1.27l.02-3.82c0-.51.25-.79,0-1.32-.42-.9.18-2.06.11-2.92-.11-1.33.1-2.42.2-3.71l.17-2.42.24-2.56c.06-.62-.09-1.53.29-2.04l.44.16c.41.15-.51-.58-.25-1.13.52-1.12.96-2.24,1.78-3.17l1.21-.94c.11-.09.54.11.61.03l.47-.57,2.43-.76,2.11-.24c.7-.33,1.11,0,1.73-.02l2.66-.07,4.13-.31,3.08-.02,2.29.02,1.32-.19c.76.23,1.47-.1,2.23-.1l6.47-.04,6.96-.22,9.42-.26c.77-.02,1.6.33,2.36-.02.56-.26,1.17.22,1.55.17,1.11-.14,2.02-.42,3.13-.16h2.35c.63-.01,1.02.36,1.74.12s1.55-.07,2.11.44c.68-.34,1.34-.32,1.9.24,1.7-.5,4.94.05,5.2.47l.27.44c.07.12.43-.08.57-.02,2.18,1.02,3.38,3.12,3.73,5.48l.44,2.96.23,2.75-.27.51c-.05.1.26.34.27.51l.09,3.42c.04,1.51.46,3.06.11,4.69.35.66.38,1.34-.01,1.87.42.64.34,1.36.15,2.07l.13,2.66v2.23s-.01,3.88-.01,3.88c0,.41.29.94-.1,1.33-.06.06-.21.17-.2.22,0-.01.82.87.24,1.92-.05.1-.23.18-.24.24s.11.2.17.25c.65.57.02,1.52.14,2.08.21.97-.05,1.63.02,2.57l.18,2.4-.06,2.67c-.02.71.04,1.35-.17,2.01.12.34.19.88.19,1.31l.04,3.57v1.33s.2,4.85.2,4.85l.03,3.7-.05,2.29.04,1.94c0,.16-.17.35-.24.45-.07.1.12.34.31.51l-.17,3.94-.29,7.16c-.03.77-.27,1.43-.09,2.23.06.25.03.78-.13.94-.27.27.05.4.05.52v3.17s-.65,3.3-.65,3.3c-.38,1.97-.88,3.01-2.28,4.47-.44.46-.87.57-1.32.84-.63.38-.79.61-1.59.58l-3.15.71c-.4.09-.57-.01-.98,0l-2.09.02c-.41,0-.53-.04-.95-.03l-2.47.08c-.22,0-.52-.16-.7-.22-.75.54-1.5.56-2.32.23-.07.17-.31.38-.39.32-.13-.09-.26-.38-.4-.64-.18.26-.33.65-.53.63l-.85-.06c-.41-.03-.89.17-1.38.03-.39,0-.84.22-1.46.16l-1.3-.14-3.29.18-3.21.17Z"/>
                <g>
                  <path class="cls-9" d="M45.98,36.74c-.45.02-.63-.13-1.05-.02-1.99.55-4.12.2-6.18.18l-2.82-.03-3.76-.3-5.47.07h-3.4c-1.63.01-3.56.07-4.96-.99l-.91-1.55c-.72-1.24-.44-2.72-.68-4.09l-.05-4.83c-.02-1.61.15-3.42.75-3.02l-.38-.26c.02-.76.07-2.11.72-2.7,2.32-1.33,5.03-1.36,7.63-1.34l8.23.06,3.3-.08,5.38-.27,7.13-.42,1.92.06,7.76.34h2.13s1.8.16,1.8.16h4.3c2.15-.02,4.4-.18,6.34.87.55.3,1.73,3.46,1.73,3.85v3.45s.09,4.08.09,4.08l-.27,2.3c-.09.77-.05,1.78-.53,2.37-1,1.23-2.41,1.21-3.78,1.38-2.49.31-4.84.4-7.35.42l-8.25.06-3.98-.04-5.41.25Z"/>
                  <path class="cls-3" d="M74.99,94.46c.03,4.11-5.52,2.93-8.55,2.79-1.09-.05-2.37-.86-2.41-2.35l-.28-10.56-.13-3.68c-.07-1.84-.06-3.68.52-5.44.41-1.23,1.33-1.66,2.53-1.8,1.96-.24,3.91-.42,5.7.32-.28.43.23.72.33.16,1.19.02,2.02,1.1,1.96,2.41l.4,1.71.03,6.46v4.47s-.12,2.56-.12,2.56l.02,2.96Z"/>
                  <path class="cls-4" d="M26.17,97.68l-2.96-.15-2.71-.28c-1.33-.14-2.16-.79-2.46-2.3-.21-1.09-.55-2.2-.08-3.32-.3-1.24.17-2.86,1.32-3.47s2.53-.46,3.84-.48l10.96-.16h7.48c1.34.34,2.4,1.18,2.6,2.61.43,2.99.29,6.87-2.49,7.09l-3.29.26-10.22.13-2,.07Z"/>
                  <path class="cls-2" d="M23.84,68.13c-1.82.35-3.46.24-5.03-.5-1.25-1.69-1.51-3.74-1.12-5.85.02-.96.25-2.14,1.18-2.59,1.9-.9,4.06-.93,6.11-.9,2.25.03,3.65,1.51,3.75,3.7.09,1.8.09,3.67-.81,5.19-1.25.91-2.5,1.36-4.09.96Z"/>
                  <path class="cls-13" d="M57.92,96.99l-3.45.32c-2.43.23-4.93.2-5.14-1.92-.76-.75-.87-1.89-.49-2.95-.4-1.12-.44-2.6.27-3.56.99-1.34,2.67-1.44,4.14-1.49,3.01-.11,6,.23,6.4,3.29.2,1.51.13,3.11-.18,4.73-.1.53-.97,1.53-1.54,1.59Z"/>
                  <path class="cls-11" d="M25.25,83.08l-3.45.3c-1.12.1-2.69-.08-3.38-1.17-1.22-1.92-1.01-4.2-.63-6.35.2-1.11.64-1.96,1.87-2.19,2.22-.42,4.62-.4,6.89,0,1.21.21,1.93,1.23,1.93,2.4v4.03c0,1.87-1.58,2.84-3.23,2.98Z"/>
                  <path class="cls-12" d="M73.37,53.19c-2.63.82-5.65.66-8.47.38-1.75-2.42-1.45-7.41.27-9.31.46-.51,6.26-.75,7.96.12,2,1.01,2.6,7.26.24,8.81Z"/>
                  <path class="cls-14" d="M65.89,67.93c-.64-.2-1.29-1.13-1.65-1.64-.52-.73-.11-1.64-.2-2.32l-.2-1.48c-.19-1.4.16-3.04,1.82-3.68,1.96-.76,4.52-.64,6.77-.26,1.11.19,2.18,1.46,2.35,2.52.28,1.7.36,3.45.02,5.08-.31,1.49-2.01,1.89-3.3,1.93-1.89.06-3.76.43-5.61-.16Z"/>
                  <path class="cls-17" d="M42.34,67.91c-1.02.48-2.19.18-3.2.34-1.89.3-3.65.09-5.25-.95l-.57-1.73c-.46-1.38-.06-2.76-.01-4.1.05-1.43.63-2.72,2.14-2.83l4.75-.33c2.15-.18,3.99,1.59,3.94,3.69l-.47.17c-.17.06-.1.26-.01.27,1.14.17.38,4.67-1.32,5.47Z"/>
                  <path class="cls-17" d="M53.04,53.87c-1.2.03-2.47-.07-3.54-.78-1.39-.92-1.27-5.07-.63-7.37.29-1.05,1.06-1.53,2.06-1.59l4.97-.3c1.36-.08,2.6.6,3.08,2,.55,1.62.51,3.51.17,5.17-.39,1.93-1.96,2.77-3.82,2.81l-2.3.05Z"/>
                  <path class="cls-1" d="M55.59,68.11c-2.49.18-5.86.6-6.56-1.6-.6-1.9-.48-3.79-.34-5.76.07-1.02.71-1.74,1.73-1.72,1.66-.85,5.26-.98,6.99-.45,1.36.42,1.89,1.51,2.07,2.88.27,2.04.33,4.33-1.12,5.94-.67.74-1.89.65-2.78.72Z"/>
                  <path class="cls-16" d="M42.61,53.04c-2.81,1.06-7.61,1.54-9.03-.61-.92-1.4-.73-3.07-.66-4.64.06-1.38.41-2.64,1.55-3.46l6.35-.41c2.97-.19,3.19,3.67,2.88,6.84-.08.85-.59,1.46-1.09,2.28Z"/>
                  <path class="cls-10" d="M24.84,53.76c-1.8.18-3.47.47-5.08-.19-.48-.2-1.28-.52-1.53-.98-.99-1.8-.87-3.73-.7-5.71.07-.88.57-2.15,1.43-2.37,2.15-.57,4.13-.67,6.25-.43.67.08,1.75-.06,2.19.67,1.32,2.18,1.27,5.13.24,7.39-.54,1.17-1.59,1.5-2.79,1.62Z"/>
                  <path class="cls-6" d="M43.66,80.74c-.31,2.59-3.94,2.64-6.8,2.41-1.03-.09-2.42-.1-2.97-1.23-1.29-2.62-1.01-4.27-.61-6.78.13-.82.69-1.33,1.47-1.38l6.09-.42c1.14-.08,2.51.81,2.79,2.02.41,1.75.23,3.63.02,5.38Z"/>
                  <path class="cls-11" d="M56.17,82.95l-3.15.35c-1.15.13-2.48,0-3.36-.93-1.34-1.41-1.19-4.57-.81-6.84.46-2.71,5.37-2.34,8.54-2.12,1.53.87,2.18,2.46,1.93,4.22.1,1.57-.2,3.86-.98,4.64-.61.6-1.3.58-2.16.68Z"/>
                </g>
              </g>
            </g>
          </g>
        </g>
      </g>
    </g>
  </g>
</svg>