<?xml version="1.0" encoding="UTF-8"?>
<svg id="Layer_2" data-name="Layer 2" xmlns="http://www.w3.org/2000/svg" viewBox="0 0 157.64 219.8">
  <defs>
    <style>
      .cls-1 {
        fill: #0f878f;
      }

      .cls-2 {
        fill: #569193;
      }

      .cls-3 {
        fill: #198b95;
      }

      .cls-4 {
        fill: #f1dd96;
      }

      .cls-5 {
        fill: #fdfaf0;
      }

      .cls-6 {
        fill: #7ab8d3;
      }

      .cls-7 {
        fill: #15626b;
      }

      .cls-8 {
        fill: #19909a;
      }

      .cls-9 {
        fill: #368a84;
      }

      .cls-10 {
        fill: #2f8c88;
      }

      .cls-11 {
        fill: #118890;
      }

      .cls-12 {
        fill: #128890;
      }

      .cls-13 {
        fill: #0f353d;
      }

      .cls-14 {
        fill: #d0dedf;
      }

      .cls-15 {
        fill: #9b9c9b;
      }

      .cls-16 {
        fill: #143a40;
      }

      .cls-17 {
        fill: #13363b;
      }

      .cls-18 {
        fill: #2f8984;
      }

      .cls-19 {
        fill: #fefefe;
      }

      .cls-20 {
        fill: #338c88;
      }

      .cls-21 {
        fill: #fefefc;
      }

      .cls-22 {
        fill: #62accd;
      }

      .cls-23 {
        fill: #067179;
      }

      .cls-24 {
        fill: #8badb7;
      }

      .cls-25 {
        fill: #f1df98;
      }

      .cls-26 {
        fill: #14898e;
      }

      .cls-27 {
        fill: #528e90;
      }
    </style>
  </defs>
  <g id="Layer_1-2" data-name="Layer 1">
    <g>
      <path class="cls-15" d="M140.7,204.42c-4.76.5-8.42-1.37-14.43-1.76-2.49-.16-4.78-.67-7.42-1.48-1.19,3.88-2.54,7.59-4.52,11.12-2.64,4.71-8.08,7.64-13.51,7.5-2.11-.05-4.03-.13-6.05-.91l-4.3-.4-16.46-4.36-10.88-3.18-17.72-5.65-5.54-1.36-8.56-2.98c-2.71-.94-4.95-2.22-7.35-3.76s-4.59-2.8-6.69-4.64c-2.04-1.78-3.77-3.57-5.21-5.88-.96-1.54-1.9-2.94-2.43-4.73l-2.96-9.96c-1.34-1.51-2.36-3.01-3.13-4.83l-.57-2.65c-.12-3.86-.05-7.74.54-11.61l1.7-11.14,2.21-11.03,4.85-14.8,4.61-10.18c-2.76-2.93-5.13-6.04-7.08-9.54-3.4-6.09-8.34-16.65-9.04-23.16l-.76-7.11c.06-6.42,2.31-17.04,5.39-22.57l3.18-5.7c2.34-3.57,4.66-7.02,7.41-10.29l4.74-5.63,7.01-6.96c2.45-2.43,5.22-4.33,8.23-6.08,5.9-3.44,12.25-5.78,18.88-7.39,11.16-2.72,21.22-.85,31.92,2.61,4.25,1.37,7.87,3.28,11.66,5.6,5.48,3.36,10.64,7.02,14.79,12.02l5.24,7.33,3.36,5.75,5.2,9.29c1.69,3.67,2.93,7.43,3.89,11.35l1.17,6.51c.35,1.94.04,3.92-.02,5.9l-.34,10c-.24,6.89-2.84,13.21-6.77,18.75l-4.52,5.61c-1.34,1.67-2.45,3.35-4.24,4.64l-4.58,3.28c-.16.11-.22.24-.09.4l2.15,2.53,12.04-8.52c4.04-2.86,8.66-3.5,12.53-.28.93.78,2.29.53,3.4.81,5.86,1.46,7.94,6.51,6.97,12.48l-.73,4.49-2.42,10.32c1.95,3.52,2.67,7.4,2.26,11.37-.32,3.15-.91,6.01-2.23,8.87s-3.06,5.4-6.05,6.83l-.92,3.96c-.04.16-.03.39.06.4.02,0,4.2-2.74,8.66-2.34,3.84.35,7.21,2.4,8.95,5.79.86,1.67,1.46,3.54,1.43,5.43l-.07,5.08c-.76,5.39-1.91,10.59-4.18,15.5-2.62,5.65-6.17,10.69-12.68,11.37Z"/>
      <path class="cls-19" d="M136.68,203.93l-4.69-1.06-7.54-.88-6.01-1.24c-1.18,4.23-3.93,11.87-6.88,14.47-2.25,1.98-5.04,3.42-8.03,3.95l-4.92.06c-1.48.02-2.78-.8-4.2-.92l-4.56-.41-16.2-4.36-9.92-2.91-18.11-5.76-5.75-1.4-8.35-2.94c-2.64-.93-4.86-2.16-7.21-3.66-2.68-1.71-5.28-3.22-7.61-5.45-.97-.93-2.01-1.69-2.79-2.88l-2.81-4.31c-1.79-4.03-2.84-8.21-4-12.48-2.34-2.45-3.78-5.4-3.73-8.85.05-3.42-.09-6.83.66-10.19l1.76-11.59,2.13-10.39,4.87-14.78,4.62-10.31c-2.57-2.88-4.94-5.7-6.82-9.02-3.27-5.79-5.92-11.68-8.09-17.96-.92-2.66-1.35-5.26-1.56-8.05l-.43-5.65c.43-6.13,1.56-12.1,3.72-17.84,1.39-3.7,3.31-6.84,5.34-10.14,2.51-4.08,5.3-7.68,8.42-11.29,2.64-3.05,5.04-5.95,8.04-8.71,3.24-2.98,6.58-5.76,10.46-7.99,5.88-3.39,12.19-5.71,18.79-7.25,4.87-1.14,9.54-1.54,14.54-1.03,7.62.78,14.89,2.66,21.87,5.67,2.41,1.04,4.45,2.36,6.62,3.73l5.31,3.34c3.24,2.48,6.37,5.04,9.01,8.18l5.47,7.58,3.09,5.3,5.06,8.96c2.71,5.59,4.29,11.46,5.24,17.6.35,2.29.13,4.51.05,6.84l-.34,9.77c-.17,4.88-1.63,9.52-3.87,13.82-1.54,2.96-3.5,5.61-5.58,8.17l-3.23,3.95c-2.15,2.63-5.03,4.48-7.89,6.49l2.84,3.4,13.78-9.54c1.8-1.25,4.02-1.75,6.15-1.53,1.87.2,3.24.95,4.61,2.07,1.28,1.05,5.12.09,8.32,3.75,3.55,4.06,1.48,11.32.29,16.54l-1.71,7.52c3.52,5.9,2.86,13.95.02,20.09-1.32,2.85-3.19,5.29-6.06,6.68l-1.07,4.86c-.02.09.07.36.3.48,2.69-1.73,5.84-2.97,9.11-2.68,6.84.6,10.47,6.38,9.96,12.96l-.33,4.35c-.78,4.53-1.75,8.93-3.62,13.13-2.59,5.82-5.7,10.71-12.34,11.74-1.35.21-2.85.33-4.25,0Z"/>
      <g>
        <g>
          <path class="cls-18" d="M112.19,191.93l-.45,2.5c-.11.63.08,1.01-.08,1.7l-.82,3.7c-.14.62-.23,1.06-.47,1.62l-1.63,3.79c-.75,1.75-1.4,3.68-2.98,4.91-.68.52-1.67.86-2.47,1.18-1.66.67-3.43.29-5.17.02-1.52-.24-2.62-1.16-3.85-1.79-.42-2.92-.87-5.94-.12-8.88l1.25-4.85c.83-2.31,2.22-4.35,3.82-6.02-.54-.59.09-.94.77-.81l2.02-2.04c.71-.72,1.34-1.48,2.32-1.86,1.29-1.23,2.92-1.7,4.71-1.38,1.61,1.3,2.88,3.15,3,5.31l.15,2.9Z"/>
          <path class="cls-10" d="M133.28,194.56c-.47-4.3.53-11.69,2.27-15.67l.87-2c.69-.88,1.17-1.42,1.14-2.45l.35.81c1.32-2.12,5-5.43,6.74-5.68l1.94-.28c1.49-.21,2.69,1.35,2.9,2.77.4,2.71.01,5.31-.53,7.94-.76,3.67-1.54,7.1-3.27,10.54-.96,1.91-1.9,4.15-3.76,5.15-1.93,1.04-3.83.76-5.74.26-1.11-.29-2.15-.53-2.92-1.41Z"/>
          <path class="cls-24" d="M138.04,113.23l-1.29.97c-1.58.82-3.34-.62-4.4-1.81l-5.16,3.4c-6.19,4.37-12.41,8.89-16.05,15.7-.45.68-1.2.96-1.99.78-.85.87-2.12-.1-2.56-.89-.91-.44-1.21-.92-.91-1.44l3.24,1.33,2.53-4.5c.52-.93,1.7-1.39,1.37-2.58.85.18,1.22-.74,1.7-1.2l2.55-2.41,3.07-2.58,5.84-4.23,4.65-2.78c.57-.34,1.22-.51,1.71-.97.35-.08.65.87.29,1.12.37-.11.65-.21.75-.13s.19.4.28.74c.02-.15.35-.54.53-.49.44.33.53.78.82,1.42.66-.96,2.9-.42,3.02.53Z"/>
          <path class="cls-20" d="M59.73,143.02c-.11.91-.93,2.27-.2,2.62s1.8.73,2.6.77c1.35.06,2.28.46,3.53.95,1.96.77,3.9,1.76,4.62,4.01.79,2.49.45,5.45-1.02,7.91-2.42,4.03-9.27,6.38-12.69,5.16l-3.74-1.33c-.56.64-1.62-.29-1.16-.96-1.81-2.17-2.5-5-2.06-7.85.57-3.75.08-4.42,3.23-7.86-.5-.64.65-1.67,1.28-1.15l4.55-2.12,1.06-.14Z"/>
          <g>
            <path class="cls-9" d="M132.41,154.29c-.71-.75-2.11-.9-3.31-1.68-1.6-1.71-2.14-4.02-1.8-6.21l.66-4.28c.58-3.72,4.97-8.15,8.81-7.01-.21-.46-.07-.73-.03-.96.23.14.29.57.25.98,1.95,1.31,2.98,3.47,2.77,5.87-.13,1.56.09,3.14-.38,4.61l-.72,2.23c-1.73,5.33-6.01,5.31-6.29,5.9-.07.15,0,.41.03.56Z"/>
            <path class="cls-5" d="M136.75,114.19l-6.05,4.74-1.52,1.18-1.23.99-1.97,1.72c-.5.43-.64,1.2-1.46,1.54l-2.01,1.57c-.67.52-1.07.55-1.71,1.12l-1.8,1.58c-.49.43-.94.73-1.49,1-1.23.6-1.9,1.89-2.94,2.72l-2.36,1.29c-.77.42-1.24.55-1.95.58l-2.31.09c-1.8.07-3.43.01-5.02-1.1-.32-.22-1.11,0-1.56-.14-6.59-2.06-13.19-3.51-19.94-4.88l-5.35-1.49-2.19-.52c-.87-.21-1.5-.33-2.42-.59l-2.26-.63-1.68-.24c-.28-.9,2.55-2.43,3.79-2.58,1.73-.2,3.36.54,5,.76l5.23.71,5.08.49,2.97.46c1.41.22,2.64.32,3.98.78l4.97,1.71,7.17,2.9c.48.91,1.62.76,1.57,2,.19-.26.26-.42.53-.47.06.4.38.83.53.75l.75-.42c.71.08,1.24.05,1.67-.6l3.09-4.76c2.62-3.24,5.77-5.71,9.11-8.15l3.97-2.9,5.56-3.67c1.02,1.51,2.67,2.34,4.28,2.48Z"/>
            <g>
              <path class="cls-23" d="M136.75,134.15l.26,1.18c-2.34.02-3.94.35-5.76,2.02-2.57,2.36-3.46,6.39-3.54,9.79-.04,1.79.37,3.81,1.71,5.1l2.98,1.4v.66s-1.92,7.4-1.92,7.4c-.42,1.61-1.03,2.43-2.36,3.44l-3.45,2.6.12.53c-5.73,4.2-11.27,8.69-16.61,13.45-4.51,4.23-10.26,2.48-15.47.89-1.7-.18-3.29-.6-4.78-1.28-1.24.03-2.4-.2-3.49-.7-3.23-.35-6.45-.95-9.56-1.87-6.1-.61-12.12-1.71-18.06-3.3-.71-.24-1.09-.72-1.29-1.42s.13-5.33.27-6.37l.51-.32.25-2.9.49-.36c5.59.82,12.09-2.58,13.03-8.52,1.04-6.55-4.1-8.1-9.34-8.91-.4-.12-1.41-.44-1.65-.71-.67-.75-.29-2.58.63-2.91l.38-3.12.94-5.69c.13-.77.28-1.24.29-2.06,0-.42.27-1.19.32-1.6l.16-1.34c.14-1.19.26-2.49.71-3.66.54-1.39,2.53-1.64,3.69-.95l1.29.11c.02-.27.19-.39.44-.43,8.4,2.07,16.93,4.1,25.59,6.1l7.97,2.23,1.37.06c4.58,2.45,10.48,1.21,13.61-2.98,2.71-1.95,5.42-3.94,8.11-5.95,1.24-1.52,2.66-2.86,4.27-4.02l6.85-5.35,1.04-.19c-.53-.53.77-1.47,1.29-.97l1.56-.74c.82.59,1.43,2.01,1.18,3.16l-1.1,5.01-.42,1.27-.37,2.99-.58,2.18c-.06.22.09.66-.11.89-.13.14-.38.24-.65.34,1.14,1.08-.53,1.45-.11,2.61l-.58,1.83c-.18.57-.41.93-.11,1.39Z"/>
              <path class="cls-2" d="M101.96,157.57l-1.12,6.79-2.46,15.81c-.08.52-.93.68-1.28.51-.5-.24-.8-.85-.7-1.51l2.17-15.09,2.48-13.74,2.01-11.32c.15-.87.17-1.85,1.09-2.38.28-.16.7.52.67.91l-.3,4.17-.23,2-.85,4.15-.21,2.63-1.28,7.07Z"/>
              <path class="cls-27" d="M108.76,178.43l-.3.58c-.08.15-.79.15-.84-.04-.38-1.49.04-3.04.26-4.58l.46-3.29.86-4.92.55-2.19,1.09-6.75,1.54-9.13,1.2-7.18,1.15-5.47c.09-.45.33-.86,1-.92-.17.74.06,1.46.11,2.24.17,2.56-.58,4.92-.94,7.42l-1.75,12.01-1.6,9.18-.66,4.1c-.22,1.35-.21,2.78-1.23,3.8.63.97-.13,1.7-.25,2.43-.16.9.22,1.75-.65,2.69Z"/>
            </g>
          </g>
          <g>
            <path class="cls-13" d="M56.32,167.34l-.31,5.17c-.05.76-.15,1.29.21,1.9.33.56,1.04.66,1.75.83l4.38,1.01,2.54.46c2.21.83,4.54,1.01,6.91,1.15l1.86.37c1.48-.2,2.53.48,3.84.75,1.17.24,2.16.24,3.24.69l3.6.44c.74.09,1.12.58,1.95.62l1.66.08c.81.27,1.54.79,2.47.89,5.16.57,8.97,3.45,14.3,1.58,2.26-.79,3.77-2.59,5.52-4.08l2.79-2.38c.61-.52,1.3-1.23,1.95-1.68l2.21-1.56,3.94-3.19,3.55-2.65,2.37.68c1.4.73,2.61,1.3,4.19,1.56l2.41,1.19c1.11.55,2.34.92,3.35,1.54.89.54.55,1.1.58,1.75.04.38.15.73.34,1.06-3.46,5.3-4.39,12.14-4.19,18.47l-.44.59c-.56.9-1.57.92-2.59.52l-1.55-.6c-.62.41-1.14.2-1.77.09l-7.59-1.33-3.07-.67-1.95-.42-2.56-.21-.51-.24c.05-2.95-.38-5.58-2.84-7.54-2.42-1.06-6.78,3.24-8.27,4.95l-.59-.1c-.55.15-.81.42-.77.81l-.08.82c-4.13,4.83-5.58,12.06-4.47,18.24l-.4.7c-.56.98-1.66.72-2.48.89-1.1.22-1.63-.48-2.27-.63l-2.07-.47c-1.27-.29-2.33-.33-3.52-1.07l-3.01-.63c-.97-.64-2-.58-2.91-.94-1.95-.76-3.85-1.05-5.84-1.63l-3.82-1.11-6.39-1.97c-1.01-.31-1.82-.44-2.8-.81l-1.12-.43-3.81-1.11-4.13-1.54-2.29-.82-3.95-1.02c-.69-.18-1.51.14-2.22-.31-.93-.6-2.05-.51-3.04-.93l-3.93-1.66-3.06-1.14-2.55-1.4-2.5-1.66-2.28-1.43-1.45-1.03c-1.05-.75-1.74-1.62-2.54-2.72l-1.12-1.54-1.51-2.89-1.51-4.11-.99-3.75c-.37-1.41-.95-2.84-.51-4.26,1.48.33,2.81,1.47,4.54,1.66.95.1,1.46.72,2.35.9l2.02.41c.92-.5,1.94-.11,2.92.02,1.37-.91,3.11.41,6.03.11,1.59-.16,3.22-.39,4.79-.03l1.72-.07,1.91-.2c1.05-.11,1.86.11,2.91-.45l2.17-.45c.61-.13.87-.16,1.41-.27l5.72-1.26c1.1-.24,2.11-.65,3.18-.51Z"/>
            <path class="cls-14" d="M99.99,189.01l-.77.81c-.68-.42-1.22-.93-1.52-1.59l2.29.78Z"/>
          </g>
        </g>
        <g>
          <path class="cls-22" d="M112.84,124.19c.67.23.61.57.38,1.14-1.45,1.92-2.73,3.95-3.84,6.1-.47.26-1.13.28-1.44-.21-.77-.29-1.52-.72-2.24-1.29l-.39.37c-4.27-1.85-8.63-3.47-13.08-4.84-5.33-.78-10.66-1.48-15.99-2.09-2.09-.74-4.07-.88-5.95-.43-.99.49-1.92,1.08-2.77,1.76-.17.47-.64.59-1.43.35-2.54-.98-3.1.15-3.56,2.5-.75,5.06-1.51,10.12-2.25,15.17l-.53.28-.34.54c-1.61.53-3.19,1.21-4.74,2.02l-.52-.3c-.54.04-1.11-.2-1.71-.73-1.89-.99-3.84-1.76-5.84-2.3-1.88-1.04-3.34-2.37-4.39-3.98l-2.75-8.69c-1.18-2.6-.97-.21-.84,1.17.21,2.31,1.33,7.38,2.52,9.28,1.57,2.51,7.08,4.85,10.01,5.8.82.02,1.4.21,1.72.6l.03.7c-3.39,3.4-3.85,10.36-1.17,14.27l-.04.75c.06.19.06.48-.08.51-5.3,1.16-12.71.42-17.7-1.47-3.6-1.37-8.88-5.28-11.21-8.34-.5-.66-1.13-1.5-.85-2.35-1.52-.15-.77,1.51-.34,2.35,3.58,7.09,14.46,13.01,22.46,11.89.7.29,1.22.2,1.85-.21,2.3.61,5.06-.3,7.03-1.43.09-.17.23-.42.36-.39.36.06,3.1,1.03,3.22,1.15.14.14.15.37.15.58.75.28.53,2.69-.25,2.9-.23.41-.7.6-1.39.58-4.02.89-8.03,1.8-12.03,2.74-4.18.29-8.38.4-12.6.35-1.32-.41-2.56-.44-3.71-.09-1.05-.25-2.07-.26-3.03-.01-3-.55-5.88-1.68-8.69-2.87l-.2-.56c-1.24-.28-3.05-1.04-3.3-2.47l-.43-2.46.12-3.04c.04-.93-.04-1.68.12-2.56l.67-3.73c.11-.59-.34-1.13.21-1.85l.81-2.53c.2-.61.24-.66.06-1.13-.36-.94.4-2.1.44-3.05.11-2.7.62-5.12,1.18-7.67l1.25-5.74,1.26-4.21,1.25-3.61,1.85-4.78c.21-.55.62-.93.71-1.46-.04.22,1.19-3.23,1.09-3.02l1.41-2.87c.34-.7.79-2.33,2.01-2.7l-.46-.53c-.15-.17-.05-.53.14-.74l1.09-1.24c.38-.43,1.25-1.45.67-2.02l-1.97-1.94c-.94-.92-1.64-1.55-2.49-2.52-1.25-1.43-2.72-2.71-3.55-4.52-.9-.49-1.53-1.29-1.2-2.27-1.09-.9-1.61-1.95-1.53-3.41-1.48.43-.97-1.22-2.52-3.64l-.48-1.65-.84-1.46c-.31-.53-.33-1.16-.44-1.57-.8-1.1-1.01-2.44-1.44-3.7l-.82-2.37c-.24-.69-.42-1.13-.52-1.97l-.67-5.88-.12-1.73c-.12-1.68.27-3.28.55-4.91l.92-5.53c.08-.47.38-.87.82-1.14-.79-.94.32-1.55.53-2.07.06-.73.05-1.29.45-2.13l.93-1.99,1.73-3.41c.45-.88.86-1.41,1.48-2.31l1.39-2.01,2.17-3.24,1.38-1.88,1.19-1.73,4.11-4.98,2.74-2.94,4.4-4.39h.52s.24-.48.24-.48l2.65-2.07c1.08-.84,2.11-1.9,3.34-2.53l1.77-.91c3.89-2.01,9.92-4.46,13.94-5.1,1.52-.24,2.49-1.25,2.61-.86l.26.81c.29-.22.27-.58.3-.93,1.87-.77,3.75-.62,5.71-.78.49-.04.87.06,1.16.21.34-.24.79.01,1.11,0,1.06-.05,1.78.07,2.83.22l1.89.28.58-.13c.12-.03.14.34-.05.64-.1.41.54.49.45.02-.01-.5.31-.63.58-.62.36,0,.65.2.73.7.23-.27.57-.46,1-.36l4.53,1.15.39.37.43-.2,2.69,1.08c1.79.04,2.23.96,4.25,1.38,1.73.36,3.08,1.73,4.68,2.36l2.42,1.46,2.39,1.38c2.05,1.19,3.89,2.38,5.67,3.96.56.5,1.34.86,1.69,1.58,2.01,1.46,2.94,2.82,4.25,4.54l2.14,2.81,1.45,1.99,3.34,5.98,2.18,3.97c1.25,1.57,1.9,3.35,2.81,5.09,1.15,2.2,1.74,4.36,2.37,6.78l.9,3.47c.3,1.16.93,2.67.62,3.87s-.09,1.96.19,3.12c.21.9-.1,2.24-.08,3.32.09,4.67-.11,9.18-1.02,13.7-.04.2-.45.28-.53.36-.11.11.17.47.09.71l-.88,2.49c-.66,1.88-1.5,3.49-2.52,5.16l-1.59,1.86-3.7,4.93-2.41,2.75c-.48.54-1.19.58-2.51,1.69l-1.72,1.45-2.93,1.99-3.6,2.81-1.79,1.41c-.23.18-.24.44-.21.61.05.28.42.36.61.5l3.47,2.56,4.3,4.07-.25.57c-.06.14.07.45.4.24.14-.09.33-.11.41-.08.12.04.29.3.28.5-.04,1.14.51,1.71.58,1.28.01-.08.18-.32.33-.35l1.09,1.76c1.2.48,2.66,1.87,2.99,2.84Z"/>
          <g>
            <g>
              <path class="cls-12" d="M51.67,162.15c.25.3.79.84,1.16.96-.33,1.4-2.86,1.76-4.88,2.08-.75.12-1.45.29-2.09-.22-.5.53-1.23.57-1.92.26-1.57.42-3.13.17-4.73-.1-.97-.17-1.81-.09-2.88-.48-4.1-1.48-7.87-3.44-11.18-6.33l-1.96-2.21c-1.69-1.91-3.58-4.95-2.36-5.88.25-.19.8-.26,1.32-.37.5.28-.03,1.03.11,1.33.29.63.8,1.41,1.28,1.89l2.97,2.94,4.24,3.16c3.62,1.99,7.75,3.25,11.87,3.52l6.52-.14,2.54-.39Z"/>
              <path class="cls-1" d="M54.13,145.29c-.4.2-.96.79-1.28,1.15-.63.09-1.37.09-2.03-.19l-5.88-2.5c-1.6-.68-3.03-1.68-4.03-3.11-.82-1.18-1-2.6-1.52-3.92-1.2-3.04-1.83-8.8-.91-8.92,1.18-.15,1.83,2.98,2.28,4.4l1.82,5.74c.61,1.92,2.76,2.56,4.17,3.88,1.42.08,2.63.88,3.96,1.47,1.25.55,2.52.9,3.4,2Z"/>
              <path class="cls-8" d="M97.07,120.17c.78,1.84,1.61,5.21.79,5.65-.22.12-.85.04-1.01-.33-.75-1.83-1.48-3.81-1.4-5.82.01-.37.77-.4.93-.21.14.17.54.36.68.71Z"/>
            </g>
            <g>
              <path class="cls-11" d="M46.21,112.51c.46.1.55.7.43,1-.15.37-.73.63-1.19.45l-3.44-1.31c-3.16-1.2-6.04-2.55-8.87-4.41-.52-.34-1.32-.59-1.35-1.17-.03-.71-.06-1.25.7-1.98.09,1.08,1.09.62,1.42.85,2.9,1.99,5.69,3.57,9.04,4.55,1.01.3,2.12.86,2.85,1.48.09.07-.03.48-.05.57s.29-.07.44-.04Z"/>
              <path class="cls-3" d="M89.89,114.71c-.54.19-1.01-.15-1.15-.43-.12-.25.1-.75.46-.93l3.95-1.96c2.22-1.1,3.53-2.85,4.28-1.86.2.27.24,1.16-.17,1.41l-4.66,2.85-2.7.93Z"/>
              <g>
                <path class="cls-26" d="M74.11,114.95c-2.15-.56-4-1.52-5.9-2.42l-8.14-3.88c-1.67-.8-3.25-1.54-4.68-2.69l-5.06-4.05-6.09-5.48c-2.21-1.99-3.74-4.37-5.02-7.04-.28-.59-.82-1-.47-1.78-.49-.06-.87-.26-1.02-.67l-2.85-7.73c-.25-.68-.17-1.07-.22-1.8l-.24-3.14c.2-1.98-.06-4.13.71-5.97l2.95-7.04c.21-.5,1-.85.85-1.61-.11-.58.61-.86.79-1.12l.9-1.32c.33-.48.5-.98.78-1.44,1.75-2.91,3.45-5.8,6.19-7.87l4.5-3.4,4.85-3.03c4.7-2.94,9.72-5,15.04-6.62l4.36-1.33,5.2-1.24c1.35-.32,2.57-.31,3.95-.19,1.1.09,1.77.16,2.75.67l5.25,2.72c.26.13.96,0,.84.69.37-.14.67-.12,1,.08l5.09,3.27c2.82,1.82,5.09,4.01,7.37,6.46,5.36,5.78,7.41,9.63,9.32,17.29.43,1.71,1.01,3.29.99,5.14-.02,1.68.5,3.48-.29,5.13-.4.03-.32.56.16.39.13,1.55-.4,2.99-.8,4.59-1.35,5.37-2.76,9.77-6.29,14.18l-3.07,3.83c-1.59,1.99-3.33,3.67-5.42,5.16l-4.61,3.29c-5.07,3.62-13.21,5.92-14.03,6.4l-3.87,2.28-1.61.29c-1.26.69-2.49,1.44-4.13,1.01Z"/>
                <path class="cls-4" d="M108.43,85.86c-.78,1.67-1.36,3.52-2.67,4.95l-2.23,2.44-2.16,2.02c-1.06.12-1.99-.53-2.49-1.58-1.77-3.7.42-8.53,4.08-9.99,1.6-.64,3.56-1.36,5.23-.2.58.4.52,1.8.25,2.37Z"/>
                <g>
                  <path class="cls-21" d="M108.43,85.86l-.39-.36c.5-1.68-.6-2.19-2.09-2.14-5.31.18-9.65,6.94-5.73,11.16.59.12.97.37,1.14.74l-2.48,2.69-4.45,2.69-6.4,3.41-6.93,2.92-3.04.82c-.81.22-1.71.15-2.41.94l-2.74-1.11c-3.6-1.21-7.01-2.67-10.44-4.47-.84-.44-1.41-.9-2.48-1.21s-2.17-1.48-3.1-2.12l-1.95-1.34c-2.75-1.88-4.75-4.44-6.89-6.88l-1.29-1.46-1.84-3.79c-1.2-2.47-1.83-4.98-2.02-7.76l-.25-3.65c-.13-1.87.11-3.89.71-5.75l1.01-3.15,1.14-3.02,1.16-2.51,1.91-2.99c1.62-2.29,3.23-4.39,5.49-6.07,0-.23.3-.56.43-.64s.34.1.51.31l6.15-4.09,2.68-1.39,6.26-2.77,3.21-1.19,4.01-1.43,1.95-.71,3.39-1.32c.5-.19,1.61-.15,2.12-.16,1.63-.05,2.75,1.07,4.1,1.64,2.12.9,3.92,2.04,5.83,3.31l1.19.79c1.25.83,2.79,1.91,3.73,3.09.21.05.72-.13.86.07.16.22.21.37.22.78,0,.23.58.3.98-.01-.28.77.19,1.54.78,1.92-.03-.41.1-.57.18-.59.09-.02.24.07.27.15s-.07.22-.07.37c0,.96,1.05,1.44,1.63,2.08l1.2,1.3c.47,1.1,1.2,2,2.18,2.78.15,1.18.81,2.13,1.83,2.87-.33,1.05.54,1.4.83,2,.31.67.93,1.67,1.04,2.37l.84,5.24c.12,4.63-.28,9.12-1.8,13.42l-1.57,3.36c-.17.37-.26.75-.62.88Z"/>
                  <g>
                    <path class="cls-25" d="M65.54,94.92c-2.45.89-4.23,1.09-6.63-.02h-.94c-.32.01-.49-.61-.79-.85-.89-.73-1.99-1.42-2.56-2.67-.81-1.78-.7-4.15-.19-6.1.15-.58.75-1.05,1.02-1.44,1.13-1.65,2.82-2.21,4.7-2.08,1.1.07,2.61.18,3.32.59l2.3,1.33c.78.45.98.86,1.51,1.53,2.34,3.01,2.07,7.28-1.05,9.52l-.35-.37c-.05-.05-.23-.18-.37-.14-.11.03,0,.51.02.7Z"/>
                    <path class="cls-17" d="M73,81.52c-.62,1.11-2.07,1.52-2.94.99-1.27-.77-1.88-1.86-1.72-3.31s.45-2.77,1.16-4.03c.56-1.01,2.04-1.74,3.17-1.27,2.06.86,1.75,5.05.32,7.61Z"/>
                    <path class="cls-16" d="M102.15,76.83c.42,3.3-.9,6.75-3.34,6.26-1.15-.23-2.01-1.09-2.01-2.39-.01-3.25,1.14-6.61,3.48-6.23.93.15,1.75,1.44,1.87,2.36Z"/>
                    <path class="cls-6" d="M89.63,86.38c-.38.98-1.38,1.33-2.29,1.34-.79.01-1.91-.44-2.22-1.41-.39-1.21.19-2.39.24-3.63.05-1.15.63-2.48,1.94-2.57,1.99-.14,3.11,4.24,2.33,6.27Z"/>
                    <path class="cls-7" d="M87.59,92.2c.48-.43,1.07-.51,1.45-.32.43.21.81,1.07.4,1.52-2.58,2.86-6.7,2.85-9.52.31-.69-.62-.94-1.68-.17-2.39.39-.35.96.05,1.21.35,1.75,2.05,4.56,2.37,6.63.53Z"/>
                  </g>
                </g>
              </g>
            </g>
          </g>
        </g>
      </g>
    </g>
  </g>
</svg>