<?xml version="1.0" encoding="UTF-8"?>
<svg id="Layer_2" data-name="Layer 2" xmlns="http://www.w3.org/2000/svg" viewBox="0 0 204.03 202.48">
  <defs>
    <style>
      .cls-1 {
        fill: #ecd477;
      }

      .cls-2 {
        fill: #b6d7e8;
      }

      .cls-3 {
        fill: #73adca;
      }

      .cls-4 {
        fill: #575c5e;
      }

      .cls-5 {
        fill: #68a3be;
      }

      .cls-6 {
        fill: #5b6064;
      }

      .cls-7 {
        fill: #537c84;
      }

      .cls-8 {
        fill: #517a83;
      }

      .cls-9 {
        fill: #575c5f;
      }

      .cls-10 {
        fill: #547f86;
      }

      .cls-11 {
        fill: #548087;
      }

      .cls-12 {
        fill: #547d86;
      }

      .cls-13 {
        fill: #70acc8;
      }

      .cls-14 {
        fill: #fefefe;
      }

      .cls-15 {
        fill: #d5d5d5;
      }

      .cls-16 {
        fill: #aed5e7;
      }

      .cls-17 {
        fill: #4d767e;
      }

      .cls-18 {
        fill: #d1d1d1;
      }

      .cls-19 {
        fill: #ebd67e;
      }
    </style>
  </defs>
  <g id="Layer_1-2" data-name="Layer 1">
    <g>
      <path class="cls-18" d="M54.92,198.94l-9.4-1.23-3.99-.47-3.62-.44-4-.48c-3.43-.41-6.85-.65-10.03-1.87-3.82-1.47-6.46-4.27-8.07-7.9-.75-1.68-1.2-3.23-1.74-5.01l-1.03-3.45-1.95-7.2-1.72-6.31-1.07-4.09-1.12-4.25c-.49-1.85-.92-3.5-1.39-5.36L.48,130.16c-.78-3.04-.8-8.97,1.43-11.38-.83,2.91-1.35,5.55-.64,8.34l1.28,5.01,13.37,50.5c.71,2.69,2.31,5.12,4.23,6.99,2.03,1.97,4.8,3.06,7.57,3.41l13.21,1.67,38.28,4.92c4.26.55,8.18.45,12.36-.22l17.8-2.85,19.59-3.04c2.67-.41,4.95-1.46,7.04-3.03l45.7-.06c3.86,0,6.71-2.95,7.49-6.41.35-1.55.26-2.78.25-4.38-.06-12.24-1.08-24.35-3.66-36.32-1.33-6.37-2.94-12.35-5.11-18.45l-5.43-13.51c4.18-3.49,7.96-7.02,11.45-11.08,11.21-13.07,17.75-28.27,15.63-45.76-.91-7.55-3.42-14.53-7.03-21.17-3.63-6.68-7.89-12.58-12.98-18.35,4.03,3.13,6.6,7.45,9.62,11.38l1.68,2.82,1.62,2.65c3.06,5.03,5.23,10.33,6.84,16.02,1.2,4.26,1.71,8.48,1.96,12.88l-.05,1.64c-.1,3.48-.24,6.85-1.01,10.28l-.7,3.1-2.62,7.88-2.37,4.83c-2.48,5.04-5.66,9.51-9.36,13.69l-1.81,2.05-6.04,6.06c-.96.96-2.38,1.76-2.53,3.3-.14,1.38.78,2.71,1.26,3.96l1.75,4.59c2.38,6.23,4.29,12.52,5.81,19.06,1.68,7.22,2.95,14.28,3.51,21.66l.55,7.25.19,5.41.04,6.42-.26,2.86c-.14,1.49-1.42,4.49-2.64,5.48-1.55,1.27-3.82,2.58-6.05,2.58l-39.52.05h-3.26c-1.49,0-2.71.28-3.98.98-1.67.92-3.4,1.78-5.31,2.06l-6.86,1.02-6.06.92-6.69,1.13-11.25,1.74-7.85,1.34-2.25.17-2.45.25-4.05-.19-6.96-.66-20.26-2.68Z"/>
      <path class="cls-15" d="M74.87,113.71l-1.87-2.04-1.59-1.8c-2.16-2.45-4.35-4.71-6.36-7.32-2.18-2.84-3.79-5.89-5.52-9.07-3.82-7.04-5.71-14.71-6.19-22.69l-.02-7.26c.65-8.39,2.79-16.39,6.53-23.94,2.85-5.77,6.15-11.22,10.41-16.11-2.33,4.06-5.19,7.47-7.27,11.62-3.26,5.44-5.39,11.19-6.89,17.34-3.44,14.08-1.47,28.7,5.65,41.34,4.25,7.55,9.9,14.1,16.65,19.77l-3.98,4.09c-.27.28-.56.44-.89.42-.31-.02-.64-.1-.8-.51,1.15-.28,2.02-.97,2.53-1.98.31-.61.12-1.3-.39-1.86Z"/>
      <g>
        <g>
          <path class="cls-2" d="M73.61,129.63c-.2.52,0,1.04.17,1.7l5.87,23.83.52.22c1.36,5.52,2.73,11.03,4.09,16.55l-.37.37.53.28,2.23,8.98,27.35-4.23c.32-.07.62-.04.9.1-.02-.54.13-.79.43-.75,3,.16,5.85-.27,8.54-1.29l.62.18c1.93.19,3.95.31,5.66,1.2.89-.5,2.4,1.67,1.59,2.2.29,1.06.16,2.15.04,3.37l49.63.2-49.69.03c-.61,1.73-1.98,2.67-3.85,2.96l-39.23,6.16c-1.75.28-3.34.62-5.06.4l-22.64-2.89-31.84-4c-4.65-.58-5.4-4.29-6.49-8.42l-9.92-37.53-3.66-14.53c-.64-2.52,1.44-5.57,4.05-5.35l21.9,1.83,33.67,3.71c2.18.24,3.66,1.87,4.33,3.77.16.45.35.77.63.93Z"/>
          <path class="cls-14" d="M50.65,159.36c-.85,2.38-4.75,3.45-7.64,1.13-2.09-1.68-2.95-4.16-2.87-6.87s2.31-5.16,5.11-4.51c4.47,1.03,6.91,6.02,5.4,10.26Z"/>
        </g>
        <g>
          <path class="cls-11" d="M124.49,175.58c-4.44,2.44-9.11.84-9.59,1.86l-9.24-1.75-.17-.49c-1.44-.57-3.25-1.31-4.46-2.29l-.04-.55c-1.1-1.56-1.59-3.31-1.24-5.21,1.14-6.33,8.29-8.65,14.53-8.08l1.36-1.77c4.44-2.96,9.27-4.9,14.35-6.51,2.97-.94,5.72-1.91,8.33-3.56,3.72-2.34,6.28-5.73,7.57-9.87.2-.65,1.12-.91,1.58-.73s.95.79.76,1.46c-1.43,4.85-4.58,8.86-8.91,11.46-2.52,1.51-5.14,2.36-7.89,3.36l-6.72,2.45c-2.73.99-5.19,2.4-7.66,4.21,4.89,1.71,8.95,4.76,10.03,9.94.5,2.38-.47,4.9-2.58,6.06Z"/>
          <path class="cls-10" d="M91.98,170.94c.06.58-1.65,1.35-2.2,1.5-.78.03-1.54.11-2.27.22-.04.17-.09.39-.24.43-.17.05-2.8-.22-3.11-.31l-.27-.47-4.24-17.15c2.63,0,5.08.76,7.66,1.74l.09-6.37.14-8.77c.01-.74.48-1.23,1.04-1.36.48-.1,1.38.06,1.38.72v5.14s-.15,11.81-.15,11.81l2.37,2.39c2.2,2.76,3.17,7.42.35,9.84-.24.2-.38.42-.55.65Z"/>
          <path class="cls-16" d="M91.98,170.94l9.01,1.41,3.56,2.17c.36.22.79.38.94.68l-.27.42c-5.84-.82-11.68-1.65-17.52-2.47l-.2-.48c-.02-.07.02-.18.08-.23s.27-.18.4-.16c1.55.21,2.77-1,3.99-1.32Z"/>
          <path class="cls-6" d="M87.5,172.65l17.99,2.54,1.07.23,8.33,1.61c.09.02.06.37,0,.4-.04.09-.19.25-.41.28l-28.19,4.36-2.41-9.77,3.62.35Z"/>
          <g>
            <path class="cls-5" d="M181.42,182.56l-49.52-.09c-.16.09-.3.15-.39.1-.14-.07-.17-2.93-.13-3.15l.36-.44.86-.62c9.62-1.74,18.5-4.36,26.47-10.17,1.73-1.26,7.12-6.7,6.94-8.75-.05-.57-.84-.61-1.23-.31-6.68,11.97-21.53,15.75-34.18,17.81l-.45-.17-.61.2c-1.48-.54-3.01-.85-4.61-.91l-.44-.49.09-.57c5.88-5.07-1.38-13.19-7.11-14.79l-.71-.65c1.46-1.48,3.2-2.66,5.23-3.54,4.62-1.83,9.29-3.6,14-5.31,5.96-2.64,9.8-6.45,11.8-12.73.27-.86-.96-1.34-1.45-.57-1.76,6.01-6.46,10.29-12.27,12.42-5.47,1.82-10.69,3.57-15.79,6.35-1.8.98-2.68,1.75-3.86,3.26-7.17-.93-17.5,3.79-13.31,12.27l-.12.63-.33.4-8.43-1.32-.26-.49c-.14-.15-.27-.39-.16-.53.72-.72,1.33-1.33,1.69-2.31,1.44-3.92-1.61-7.47-4.12-10.04l.11-17.04c-.64-.43-1.31-.21-1.5.59l-.23,14.97-.34.61-5.58-1.41c-.9.03-1.63-.17-2.19-.62l-.47-.04c-2.12-8.38-4.15-16.77-6.09-25.17l.52-.31,3.51-3.48,9.92-9.99,2.73-2.94,5.64,2.93c.71.32,3.64,1.4,2.6-.36-.22-.37-6.45-3.28-7.17-3.41l-.86.02c-.02-.38-.35-.64-.72-.88-4.84-3.21-9.19-6.79-13.06-11.14-4.76-5.35-8.53-11.21-10.96-17.97-2.02-5.64-3.04-11.32-2.81-17.37.31-8.12,2.54-15.8,6.01-23.08,1.97-4.12,4.33-7.74,6.97-11.45,4.94-6.96,10.89-12.88,17.91-17.73,4.52-3.12,9.04-5.61,14.15-7.65,6.3-2.51,12.71-4.2,19.51-4.87,8.7-.86,17.07.48,25.12,3.82,7.54,3.12,14.42,7.45,20.54,12.86,5.31,4.7,9.47,10.2,13.24,16.14,9.32,14.69,12.04,31.47,4.38,47.5-5.41,11.34-14.54,20.64-24.54,28.23.17,1.24.64,2.28,1.11,3.45l7.37,18.38c2.17,6.57,3.63,13.06,4.79,19.92,1.8,10.6,2.65,21.13,2.4,32.01Z"/>
            <path class="cls-17" d="M89.78,113.22l.22-.82c.15-.58.98-.56,1.61-.27l6.25,2.93c.52.25.64.65.74,1.04.69,2.86-5.49-.4-8.37-2.11-.34-.2-.44-.48-.44-.76Z"/>
            <path class="cls-7" d="M131.74,178.98c-.22-.8-.82-1.8-1.59-2.2.3-.43.73-.32,1.2-.39,6.43-.96,12.63-2.62,18.6-5.17,3.31-1.41,6.19-3.18,8.91-5.46,2.26-1.9,3.99-4.13,5.41-6.68.35-.63,1.28-.7,1.76-.39,1.9,1.22-2.95,6.51-5.21,8.59-7.47,6.89-19.27,9.9-29.08,11.7Z"/>
            <path class="cls-8" d="M157.45,115.24c-2.67,1.44-6.8,3.94-7.45,2.08-.17-.5,0-1.17.67-1.5l5.91-2.82,4.47-2.48c.66-.37,1.29-.14,1.66.36.4.56.26,1.37-.44,1.75l-4.81,2.6Z"/>
            <g>
              <path class="cls-12" d="M127.28,113.74c-5.16,2.41-8.41,3.53-13.98,1.77-9.84-3.11-18.86-8.09-26.9-14.52l-4.8-4.86c-4.29-4.35-6.64-9.7-8.33-15.5-1.82-6.24-2.46-12.38-1.33-18.84.6-3.48,1.4-6.69,2.85-9.94,1.98-4.43,4.27-8.6,7.71-12.04l4.6-4.6c5.75-5.03,12.11-9.01,19.13-12.01,4.43-1.89,8.74-3.72,13.59-2.74,2.7.55,5.12,1.33,7.72,2.42,10.29,4.31,19.59,10.73,27.17,18.94,2.51,2.72,4.45,5.63,6.21,8.87,3.56,6.56,5.04,14.04,4.39,21.55-.38,4.41-1.7,8.58-3.54,12.54-1.67,3.59-4.11,6.51-6.7,9.44-3.37,3.81-7.12,6.89-11.27,9.83-5.27,3.72-10.66,6.96-16.51,9.7Z"/>
              <g>
                <path class="cls-14" d="M129.75,105.47c-3.36,2.01-6.79,3.71-10.56,4.92-1.1.35-2.56-.08-3.67-.46-6.25-2.11-12.09-4.87-17.75-8.22l-5.6-3.86c-7.62-5.26-13.06-15.36-14.24-24.51-1.57-12.2,3.05-24.27,12.03-32.51,8.23-7.56,17.19-11.9,28.01-14.44,2.34.42,4.23,1.23,6.28,2.15,7.77,3.5,15.92,8.38,22.15,14.21,3.02,2.83,5.54,6.03,7.58,9.67,5.49,9.78,6.43,22.38.51,32.08-2.1,3.45-4.58,6.52-7.54,9.25-2.32,2.14-4.55,4.16-7.25,5.77l-9.97,5.96Z"/>
                <g>
                  <path class="cls-19" d="M148.54,78.3c-.51,5.54-6.47,12.02-12.27,10.67-2.62-.61-4.22-2.85-4.65-5.43s.21-5.04,1.35-7.36c1.62-3.28,4.67-5.52,8.39-5.76,2.25-.15,4.51.64,5.86,2.46,1.14,1.53,1.5,3.5,1.32,5.42Z"/>
                  <path class="cls-1" d="M92.64,85.94c-2.57.82-5.16-.49-6.84-2.31-3.78-4.12-4.4-11.87-.04-14.75,1.28-.84,2.93-.8,4.37-.38,1.59.46,2.77,1.52,3.8,2.71,1.94,2.24,3.06,4.74,3.11,7.77s-1.35,5.99-4.41,6.96Z"/>
                  <path class="cls-9" d="M132.61,61.29c2.06,3.64,1.1,9.17-1.74,9.51-3.09.36-5.17-5.44-2.87-9.67.49-.89,1.4-1.31,2.26-1.32.97,0,1.81.53,2.35,1.48Z"/>
                  <path class="cls-4" d="M98.31,59.03c2.58,3.74,1.37,9.46-1.48,9.62-3.02.17-4.93-5.4-2.51-9.55.44-.75,1.18-1.14,1.86-1.18.81-.04,1.6.35,2.12,1.11Z"/>
                  <path class="cls-3" d="M115.72,80.78c.37-.78,1.21-.96,1.92-.65,1.63.73-.45,4.05-2.81,5.04-3.54,1.49-7.81-.37-9.01-4.02-.19-.59.58-1.05.98-1.14,1.52-.34,1.47,2.04,4.19,2.89,1.9.59,3.85-.25,4.74-2.11Z"/>
                  <path class="cls-13" d="M112.38,69.58c.44,3.08-.03,6.97-2.61,6.4-1.21-.27-2.17-1.33-2.23-2.67-.11-2.47,1.15-5.83,3.4-5.37.69.14,1.31.74,1.44,1.64Z"/>
                </g>
              </g>
            </g>
          </g>
        </g>
      </g>
    </g>
  </g>
</svg>