<?xml version="1.0" encoding="UTF-8"?>
<svg id="Layer_2" data-name="Layer 2" xmlns="http://www.w3.org/2000/svg" viewBox="0 0 185.59 230.99">
  <defs>
    <style>
      .cls-1 {
        fill: #61abcc;
      }

      .cls-2 {
        fill: #0e3238;
      }

      .cls-3 {
        fill: #9a9a9a;
      }

      .cls-4 {
        fill: #70afd0;
      }

      .cls-5 {
        fill: #f0dd92;
      }

      .cls-6 {
        fill: #118c95;
      }

      .cls-7 {
        fill: #1a8689;
      }

      .cls-8 {
        fill: #1a878b;
      }

      .cls-9 {
        fill: #10353d;
      }

      .cls-10 {
        fill: #11373e;
      }

      .cls-11 {
        fill: #f1dc8c;
      }

      .cls-12 {
        fill: #128d97;
      }

      .cls-13 {
        fill: #128690;
      }

      .cls-14 {
        fill: #138e98;
      }

      .cls-15 {
        fill: #fefefe;
      }

      .cls-16 {
        fill: #338984;
      }

      .cls-17 {
        fill: #8bc4c8;
      }

      .cls-18 {
        fill: #6eb1d3;
      }

      .cls-19 {
        fill: #358785;
      }

      .cls-20 {
        fill: #fdfefe;
      }

      .cls-21 {
        fill: #14888d;
      }
    </style>
  </defs>
  <g id="Layer_1-2" data-name="Layer 1">
    <g>
      <path class="cls-3" d="M83.95,221.91c-2.46,1.93-4.97,3.63-7.82,5-6.5,3.13-13.69,4.35-20.85,4.02-3.73-.17-6.93-1.11-10.44-2.16-3.96-1.18-7.97-1.89-11.65-3.86-.8-.43-1.48-.42-2.27.08-2.89,1.81-6.2,2.61-9.53,2.2-6.24-.76-10.71-5.43-10.98-11.74-.31-7.38,3.06-14.5,6.07-21.1,1.22-2.69,2.72-4.94,4.86-6.99,1.65-1.57,3.41-3.04,5.71-3.61,2.76-.67,5.58-.6,8.33-.01,2.43-.64,4.73-.69,7.24-.66.36,0,.25-.78-.09-1-2.34-1.54-3.67-4-4.38-6.68-.97-3.68-.95-7.27-.45-11.04l.89-6.67c-1.37.47-2.02,1.52-2.62,2.75-2.61,5.38-7.39,7.67-13.32,6.63-5.8,2.82-12.61,1.8-17.37-2.64-6.8-6.33-6.76-16.66-1.56-23.94,1.78-2.49,3.97-4.33,6.26-6.33,1.15-3.24,3.34-5.45,5.71-7.82,4.75-4.74,9.5-9.21,15.37-12.76l-2.2-2.47c-2.39-1.83-4.1-4.03-5.88-6.43-2.34-3.16-4.38-6.28-6.27-9.73-1.16-2.13-2.31-4.04-2.91-6.47-1.12-4.51-1.95-9-2.29-13.68-.26-3.64.16-7.15.73-10.73l1.2-7.43,1.55-5.56c1.37-4.94,3.2-9.49,5.22-14.17,2.24-5.19,5.24-9.52,8.94-13.74,2.83-3.22,5.54-6.19,9.02-8.71l6.98-5.06c2.48-1.79,5.07-2.8,7.81-4.03,3.22-1.45,6.2-2.64,9.8-2.87,1.99-.13,4.06-.63,6.09-.96l7.44-1.2c3-.49,5.81-.38,8.87-.22l4.44.24c6.09.32,12.05,1.51,17.72,3.75l7.44,2.94c3.66,1.45,7.08,3.23,10.47,5.25,4.66,2.77,8.37,6.43,12.48,9.87,3.12,2.62,6,5.03,8.45,8.34,2.88,3.89,5.51,7.87,7.62,12.24,1.3,2.69,1.69,5.44,2.59,8.28,2.82,8.88,3.6,18.03,2.23,27.23-.37,2.51-.64,4.71-1.95,7.15,3.58-1.44,7.8-1.92,11.15-.75,2.73.42,4.88,1.87,6.8,3.75,7.41,7.21,7.53,18.55,1.02,26.32-1.75,2.09-3.68,3.81-5.83,5.51-.98,1.94-2.16,3.62-3.59,5.26-2.46,3.09-4.97,5.91-7.94,8.54-4.95,4.43-10.47,7.91-16.69,10.36l1.36,7.01c9.23,2.16,17.06,7.78,23.65,14.56,2.43-1,4.67-1.32,7.24-1.18,6.39.34,11.49,5.65,11.76,12.04.11,2.66-.19,5.03-1.2,7.47-3.25,7.82-7.05,13.81-13.42,19.51-1.8,1.61-3.95,2.77-6.19,3.63-3.19,1.23-6.66,1.28-9.81.06l-4.15-2.27c-2.5-.21-4.95-.73-7.17-1.92-2.65-1.42-5.2-2.78-8.1-3.68-1.87-.58-3.66-1.66-5.6-1.91-2.58-.33-5.24-.26-7.82-.07l-6.65.49-7.99,1.31c-6.57,1.08-7.43,3.04-10.62,8.03-2.01,3.14-4.3,5.74-6.9,8.37l-5.99,6.05Z"/>
      <path class="cls-15" d="M65.75,229.72c-3.59.64-7.03,1.22-10.49.7l-6.21-.93-5.49-1.62c-4.04-.8-7.79-2.24-11.49-4.02l-3.51,1.79c-4.59,2.02-10.03,1.44-13.87-1.9-2.52-2.19-3.63-5.4-3.79-8.73-.14-3.05.58-5.95,1.39-8.89,1.09-3.95,2.84-7.49,4.49-11.2,1.25-2.81,2.79-5.2,5.06-7.3,1.45-1.35,2.95-2.58,4.91-3.24,2.86-.74,5.78-.8,8.66-.1,2.59-.67,5.05-.9,7.69-.64.24-.38.38-1.17.19-1.52-2.61-1.79-4.17-4.46-4.82-7.54-.63-3.04-.9-6-.4-9.09.46-2.84.93-5.52.97-8.57-.96.53-2.27,1.05-2.78,2.02-1.38,2.63-2.83,5.13-5.5,6.6-2.46,1.36-5.28,1.53-8.11,1.03-5.98,2.88-12.96,1.72-17.59-3.12-2.14-2.23-3.7-4.93-4.26-8.05-.96-5.33.43-10.85,3.7-15.09,1.29-1.68,2.7-3.05,4.27-4.37,1.19-1,2-2.12,2.62-3.53,1.12-2.5,3.15-4.13,5.04-6.06,4.71-4.79,9.59-9.19,15.45-12.65l-3.05-3.32c-1.3-1.41-2.88-2.49-4.02-4.1l-4.89-6.9-4.03-7.02c-2.45-4.26-3.99-15.36-3.97-20.81.01-3.78.95-7.29,1.39-10.97.33-2.74.97-5.12,1.65-7.75,1.4-5.39,3.28-10.31,5.52-15.37s5.07-9.49,8.77-13.69c2.86-3.24,5.59-6.3,9.11-8.87l6.4-4.66c2.72-1.98,5.53-3.2,8.57-4.51,3.04-1.32,5.78-2.52,9.19-2.72,2.15-.13,4.36-.67,6.55-1.01l9.29-1.44c1.63-.25,3.36-.15,5.05-.05l3.96.23,3.64.27c6.34.47,12.32,2.02,18.19,4.37,11.44,4.58,17.51,7.31,26.62,15.97l5.94,4.93c4.77,4.98,8.6,10.68,11.61,16.88,1.37,2.83,1.73,5.75,2.66,8.71,2.67,8.51,3.34,17.29,2.09,26.1-.41,2.92-.9,5.35-2.33,8.3,3.99-1.64,7.56-2.21,11.38-1.31,2.85.68,5.14,1.88,7.18,3.95,7.6,7.7,7.08,19.28-.4,26.89-1.45,1.51-2.86,2.85-4.56,4.04-.94,1.99-2.15,3.67-3.58,5.31-6.7,8.49-14.71,15.08-24.86,18.9l1.56,7.69c4.91,1.25,9.4,3.27,13.57,6.09l5.24,3.89,5.09,4.74c2.17-.75,4.39-1.42,6.69-1.31,5.54.27,10.13,3.78,11.53,9.17,1.06,4.07.11,8.06-1.58,11.84-2.73,6.14-6.39,11.46-11.23,16.11-5.56,5.35-13.16,7.8-19.75,3.12-1.54-1.09-4.45-.51-7.8-2.29-3.06-1.62-6.01-3.04-9.3-4.21l-4.67-1.65c-2.94-.37-5.97-.26-8.92-.05l-6,.42-8.2,1.33c-6.05.98-7.55,2.85-10.49,7.66-2.1,3.44-4.53,6.32-7.41,9.11l-2.68,2.96c-1.79,1.97-3.72,3.45-5.92,4.95-4.53,3.08-9.41,5.09-14.97,6.08Z"/>
      <g>
        <path class="cls-9" d="M134.36,158.49c.66.14,1.31.57,2.14.1.5-.28,1,.29,1.39.51l.83-.44c.15-.08.45.48.53.82.88-.48,1.76-.45,2.15.29.63-.32,1.43,0,1.98.21l4.59,1.86,5.17,3.43c.75.5,1.66.95,2.29,1.65,1.15,1.3,2.44,2.26,3.78,3.31l2.45,2.52c.98,1,2.05,2.22,1.56,3.59.09.64-.2,1.2-.87,1.69-.78.49-1.85,1.46-2.47,2.22-1.38,1.69-3.87,6-4.85,8.08-1.2,2.57-1.84,4.91-2.53,7.62l-.63.06c-1.63,1.45-3.88.95-5.41-.4-.6-.51-1.71-.51-2.21-1.31-.36-.58-1.1-.45-1.58-.64l-4.86-2.02c-1.48-.61-3.34-.92-4.64-2.05-.8.15-1.68-.22-2.54-.27l-4.06-.24c-.52-.03-1.16.36-1.61-.38-.29.37-.61.44-1.04.42l-2.24-.11-.68-.24-.74.53-2.19.44c-2.4-.17-4.97.08-7.25.66l-.6-.19c-.08-.03-.12.17-.13.31-1.35.61-2.78.38-4.25.64-1.89.33-3.91.69-5.52,1.57l-4.12,2.25c-1.33.73-2.02,1.7-2.82,2.89l-1.29,1.93-1.51,2.37c-.96,1.51-1.98,2.69-3.08,4.08l-2.06,2.63c-1.15,1.46-2.4,2.75-3.83,4.02l-4.09,3.61c-.52.46-1.26.54-1.98.37.06.36.33.45.5.57-.2.56-.88.53-1.22.72l-3.05,1.69-1.73.47c-1.32.72-2.33,1.12-3.84,1.36-.9.14-1.82.76-2.87.58-.2-.03-.71.29-.88.17-.19-.14-.36-.46-.48-.73-.09-.05-.33.04-.35.12-.04.13-.04.35.15.67-1.43.14-2.88.3-4.43.19l-4.12-.28c-.1,0-.35-.47-.41-.39-.07.08-.19.35-.39.33-.07-.44-.23-1.13-.7-1.16-.13.12.02.51.1.59s-.14.51-.37.38l-1.04-.6-1.52-.46c-.96.05-1.64-.61-2.41-.71-2.77-.38-5.27-1.01-7.82-2.18-2.42-1.11-3.91-.42-5.17-4.98l-.48-.29.12-1.85c-.66-5.87,1.26-11.86,3.2-17.34l.58-.17c.53-1.54,1.4-2.42,3.13-2.4.84,0,1.77-.44,2.38.53.2-.4.43-.58.56-.6.18-.03.52.35.77.35l2.62.02c1.52.01,2.86-.33,3.48-1.75.3-.68.85-1.43.87-2.3.02-1.18.21-2.29.35-3.5l.46-3.94c.04-.31-.19-.8.1-1.25s.19-1.07,0-1.45c.03-.18.23-.38.53-.4l2.97-.19,3.39.49c2.04.3,4.03.81,6.09.79l3.24-.03,2.06-.08c.84-.03,1.34-.31,2.28-.2l3.64-.59c1.63-.26,3.23-.09,4.85-.52,1.71-.45,3.35-.08,4.94-.26-.75-.25-.26-.75.17-.43.2.12.54.26.68.24.15-.02.13-.36.06-.63,1.27-.23,2.44-.19,3.58-.95,1.11.43,2.14.15,3.11-.48l2.06-.36c.83-.62,1.46-.3,2.28-.44.86-.15,1.62-.62,2.63-.62s2.05-.26,2.76-.89c1.44-1.27,3.47-1.04,4.34-2.03.65-.74,1.48-.66,2.29-.93.92-.31,1.63-1.33,2.61-1.38.34-.02.77.34,1.04.25.33-.11.51-.67.71-.96,3.07-.24,3.97-2.48,5.07-1.55,1.19-.62,2.45-1.84,3.88-2.15.8-.17,1.23-.69,1.94-.82l1.46-.25c2.18-.74,4.44-1.16,6.34-2.6.46-.35,1.02-1.01,1.71-.86Z"/>
        <path class="cls-7" d="M151.88,196.02c.69-.61.71-4.42,2.85-8.15l2.35-4.08,2.17-3.49c.69-1.11,2.16-1.57,1.85-2.6.49.3.86.1,1.17-.27l.95-1.09-.06.4c-.06.33,1.17-.39,1.8-.99.92-.87,1.99-.96,3.02-1.45,1.77-.85,3.55-1.68,5.53-1.41,2.18.3,3.55,1.81,3.8,3.95.36,3.04-.86,5.61-2.27,8.15-.97,1.74-1.77,3.37-2.9,5.02-2.18,3.15-6,8.16-9.24,9.3-.74.26-1.27.63-2.16.68-.58.03-1.53.57-1.86-.35-.07-.2-.21-.4-.49-.37-.12.02-.18.21-.09.3.07.07.25.21.15.49-2.35-1.12-4.58-2.37-6.57-4.03Z"/>
        <path class="cls-19" d="M162.66,114.6c.01-.23.1-.81-.28-.95l-.56.46c-.05.05-.5-.39-.57-.57-.73-2.09-2.13-3.62-3.79-5.02l-1.9-2.01-1.52-1.45c-.68-.64-1.25-1.14-1.98-1.75l-1.75-1.48.08-2.01c.06-1.43.55-2.93,1.41-4.18,1.21-1.76,4.43-2.07,4.57-.52,1.08.41,1.82-.35,2.38-1.17.92-1.35,2.88-1.78,4.32-1.73,1.28.05,2.18.54,3.24.75,1.17.24,1.82,1.09,2.75,1.67.87.54,1.24.92,1.69,1.78,2.59,4.88,1.59,10.31-2.33,14.14-1.74,1.7-3.42,3.31-5.78,4.03Z"/>
        <path class="cls-8" d="M36.92,193.61l-1.68,4.9c-.39,1.13-.62,2.15-.85,3.36l-.49,2.67c-.52,1.49-.35,2.97-.39,4.43-.02.73-.29,1.22.1,2.06l-.12,2.23c-.14-.09-.27-.15-.37-.15-.11,0-.22.18-.29.25l-2.9,2.54c-.89.78-1.87,1.24-2.79,1.88-1.25.88-2.34,1.48-4.05,1.25-.48-.06-1.02.07-1.33-.56-.23.31-.48.41-.66.42-.64.03-.97-.95-2.07-1.68.16-.71-.18-1.04-.37-1.56-.68-1.91.05-3.9.57-5.8,1.14-4.2,2.74-8.13,4.75-11.97.24-.46.5-.61.66-1.18.22-.79,1.01-1.6,1.43-2.37.47-.85,1.28-1.31,2.25-1.47l-.42-.45c.74-1.12,3.96-1.22,4.57-.99l3.68,1.41c.21.15.43.8.75.76Z"/>
        <path class="cls-16" d="M29.77,152.21c.15,1.99-.59,4.41-1.84,5.96-.89,1.1-2.57,1.53-3.57.83-.87-.61-.95-1.74-1.37-2.65l-2.65,2.44-2.28,1.39c-.97.59-2.24.15-3.32.13-2.09-.04-3.68-1.51-4.98-2.98-1.09-1.24-1.31-2.48-1.45-4.07-.38-4.44,1.09-7.57,4.34-10.53,1.53-1.4,2.92-3.06,5-3.79.14-.05.67-.09.72.09.38,1.54,1.46,2.5,2.31,3.64,1.13,1.52,2.28,2.73,3.76,3.96.47.39.46,1.12,1.33,1.41l2.08,1.8c.68.59,1.83,1.17,1.93,2.37Z"/>
        <g>
          <path class="cls-1" d="M150.4,99.82l.33.03c.13.52.19,1.12.16,1.81,2.97,2.5,5.8,5.16,8.5,7.98,1.04,1.08,1.84,2.37,2.37,3.77,1.28-.15,1.93.31.9,1.19l-.07,1.47c-.65,3.39-3.88,5.53-3.73,5.05-.03.1.13.45.07.54-.59.86-1.23,1.77-1.96,2.49l-2.49,2.43-3.09,2.54-5.61,4.27-2.22,1.17c-1.34.7-2.71.93-4.04,1.69l-3.26.85-3.77,1.33-.52-.11c-.83-3.93-1.91-7.79-3.22-11.59-2.52-4.06-2.44-2.06-1.42.92,1.19,2.73,2.14,5.54,2.87,8.42l1.7,2.66.87,4.18c.1.46-.24.91.35,1.35.16.12.27.49.15.64s-.31.14-.45.62c.36-.14.73.09.72.35,0,.24-.18.46-.56.82,1.7.46,1.2,2.87,1.39,3.65l.43,1.76c.54,2.21.77,4.91.1,4.91h-.58c.26.48.16.95.03,1.47-2.36,2.63-6.34,3.56-9.75,4.3-1.94.8-3.81,1.75-5.6,2.83-.86-.14-1.85.22-2.96,1.1-1.09.19-1.97.66-2.63,1.41-1.19-.33-2.32.02-3.4,1.05-1.18.18-2.18.65-3.02,1.42-1.73.48-3.34,1.22-4.82,2.22l-8.78,1.73c-.91.61-2.19,1.02-3.23.49-.89.57-1.91.87-3.07.9l-.45.61c-.57-.11-.94-.02-1.1.27-3.06.1-6.12.35-9.17.73-7.1,1.45-14.14,1.11-21.26-.33-1.17.15-2.33.19-3.47.1l-3.01-.94c-1.85-.58-2.51-2.3-2.3-2.5l.61-.56c-1.1-.1-1.27-.91-1.27-1.78v-5.54s.58-.97.58-.97c-.24-.97-.11-1.85.36-2.58-.63-.97.15-2.08.14-2.85-.01-1.17.31-2.94.47-4.91l.61-7.11c.1-1.17-.14-2.27-.9-3.13-2.36,1.79-5.72,1.85-8.57,3.81l-2.62,1.81c-1.11.46-2.08.9-3.04,1.71-.96-.8-2.14-.54-2.95.42-.41-.11-.77-.47-1.09-1.07-2.44-1.98-4.84-4.04-6.95-6.4-1.58-1.77-3.1-3.65-4.08-5.81-.29-1.4.04-2.6.96-3.77.38-.49.56-1.3,1.39-1.34.4.23.65-.28.09-.39.23-.82,1.16-1.09,1.72-1.66l2.21-2.26,6.56-5.72c1.07-.93,2.22-2,3.64-2.28.15-.03.6.02.65-.15.05-.14.06-.26-.06-.76,1.23.33,1.57-.73,2.34-1.02l5.63-2.14c.94-.36,1.84-.63,2.82-1.04l.61-.25c.16-.07.4.26.46.47.23-.5.35-.64.91-.9l-2.19-1.68c-.19-.14-2.28-1.15-3.14-2.19-.43-.53-.59-.39-1.05-.59-1.11-.49-4.2-3.3-5.7-4.81-.79-.79-2.1-1.48-2.55-2.52-.32-.74-.82-.63-1.18-1.09l-3.32-4.33c-1.58-2.06-2.9-4.16-4.1-6.5l-1.61-3.14.39-.45c-.32.37-2.32-2.93-2.16-5.5.04-.68-.05-.79-.16-1.36l-.78-4.33.31-.46c.3-.45-1.01-.92-.24-1.7-.53-.57-.34-1.14-.29-1.88.03-.45-.29-1.11-.25-1.64l.15-1.94c.09-1.18.22-1.99.49-3.14s.06-2.39.7-3.59l.33-3.28c.09-.94.85-4.67.84-4.66.79-1.88,1.12-3.8,1.9-5.67l2.61-6.22c.61-1.46,1.13-2.84,1.91-4.27.35-.65.51-1.42,1.01-2.16.45-.65.54-1.42,1.14-2.08.43-.47.91-1.11,1.27-1.66.89-1.37,1.99-2.45,2.98-3.74,2-2.6,4.03-5,6.77-6.95.8-.57,1.5-1.3,2.2-1.97.35.17.54.44.59.4.11-.09.19-.54.1-.79l2.62-2.01c1.16-.89,2.46-1.47,3.68-2.37,1.55-1.14,4.37-2.28,6.16-2.56.35-.58.8-.56,1.37-.83l1.38-.65c.66-.31,1.61-.94,2.43-.58.56.25,1.05-.05,1.53-.12.3-.05.94.51,1.25.06.41-.61,2.5-.62,2.43-.6,1.67-.5,3.3-.63,4.91-.9l4.85-.83c.51-.09,1.44.13,1.92-.05,1.49-.57,2.74-.69,4.3-.27.7.19,1.64-.09,2.42.25,1.25.54,2.66.18,3.96.23,3.04.11,5.77.78,8.68,1.42.73.16,1.84.13,2.35.65l.96.11c.33.04.14.49.21.88.71-.66,1.18-.52,1.73-.34.58.2.9.69,1.06,1.34l.6-.56,4.12,1.74c1.4.59,2.8.99,4.13,1.78l.28.5.57-.12c1.01.07,1.74.86,2.58,1.26.59.28.99.43,1.22,1.04.41-.08.97-.07,1.47.25l3.3,2.12,3.58,2.82,2.44,2.22c.71.64,1.37.91,2.17,1.61l2.05,1.8,2.82,2.34c1.3,1.07,2.18,2.18,3.17,3.56l1.5,2.11c1.03,1.45,1.88,2.69,2.76,4.16l2.49,4.14c.48.8.83,1.28,1.09,2.22l.84,3.02.92,3.59c.21.83.92,1.83.72,2.73-.15.7-.14.82.24,1.4.47.71.53,1.73.58,2.57.08,1.34.78,2.69.44,4.2l.16,3.18c.03.61-.12.81-.05,1.36.06.49.17,1.53,0,1.99-.21.57.04.95,0,1.35l-.44,3.5c-.52,4.18-2.24,8.48-4.47,12.12-.55.9-1.13,1.84-1.61,2.77l-1.68,3.28c-.44.86-1.29,1.39-1.77,1.93-.36,1.47-1.3,2.61-2.26,3.63l-1.66,1.77-2.74,3.25-.71.3c-.14.06-.07.41-.04.65l-2.83,3.2c.85.47,1.42-.16,1.88-.14,1.23.06,2.04.13,3.09-.49,1.8-1.07,3-.58,3-.72l.03-.67c.63-.51,1.79-.76,2.72-.92,2.02-2.13,4.39-3.75,7.14-4.77.33-.12.73.32.89.58,1.12-.54.3-1.75.9-2.44Z"/>
          <path class="cls-14" d="M132.5,138.43c-.17.06-.31.34-.59.3-.41-.06-.9-.3-1.17-.77l-.97-1.7-.82-2.62c-.4-2.09-1.14-3.9-2.05-5.8l-.75-2.47c-.17-.55.05-1.07.4-1.26,1.07-.58,2.45,1.59,2.86,2.93l2.44,8.05.67,3.34Z"/>
          <path class="cls-6" d="M69.98,121.67l-5.03-2.08c-.83-.42-1.68-.66-2.13-1.47-.96.21-1.8-.08-2.61-.49-2.4-.54-4.77-.48-7.23-.67-.48-.04-.95-.61-1.33-.82.57-1.33,1.8-1.47,2.99-1.5,2.44-.05,4.59.25,6.88.99l5.76,1.85c1.9.61,4.73,1.93,4.91,2.96.08.48.04,1.34-.56,1.45-.42.08-1.22-.06-1.64-.23Z"/>
          <path class="cls-12" d="M49.21,145.4c-.73.19-1.56-.85-1.55-1.4.02-.92,1.02-1.05,1.59-1.3,2.54-1.14,5.13-1.48,7.85-2.03.77-.16,1.53-.13,1.91.56.33.59-.17,1.66-1.03,1.89l-8.77,2.29Z"/>
          <path class="cls-13" d="M125.76,113.79l-2.73,2.05c-.51.38-1.18-.17-1.35-.65-.25-.66.15-.88.67-1.3l6.18-4.94c.29-.23.74.06.85.25.83,1.58-1.47,3.37-3.61,4.59Z"/>
          <g>
            <path class="cls-21" d="M115.97,110.58c-1.59.96-3.28,1.49-4.7,2.55-2.19,1.63-4.66,2.21-7.27,1.61l-2.79-.64c-3.44-.78-6.81-1.13-10.26-2.07l-8.49-2.89-5.9-2.45c-2.57-1.07-4.91-2.2-7.25-3.76-3.41-2.27-7.43-4.05-9.34-8.2-1.3-.9-2.38-2.06-3.08-3.5-2.29-2.36-3.34-5.31-4.37-8.27s-1.38-5.41-1.19-8.48l-.29-3.67c-.1-1.2-.01-2.28.34-3.48l1.97-6.65c1.24-4.17,3.07-8.09,5.8-11.47.63-.78,1.11-1.45,1.73-2.25l3.76-4.81c1.33-1.7,2.72-3.11,4.26-4.58,1.02-.97,1.85-2.07,2.99-2.94l4.89-3.71c2.44-1.85,4.93-3.34,7.63-4.73,1.97-1.01,4.46-2.48,6.17-1.94.11.04.6-.08.63.1l.1.59c.39-.8.83-.68,1.41-.61l5.08.61c4.91.59,9.51,1.66,14.15,3.51,2.91,1.16,5.79,2,8.58,3.57l6.43,4.32,2.2,2.01,3.06,2.84c1.22,1.13,2.18,2.23,3.04,3.65l1.48,2.44,1.04,1.63c1.05,1.65,1.77,3.21,2.42,5.01,1.03,2.83,1.94,5.58,2.54,8.54l.3,5.64c.12,2.31.12,4.41-.18,6.71l-.42,3.25c-.23,1.77-.9,3.36-1.4,5.04-.77,2.58-1.86,4.8-3.35,7.01-.7,1.05-.89,2.35-1.98,3.23-1.39,1.11-2.28,2.62-3.33,4.05l-3.03,3.1-2.59,2.33-2.08,1.85-6.34,4.47-2.39,1.44Z"/>
            <g>
              <path class="cls-15" d="M58.89,68.35c-.17-1.44.31-3.19.76-4.58.06-.17.16-.26.37-.25l.08-.35c-.2-.3-.13-.71.21-1.24.55-.55.56-1.34.95-1.98l3.26-5.34,2.06-2.88,1.94-2.5,2.21-2.72,1.7-1.96,1.99-1.92c.64-.62,1.21-.98,1.87-1.64l1.84-1.82,3.61-3.74c1.18-1.22,2.77-2.19,3.75-3.58l1.55-.46c4.13-.43,6.24.16,9.07.21,3.14.06,6.07.8,9.09,1.44,1.78.38,3.3,1.02,4.97,1.63,3.37,1.24,5.63,2.76,6.52,3.08,1.81.66,3.21,1.59,4.81,2.63,1.16.75,1.99,1.64,3.02,2.64l2.37,2.29,3.09,3.61c3.01,3.51,3.98,8.05,4.14,8.27.12.16.45.27.81.44-.4.16-.57.51-.42.85s.35.47.89.6c-.25.15-.46.34-.5.54s.08.42.14.67l1.17,4.76c.22.91.48,1.52.53,2.46.21,4.01.11,8.03-1.13,11.9-1.26,3.94-3.11,7.42-5.5,10.76l-1.64,2.3-2.49,2.69-5.74,4.82-3.82,3.07c-2.34,1.88-4.93,3.48-7.6,4.86-1.4.72-3.22.45-4.71.55l-.24.67c-.46-.96-1.2-.91-1.94-1.11l-2.76-.75-2.93-.82c-1.93-.54-4.71-1.44-6.12-1.45-.54,0-1.55-.43-2.03-.69-.85-.47-1.56-.34-2.37-.64l-4.75-1.72c-.97-.35-2.6-1.24-3.68-1.88-.22.05-.65.22-.7.08-.05-.12-.12-.49-.27-.57l-5.12-2.94-2.84-2.7c-1.03-.15-1.89-.83-2.33-1.79-1.04-.88-1.59-2.01-2.32-3.13l-1.26-1.93c-2.62-4.83-4.68-13.74-3.59-18.76Z"/>
              <g>
                <path class="cls-17" d="M60.02,63.52l-.7,2.86-.42,1.97c-.53-.45-.32-1.01-.24-1.61.24-1.84.52-3.74,1.37-3.23Z"/>
                <path class="cls-17" d="M60.1,63.16c-.19,0-.32-.09-.41-.21-.07-.1-.12-.29,0-.4l.63-.63c.12.43.12.92-.21,1.24Z"/>
                <path class="cls-5" d="M87.76,81.2c-.17,3.73-2.58,6.31-6.06,7.11-2.06.48-3.88.26-5.85-.52-.94-.38-1.37-.69-2.05-1.45-.79-.88-1.58-1.5-1.95-2.81-.27-.96-.83-2-.07-3.05-.46-1.7.73-2.96,1.77-4.02,1.12-1.14,2.1-1.79,3.69-1.93,1.39-.13,3.63-.84,5,.66.57-.39.96,0,1.39.13.63.19,1.15.32,1.21,1.08,1.74.88,3,2.87,2.91,4.81Z"/>
                <path class="cls-11" d="M132.33,78c-2.83,1.53-6.46,1.16-8.2-1.59-.45-.71-.76-1.93-.9-2.72-.2-1.18.02-2.39.19-3.56l.58-1.61c.86-2.38,4.42-4.63,7.67-3.38,1.61.62,2.52,1.71,2.81,3.42.41,2.41.41,4.66-.54,6.97-.37.91-.57,1.89-1.61,2.45Z"/>
                <path class="cls-10" d="M89.87,68.44c-.75-1.35-2.43-2.17-3.7-1.3-1.83,1.25-1.17,4.34-3.1,4.33-.61,0-1.37-.52-1.44-1.31-.2-2.43,1.4-4.48,3.48-5.56,1.77-.92,3.46-.95,5.16.16,1.34.88,2.7,2.07,2.78,3.85.04.76-1,1.13-1.58,1.14-.77.01-1.16-.51-1.6-1.31Z"/>
                <path class="cls-2" d="M120.83,61.41c-1.78-.42-2.81,1.21-2.99,2.68-.1.77-1.01,1.33-1.53,1.3-.82-.05-1.4-.78-1.34-1.71.19-2.71,2.4-5.27,5.11-5.22,2.43.05,4.11,1.42,4.95,3.48.3.74.43,1.57-.32,2.02-1.81,1.07-2.41-2.21-3.9-2.55Z"/>
                <path class="cls-18" d="M108.14,66.58c1.27,2.03,2.58,4.29.39,6.11-.52.43-1.98,1.01-2.58.22-1.37-1.8-1.97-4.44-1.76-6.68.09-.97,1.33-1.12,1.98-1.1.9.02,1.45.61,1.97,1.44Z"/>
                <g>
                  <path class="cls-4" d="M105.86,88.96c-4.04-.14-10.07-3.49-10.4-7.54-.12-1.43.68-2.62,2.03-2.97,3.85-1.01,7.4,1.5,13.37-.92,1.32-.54,2.65-.92,4.11-.87,2.96.1,2.3,5.34-.06,8.12-2.28,2.69-5.48,4.3-9.04,4.18Z"/>
                  <path class="cls-20" d="M100.87,85.13c-1.68-1.18-3.51-3.16-3.01-4.21.94-1.95,6.87.8,11.34-.62l5.28-1.68c.58,1.39.06,2.68-.65,3.87-2.71,4.57-8.61,5.7-12.96,2.65Z"/>
                </g>
              </g>
            </g>
          </g>
        </g>
      </g>
    </g>
  </g>
</svg>