<?xml version="1.0" encoding="UTF-8"?>
<svg id="Layer_2" data-name="Layer 2" xmlns="http://www.w3.org/2000/svg" viewBox="0 0 180.23 251.05">
  <defs>
    <style>
      .cls-1 {
        fill: #60abcc;
      }

      .cls-2 {
        fill: #c8e0ea;
      }

      .cls-3 {
        fill: #103137;
      }

      .cls-4 {
        fill: #9c9c9c;
      }

      .cls-5 {
        fill: #fefaf3;
      }

      .cls-6 {
        fill: #0f3238;
      }

      .cls-7 {
        fill: #74afce;
      }

      .cls-8 {
        fill: #108790;
      }

      .cls-9 {
        fill: #c8e2ec;
      }

      .cls-10 {
        fill: #0a3c43;
      }

      .cls-11 {
        fill: #52a5b4;
      }

      .cls-12 {
        fill: #328b86;
      }

      .cls-13 {
        fill: #efdb89;
      }

      .cls-14 {
        fill: #0f363c;
      }

      .cls-15 {
        fill: #6baecf;
      }

      .cls-16 {
        fill: #158e98;
      }

      .cls-17 {
        fill: #1c898b;
      }

      .cls-18 {
        fill: #fbf5e1;
      }

      .cls-19 {
        fill: #128993;
      }

      .cls-20 {
        fill: #0e353c;
      }

      .cls-21 {
        fill: #0f353c;
      }

      .cls-22 {
        fill: #098d8f;
      }

      .cls-23 {
        fill: #198689;
      }

      .cls-24 {
        fill: #77a4aa;
      }

      .cls-25 {
        fill: #0d343b;
      }

      .cls-26 {
        fill: #04777b;
      }

      .cls-27 {
        fill: #198b8d;
      }

      .cls-28 {
        fill: #318580;
      }

      .cls-29 {
        fill: #fefefe;
      }

      .cls-30 {
        fill: #f0dd8d;
      }

      .cls-31 {
        fill: #10858f;
      }

      .cls-32 {
        fill: #0b868b;
      }

      .cls-33 {
        fill: #14878d;
      }

      .cls-34 {
        fill: #118891;
      }

      .cls-35 {
        fill: #0f373f;
      }

      .cls-36 {
        fill: #318b86;
      }
    </style>
  </defs>
  <g id="Layer_1-2" data-name="Layer 1">
    <g>
      <path class="cls-4" d="M97.02,235.86c-5.99.04-12.63-2.38-14.35-8.18l-9.27.28c-4.14.12-8.16-.87-11.58-3.27-3.25-2.27-4.73-6.13-4.37-10.2-3.35.69-6.65.5-9.62-1.2-3.15-1.81-4.91-5.31-5.05-8.92l-.53-10.05-.12-4.6-13.27-3.27-.23,9.68-.09,9.61-.82,15.49c-.32,6.04-5.23,10-11.19,9.64-6.23-.38-10.28-4.99-10.65-11.18l-.59-9.79-.12-15.99c-.04-5.06-.81-9.88-.44-14.96C.71,176.38.13,171.47,0,166.86c-.1-3.73.98-7.05,3.65-9.75,1.84-1.86,4.24-2.9,6.71-3.82l4.98-2.44,29.23-12.01c.94-2.47,2.07-4.51,4.06-6.21-.51-3.44.34-6.89,3-9.19s6-3.46,9.46-3.75l2.34.28c.87.1,1.6.29,2.25-.76l-4.77-3.12c-3.17-2.08-5.81-4.4-8.52-6.98-5.22-4.96-8.51-10.95-10.16-17.96-1.17-4.97-2.36-9.7-2.6-14.87-.26-5.69-.12-11.17,1.65-16.58l2.43-7.42,2.99-6.85c1.58-4.34,3.44-8.37,6-12.17l4.37-6.49c2.15-3.19,4.67-5.85,7.75-8.27,4.53-3.57,8.91-7.18,13.93-10.12,5.45-3.2,11.44-4.76,17.49-6.43,8.95-2.47,17.98-2.58,26.98-.41,7.52,1.81,12.02,3.69,18.53,7.84l7.78,5.75c3.93,3.28,6.97,7.02,10.37,10.82,3.73,4.17,7.26,8.2,9.91,13.2l2.65,5c3.9,9.91,5.67,17.05,4.37,27.89-1.12,9.37-5.1,21.37-10.34,29.19l-2.49,3.72,3.34,8.78,3.63,10.11,1.85,6.56,2.69,9.56,2.13,11.17c1.19,6.26,2.14,13.47-2.54,18.02-.31.49-.24,1.41-.19,1.96,2.75,2.01,4.48,4.92,5,8.31.76,4.99.19,10.41-3.33,14.13l.23,4.56c.29,5.72.67,11.37.03,17.04-.25,2.18-1.2,4.04-2.47,5.66-4.44,5.63-12.88,5.45-17.03,1.09-.66-.7-.32,2.97-1.77,5.74-1.81,3.45-5.48,5.41-9.33,5.47-6.65.1-11.13-3.12-11.5-10.11-4.24,1.76-8.09-.03-8.67.32-.99.59-1.55,5.28-5.67,7.85-.63,3.68.19,7.7-.8,11.41-1.05,3.91-3.79,7.02-7.71,8.03-4.16,1.08-8.57.15-11.69-2.77-1.61-1.51-2.73-3.56-2.85-5.73l-.35-6.24Z"/>
      <path class="cls-29" d="M97.79,241.58l-.33-6.25c-4.53.2-8.89-1.03-12.16-4.07-1.18-1.1-1.7-2.61-2.36-4.12-3.6.41-7.11.44-10.77.28-3.39-.15-6.65-1.02-9.53-2.79-3.73-2.3-5.25-6.44-4.65-10.85-3.32,1.03-6.64.81-9.61-.77-3.25-1.74-5.04-5.17-5.14-8.84l-.5-9.83-.12-4.92-9.03-2.17-5.23-1.32-.25,10.7-.12,8.57-.74,15.86c-.24,5.17-4.15,8.95-9.18,9.33-5.99.44-10.8-3.54-11.57-9.47l-.7-9.79-.16-17.19c-.05-5.15-.82-10.04-.43-15.21-4.01-2.53-4.58-7.26-4.72-11.87-.15-5.05,2.42-9.64,7.19-11.83l6.4-2.94,30.55-12.71c.45-.22.69-.98.84-1.37.82-2.03,1.91-3.67,3.63-5.09-.44-3.27.17-6.59,2.65-8.86,2.55-2.34,6.07-3.63,9.47-3.86l3.49.35c.68.07,1.27-.69,1.85-1.23l-7.74-5.28-5.63-4.93c-5.5-4.82-8.69-10.97-10.44-18-3.65-14.67-3.98-24.06,1.39-38.38l3.2-7.36c1.64-4.51,3.77-8.58,6.29-12.64l4.15-5.99c2.19-3.16,4.69-5.88,7.81-8.19l11.56-8.59c3.09-2.29,6.64-3.5,10.22-4.83l8.91-2.65c10.51-3.13,22.25-2.32,32.6,1.15,3,1,5.92,2.06,8.55,3.74l7.66,4.89c3.8,2.43,6.86,5.7,10.01,8.91l4.64,5.48c3.82,3.76,6.92,7.91,9.58,12.57,1.86,3.25,3.41,6.41,4.5,10.01,1.07,3.54,2.18,6.92,2.63,10.65.77,6.49.15,12.84-1.41,19.17l-2.42,8.46c-1.36,4.76-3.67,9.12-6.4,13.24l-2.8,4.22,2.68,6.88,4.13,11.34,2.02,7.13,2.77,9.74,2.04,10.8c1.19,6.28,2.42,13.57-2.45,18.08l-.29,2.4c4.01,2.96,5.32,6.81,5.4,11.81.06,3.86-1.04,7.54-3.66,10.4l.32,5.53.37,7.94-.35,8.01c-.18,4.22-5.09,9.6-9.96,9.52-.83.39-1.68.06-2.53,0-2.94-.21-5.27-1.81-7.33-3.98-.19,2.81-.38,5.22-1.73,7.41-3.1,5.01-10.57,6.32-15.72,2.87-2.79-1.87-3.97-4.96-3.99-8.51-3.04,1.24-6.09,1.37-9.17.2-.7.57-1.03,1.41-1.32,2.29-.83,2.56-2.53,4.57-4.75,6.16l-.28,7.77c-.13,3.52-1.13,6.9-3.77,9.22-4.19,3.69-10.79,3.42-14.95-.11-1.79-1.52-3.02-3.76-3.15-6.24Z"/>
      <g>
        <path class="cls-27" d="M92.18,209.55l-.53,3.34c-.37,2.31-1.28,4.34-3.44,5.51l-5.49,1.1-2.95.13c-1.58.07-3.1.41-4.75.21-1.29-.15-2.55-.42-3.89-.25-1.08.14-2.07-.46-3.17-.77-1.17-.33-2.25-1.45-2.47-2.74-.16-.97.04-2.34.64-3.06l1.67-2.02c1.02-1.23,2.77-1.5,4.07-2.35.52-.34.73-.93,1.65-.93l-.29-.48c1.26.95,2.85,1.41,4.49,1.62l6.95.91,2.26.11,3-.04c.69,0,1.54.25,2.24-.27Z"/>
        <path class="cls-21" d="M104.7,216.81l-.39.41c-2.22-.66-4.48-1.13-6.78-1.4l-.28-.53c-.76-.93-.67-2.04-.72-3.16l-.18-4.14.31-.41-.31-.43c.17-.49-.13-1.33-.14-1.87-.08-3.53.23-6.9.76-10.37.07-.46-.16-.86-.43-1.12.49-.03.96-.08,1.36.37.68-.65,1.36-.25,2.18-.17l2.36.26c1.92.21,2.92.57,1.85,1,.66,1.68.04,3.47.11,5.3l.25,6.68.09,5.57-.04,4Z"/>
        <path class="cls-23" d="M97.25,215.3l2.71.32,4.74,1.19-.02,9.84c-.28.19-.64.46-.88.49-4.26.48-8.36,1.36-12.44-.97-.18-.18-.41-.53-.72-.73-2.57-1.63,2.02-8.02,5.48-9.33.35-.13.74-.87,1.14-.82Z"/>
        <g>
          <path class="cls-35" d="M166.95,166.63c.55.46.07,1.12,0,1.73l-.39,3.25-.82,3.7c-.26,1.17-1.35,2.13-1.76,3.15-1.04,2.6-7.16,7.39-10.29,8.47-1.5.52-2.99,1.56-4.62,1.41l-.13-11.61c0-.81-.4-1.24.46-1.88l2.35-1.74c1.45-1.07,1.64-3.13,1.86-5.28,1.64-.3,2.65.77,3.02-.15,1.59.15,3.52.16,5.02-.69.97-.55,1.78-.59,2.91-.81.68-.14,1.38-.69,2.15-.37-.07.41.11.7.26.83Z"/>
          <path class="cls-36" d="M65.83,152.8c.09.63-.47,1.43-1.13,1.1l-.13.59c-.86.53-3.04,1.06-4.08,1.21-.89.13-3.12.43-3.06-.73-2.34-1.28-4.14-3.5-4.95-6.1-.49-1.58-.87-2.89-.72-4.48.25-2.55,1.35-5.32,3.78-6.68.8-.45,1.4-.82,1.87-1.61.21-.37,1.08-.59.62-1.29-.03-.46.16-.46.35-.04.41.06.63.44.67,1.15l.42.63,3.97,1.88c3.45,2.65,3.75,8.52,3.24,12.52-.07.57-.34,1.56-.87,1.83Z"/>
          <path class="cls-32" d="M63.32,130.71c-.4.35-.92.59-1.56.72l-3.84,1.79-.53-.3c-.5-.56-.97-1.84-.72-2.7,1.29-1.76,3.48-2.54,5.59-2.27.57.9.97,1.81,1.05,2.75Z"/>
          <path class="cls-25" d="M63.32,130.71l.73.23c.36.43.14,1.07.11,1.5-.6.62-1.44,1.04-2.51,1.27l-2.47,1.21-.78-.13c-.08.04-.23.06-.35.04-.66-.33-.74-1.16-.65-1.89l3.71-1.74c.72-.34,1.57-.68,2.21-.48Z"/>
          <path class="cls-12" d="M113.25,145.95l1.93,1.29c1.07.71,2.01,1.85,2.69,2.91,2.01,3.12,1.83,7.51-.68,9.86-.67.63-3.96,1.94-4.69,1.99l-3.9.27-3.14-.15c-.77-.04-1.38-.31-2-.46-1.74-.44-3.57-.96-4.47-2.69-.53-1.01-.66-2.54-.4-3.56-.24-.83-.14-1.61.28-2.35.25-.92.72-1.42,1.39-1.49,1.99-2.81,7.17-6.42,10.06-5.79.78.17,1.13-.35,1.49-.77.56-.02,1.57.25,1.43.95Z"/>
          <path class="cls-26" d="M64.16,132.44l1.92,4.64.66.33c1.26,3.24,2.52,6.48,3.79,9.73l-.35.45.99,2.63c.09.24.01.49-.06.64.04.19.09.48-.03.54-.58.28-4.66,1.79-4.97,1.66-.11-.05-.19-.14-.27-.25-.07-.78.34-1.54.48-2.35.4-2.45-.05-4.8-.53-7.19-.36-1.81-1.04-3.26-2.58-4.39l-3.83-1.8c-.78-.36-.99-1.58-.97-2.28,1.81-1.01,3.67-1.98,5.76-2.34Z"/>
          <path class="cls-28" d="M70.17,147.59l-4.09-10.51c1.79.05,3.36.96,4.91,1.86,1.08.63,1.57,1.52,1.77,2.74.43,2.61-.4,5.85-2.6,5.9Z"/>
          <path class="cls-10" d="M71.1,150.86c.1-.04.23.02.31.05.66.32.6,1.04.82,1.48v.54c-2.04.81-4.04,1.69-6.01,2.66l-.51-.3-1.02-1.37c.32-.3.59-.9,1.13-1.1l5.27-1.94Z"/>
          <g>
            <path class="cls-1" d="M166.95,166.63c-.35.14-.66,0-.93-.42-2.25.62-4.48,1.27-6.7,1.97-.81.11-2.41.32-2.7-.51-.34.11-2.72.09-2.89.03-.13-.05-.24-.11-.31-.21.28-2.09-.37-3.35-1.93-3.78l-.05-.59c-.48.18-1.04.05-1.69-.4-4.6-1.17-9.23-2.22-13.87-3.16l-.24-.54c-.21-.28-.25-.54.07-.67,6.8-2.64,13.08-6.5,16.3-13.32.46-.97.21-2.27-.62-1.45-1.09,1.07-1.89,2.43-2.62,3.76-1.37,1.37-2.63,2.84-3.78,4.4-4.76,2.74-9.66,5.08-15.08,6.2-.3.69-.82.8-1.41.31l-7.81,1.07c-.77.53-1.83.76-2.74.7-.24.52-.45.47-.74-.01l-.04-.66c3.59-4.5.7-10.41-3.91-12.8v-.59c-.36-.58-.06-.89.48-1.2,4.64-2.18,9.15-4.63,13.52-7.35,2.48-1.96,4.28-6.5,5.15-9.56.18-.63.62-3.57-.41-2.51-1.16,3.61-2.8,6.99-4.73,10.25-4.32,2.66-8.73,5.04-13.25,7.16l-1.09.86c.55.88-.25,2.06-1.1,1.41.34.48.13.87-.63,1.18-4.1-.36-7.73,2.38-10.3,5.37h-.61c-.13.11-.28.23-.44.2-5.32-.98-11.05-2.31-16.23-3.74-.36-.75-.49-1.56-.39-2.44l-7.62,3.83-1.21.09-.03.56-2.94.84c-.07.45-.26.42-.31-.05-.6-.68-1.54-2.57-.93-3.27.06-.37.34-.63.84-.76,3.39-4.3.58-8.51-4.53-9.28l-.4-.47-.56-.07-1.68-4.06.32-.51c-.65-.21-.5-1.09-.11-1.5l2.59-1.75c.05.27-.03.6.38.82.06-1.06.59-1.91,1.46-2.27.66-.27.85-.71,1.34-1.17l2.56-2.34c.19.06.34.28.35.36,0,.2.54.26.45-.04l-.17-.59c-.04-.12.14-.42.31-.47.63-.2.76-.72,1.14-1.09l2.52-2.44,2.43-2.93c-1.41-1.41-3.22-1.65-4.79-2.37l-3.37-1.54-4.29-2.69c-.14-.09.2-.49.1-.6-.21-.21-.61,0-.8.11l-1.55-1.05c-.43-.29-.64-.49-.61-1.19l-.43.43s-1.79-.72-1.62-2.12c-.06.18-.45.59-.58.47l-2.13-2.08-2.57-2.84c-.96-1.06-1.91-1.77-2.68-3.01-.71-1.15-1.79-2.55-1.78-4.1-1.04-.56-1.77-2.44-1.06-2.99-.79-.51-.79-1.47-1.04-2.31-1-3.41-1.6-6.74-2.07-10.22l-.26-1.94-.18-4.32.13-2.58c.04-.79.1-1.3.25-2.11l.6-3.39c.08-.47.52-1.03.36-1.53-.28-.87.48-1.5.54-2.03.1-.93.24-1.48.58-2.34l1.58-4.01c.31-.78.47-1.33.94-2.1l.81-1.34.46-1.54,2.11-5.05c.2-.47.56-.36.59-1,.07-1.49,1.2-2.86,1.89-4.04l1.65-2.81,2.06-3.15,1.82-2.6c1.66-2.37,3.49-4.67,5.97-6.24.4-.25,1.19,0,1.08-.81.56-.63,1.73-1.23,2.55-1.89l2.56-2.08,1.47-1.15c1.87-1.47,5.7-3.94,7.2-4.27l.55-.7c.14-.18.54.15.64.48.19-.72.59-.74,1.01-.9l3.81-1.4c1.02-.37,1.98-.91,3.12-.56.07-.37.21-.59.36-.72.27-.25.74-.19,1.12-.02,1.13-.83,2.79-.84,4.08-1.16.61-.15,1.02-.27,1.7-.4l3.4-.67,4.02-.32h3.82s2.24.12,2.24.12l2.84.56,4.29.65c1.31.2,2.31.61,3.52,1.22.7.35,2.18.23,2.71.93s.93.33,1.49.54c2.02.75,4,1.67,5.75,2.81l3.74,2.44.52.63c.95.05,1.69.63,2.06,1.5l.72.22c1.57.9,2.57,2.34,3.91,3.49,2.12,1.81,3.9,3.74,5.56,6l2.4,2.77,1.56,1.6,2.82,3.13,1.54,2.15,1.08,1.83c.53.9,1.01,1.58,1.48,2.49l2.35,4.54c.74,1.43,1.21,2.76,1.65,4.28l1.09,3.81,1.01,3.68-.1,1.49c.69,1.08.41,2.05.47,3.17.09,1.66.33,3.54-.43,5.02.55.46.07,1.07.05,1.51-.07,1.51-.16,2.89-.59,4.4l-1.72,6.06c-.28.99-.6,1.76-.96,2.67-.15.37.13,1.1-.14,1.73l-1.35,3.09-2.96,5.89c-.06.13-.46.04-.55,0-.12-.06.21.55.13.67l-2.09,3.19c-.15.23-.72.22-.76.41-.04.2.03.87-.16.88h-.53s-.18.75-.18.75l-2.03,2.16c-.72.77-.34,2.6.34,3.36s.83,1.32,1.17,2.15l1.01,2.44,1.25,2.92.96,3.14,1.12,3.1c.46,1.26,1.14,2.26,1.56,3.6l1.96,6.32c.03.08-.15.23-.2.27-.07.06-.06.27.06.39.73.76.77,1.67,1.01,2.55l.73,2.69.89,2.53c.19.53.12,1.03-.07,1.55,1.08,1.21,1.2,2.6,1.11,4.14.52,1.12.54,2.35.72,2.23l-.43.29c-.18.12-.25.62-.14.82.04.07.15.13.33.06.16-.22.41-.06.4.05,0,.16-.15.36-.27.51-.2.42.27.68.42.86l-.45.37c-.06.05.31.12.39.19.68.59.42,1.6.5,2.38.06.63.87,1.32.45,2.2-.13-.11-.39-.16-.54-.21-.6-.22,0,1.48,0,1.48.21-.05.33-1.5.67-.91.04.08.16.27.18.43l.47,4.2c.12,1.04,0,2.3-.29,3.31-.33,1.15-1.63,1.74-2.33,2.58l-.99,1.96Z"/>
            <g>
              <path class="cls-34" d="M135.62,159.01c-.77-.13-1.56.26-2.36.51-3.47,1.05-6.96,1.4-10.45,1.67l-2.11-.07c-1.18-.04-2.15-.12-2.78-1.11.24-.84,1.38-.27,2.57-1.15l8.27-1.16c.13.26.44.55.5.42.04-.1.18-.58.3-.61l5.88-1.61c.55-.15.63-.18,1.14-.43l5.76-2.85,1.46-.71c1.25-.61,1.77-1.61,2.49-2.79l2.06-2.07c.72-1.4,1.55-2.63,2.63-3.79.43-.46,1.63-.37,1.77.28.13.58-.12,1.39-.41,1.87l-1.67,2.73-2.21,2.97-2.74,2.39c-1.31,1.14-2.56,1.96-4.06,2.66l-2.86,1.33-2.35,1.05c-.32.14-.64.26-.81.47Z"/>
              <path class="cls-8" d="M113.25,145.95c-.39-.26-1.33-.25-1.43-.95.23-.27,1.06-.29.77-1.15l-.75.83c.21-1.29,1.39-2.15,2.6-2.75l5.97-2.95c2.22-1.09,4.5-2.32,6.5-3.75l2.83-5.27,1.81-4.86c.16-.43.96-.83,1.21-.41.64,1.1.43,2.47,0,3.58l-2.38,6.03c-.9,2.28-2.97,3.73-5.1,4.94l-4.07,2.3-6.42,3.2c-.61.3-1.24.56-1.54,1.21Z"/>
              <path class="cls-19" d="M133.13,115.81c-.51-.01-.77-1.31-.26-1.7,1.71-1.31,3.66-2.11,5.57-3.04l2.84-1.37,2.13-1.31c1.61-.99,3.69-3.91,5.18-2.84.27.2.5.71.24,1.15-.49.83-1.37,1.33-2.22,1.69-.77.32-1.02,1.17-1.59,1.64-2.75,2.24-5.99,3.56-9.39,4.6-.86.26-1.63.64-2.51,1.18Z"/>
              <path class="cls-31" d="M86.74,141.37c.15,1.16-.8,4.29-2.25,3.73-.33-.13-.33-.55-.45-.83-.57-1.28-.03-2.18.05-3.35l.72-10.57c.04-.56.08-.96.59-1.13,1.24-.42,2.33,2.33,1.56,5.18-.65,2.41-.51,4.6-.21,6.97Z"/>
              <path class="cls-16" d="M90.75,119.64c.3.11.08,1.13-.18,1.11-3.11-.24-6.03-1.41-8.8-2.85.09-.7.62-.91,1-1.07.49-.21.97.17,1.45.35l6.53,2.47Z"/>
              <g>
                <path class="cls-33" d="M108.45,117.94c-1.01.57-2.64,1.26-3.79,1.25-1.8-.01-3.85-.37-5.42-1.06s-2.96-.91-4.65-1.33l-7.56-1.89c-4.26-1.06-6.37-2.15-10.06-4.24l-5.68-3.22c-2.21-1.25-3.7-3.31-5.61-4.95-3-2.58-5.5-5.84-7.08-9.47l-1.55-3.56c-.53-1.22-.73-2.13-1.06-3.32-.53-1.92-1.08-3.77-1.16-5.87-.05-1.35-.46-2.56-.17-4.01.17-.87-.19-1.86.27-2.74s0-2.13.29-3.12l1.14-3.81c.25-.83.86-1.64.85-2.54,0-.74.64-1.08.84-1.58.6-1.54.85-3.09,1.84-4.39l4.75-6.29,3.44-3.75,2.43-2.25,2.24-1.93c2.84-2.45,5.97-4.46,9.33-6.21,1.66-.87,3.67-2.2,4.28-.99.03.06.25.03.27-.1l.04-.31c.35.16.96-.21,1.34-.2l4.16.11,8.73,1.39,2.83.64,2.45.74c2.43.27,4.57,1.08,6.75,2.08l3.21,1.46,2.4,1c1.45.6,2.65,1.07,3.86,2.15l3.52,1.62c2.53,1.5,4.28,3.74,6.08,5.94l2.68,3.3,3.21,4.85,1.7,2.76c1.37,2.21,1.79,4.98,2.28,7.54,1.18,6.15-.65,12.54-3.2,18.18-.8,1.78-1.73,3.25-2.78,4.87l-1.18,1.81-3.4,3.47c-.51.52-.82.95-1.22,1.53-1.5,2.18-3.7,3.63-5.61,5.43l-3.17,2.99c-.38.36-.69.28-.97.73-.23.35-1.04.88-1.44.92-.54.04-.64.37-.98.58l-4.21,2.69-2.03,1.35-3.17,1.8Z"/>
                <path class="cls-13" d="M72.07,100.44c-.06-.07-.11-.23-.15-.32l-3.3-3.53c-1.15-1.23-1.49-2.74-.86-4.32.52-1.29,1.68-2.05,3.23-2.43,1.22-.3,2.4-.49,3.43.46.65.6,1.52.59,2.32.91l2.05,2.01c.91.47.88,1.1,1.2,1.84.66,1.52.73,2.83.13,4.39-.58,1.51-1.78,2.38-3.29,2.95-2.21.83-2.86-1.56-4.76-1.96Z"/>
                <g>
                  <path class="cls-29" d="M72.07,100.44c.45-.42.96-.35,1.55.21,2.39,3.03,6.04.43,6.39-2.74.34-3.02-2.45-6.2-5.27-6.8-3.23-2.76-8.97.8-5.89,5.02l3.19,3.41-.12.59c-2.11-1.08-4.59-4.1-5.89-6.39l-1.25-2.22-1.44-2.94c-.34-.7-.57-1.01-.78-1.74l-1.13-3.8-.92-4.69c.17-.18.38-.43.36-.67-.01-.18-.36-.52-.55-.74.47-.58.47-1.39.58-2.1l.91-6.29,1.84-4.19c.72.42.46-.18,1.43-1.81,1.59-2.66,3.25-5.18,5.21-7.54-.04-.41.2-.48.48-.76,2.89-2.91,5.73-5.77,9.04-8.17l2.73-1.98,1.83-1.01c1.27-.7,2.72-1.15,4.18-.66l2,.04,3.89.91,4.12.84,4.7,1.24,4.05,1.14,3.2,1.25,2.39,1.01c2.04.46,3.67,1.73,5.53,2.54,1.64.72,2.91,1.49,4.18,2.79,1.02,1.05,2.55,1.71,3.3,3.05.37.66,1.09,1.08,1.55,1.38l2.36,3.83,2.18,4.17,1.17,3.28c.53,1.48.53,3.05.86,4.59.12.58.76,1.42.5,2.01s-.24,1.02-.25,1.59l-.06,2.46-.67,3.82-1.2,3.45-.88,2.04-1.44,2.76-2.37,3.28-3.35,3.25-2.05,2.16c-1.52,1.6-3.33,2.76-5.14,3.96l-2.37,1.56-4.82,3.05-1.95,1.02-2.36,1.24c-1.62,1.14-2.89,1.07-4.66.63l-7.32-1.83-5.69-1.71c-2.9-.87-5.64-1.68-8.24-3.35l-1.48-.71c-2.21-1.49-4.39-2.85-6.17-4.74Z"/>
                  <g>
                    <path class="cls-30" d="M115.9,96.56c-1.5.39-2.47-.29-3.51-1.17-.77-.64-1.45-1.02-1.68-2.1l-.34-1.63c-.57-2.73,1.67-5.94,4.24-7.33l1.9-1.03c1.12.03,2.19.27,3.24-.33l2.67,1.36,1.51,1.49c1.28,1.27,1,3.73.48,5.77-.49,1.93-2.52,4.27-4.47,4.74-1.2.3-2.68.97-4.04.23Z"/>
                    <path class="cls-6" d="M109.28,80.3c.71,2.31,1.4,4.92-1.04,5.64-1.12.33-2.03-.22-2.76-1.12-2.54-3.13-2.19-8,.38-7.75,1.87.18,2.91,1.55,3.42,3.23Z"/>
                    <path class="cls-3" d="M79.07,89.49c-2.14.84-4.76-1.95-4.61-5.35.03-.7-.06-1.65.45-2.18.42-.43,1.21-1.09,2.02-.81,2.49.87,3.66,3.43,3.48,5.96-.08,1.13-.42,2.02-1.35,2.38Z"/>
                    <path class="cls-7" d="M99.12,99.06c-3.7,2.85-8.87,1.28-9.14-1.14-.04-.4.59-1.27,1.05-.88,1.93,1.62,4.44,2.02,6.46.37s1.77-3.24,2.87-3.22c.46,0,1.07.47,1.07,1.12.01,1.58-1.1,2.81-2.31,3.75Z"/>
                    <path class="cls-15" d="M91.5,93.1c-1.68.29-2.93-.69-3.15-2.26-.37-2.6.39-5.45,2.14-5.3.59.05,1.33.47,1.53,1.17l1.2,4.12c.32,1.1-.56,2.07-1.72,2.27Z"/>
                  </g>
                </g>
              </g>
            </g>
          </g>
        </g>
        <g>
          <path class="cls-24" d="M156.61,167.67c.41.7,0,.8-.68.86l-1.89-.26c0,2.04-.62,3.74-1.86,5.1-1.02.69-1.97,1.44-2.86,2.25l.22,12.23c6.63-1.68,12.68-6.16,15.63-12.41l.55-.14c.47.21.61.54.65,1.26l.66-.48s3.83,1.16,4.55,3.52c1.27,4.21.81,8.11-3.42,9.62-.77.28-.37,1.61-.02,2.14.69,1.05,0,2.48.23,3.42.25,1.06.34,1.83.42,2.91l.23,2.83v2.26s.1,3.29.1,3.29l-.07,6.98c-.01,1.07-.4,2.3-1.06,2.99-.97,1.02-1.88,1.14-3.1.97-.93-.13-1.85-.36-2.09-1.32-.26-1.08-.43-1.99-.52-3.12l-.24-2.95-.69-4.76v-2.99s-.27-3.94-.27-3.94l.03-3.27c0-.74-.07-1.2.54-2.19l-3.37.66-9.44,2.08-.08,8.8.09,10.18c0,.59,0,1.07-.27,1.5.53.96.46,2.22.4,3.3l-.19,3.51c-.06,1.09-.47,2.21-1.69,2.53-.97.25-4.36-.31-4.25-1.35.36-3.38-1.03-5.27-.24-7.49-.35-.45-.49-1-.16-1.64-.55-1.09-.13-2.27-.16-3.4l-.11-3.36-.06-5.75c-.02-1.9-.46-3.72-.22-5.6-.7-.29-1.15.36-1.48.46-1.06-.03-2.03.19-3.12.38l-3.11.56-.21,5.28.02,6.31-.51,2.98c-.04,1.92-1.3,3.19-3.25,3.19-.66,0-1.41.17-1.97-.35-.35-.33-.8-.89-.83-1.6l-.13-3.05.02-3.58-.16-3.72c-.08-1.85-.28-3.67.37-5.57-.38-.35-.94-.3-1.44-.22-.58-.51.46-1.54.93-1.94,1.89-1.58,5.36-2.75,7.76-3.24,0,0,2.13-.54,6.4-1.62.08-3.42.04-6.79-.11-10.13-2.24,1.59-4.6,2.85-7.07,3.78-.51.6-1.18.99-2.02,1.15-5.04,2.97-10.13,5.84-15.28,8.61l-3.35,1.24c-.36,7.41-.45,14.82-.25,22.22l-.39.41c.44.12.54.47.31,1.06-.07,2.15-.07,4.29.01,6.43-.69.03-.6.82-.63,1.33l-.32,7.49-.27,6.35c-.05,1.08-.74,1.95-1.81,2.19-1.34.3-2.73,0-3.84-.72-1.31-.85-.66-4.89-.9-7.76l-.29-3.41c-.09-1.07-.3-1.87-.06-2.84.15-.6-.72-1.22-1.13-.98-.13-.33,0-.59.39-.78l.02-9.26.49-.29-.44-.22-.36-16.23c.07-.68.33-5.21-.02-5.38-.4-.2-4.4-.67-5.05-.7-1.01.37-1.53.22-2.3-.5l-1.25.1c-1.1-.37-2.23-.73-3.38-1.07-5.84-1.23-11.73-2.4-17.69-3.52h-2.48c.03-.23,0-.74-.2-.73l-.76.03c-.36-.26-.63-.37-1.07-.47l-6.08-1.35-4.22-1.23-2.55-.57c.29,1.72.28,3.13.24,4.77l-.26,10.31c-.07,2.7-.17,5.7-1.72,6.73-.53.35-1.07-.12-1.58-.15-1.76-.12-2.91-1.33-2.69-3.14.2-1.67-.08-3.26-.15-4.9l-.32-7.47-.25-6.48c-.02-.41.35-.75-.05-1.21-.18-.2-.51-.12-.94-.24l-11.16-2.93-4.15-1.17-1.74-.32-2.81-.56-6.21-1.66-2.41-.69c-.53,1.1-.19,2.2-.08,3.33l.3,3.19c.03.36-.33,1.13-.15,1.49.34.68.14,1.03.13,1.79l-.22,11.4-.33,13.19-.21,3.43c.06,2.78-.04,5.46-.69,8.2-.4.3-.69.8-1.32.96-1.07.24-3.33-.26-3.74-1.52-.64-1.94-.45-4.05-.69-6.04-.15-1.24-.34-2.41.02-3.61-.09-.51-.38-1.29-.36-1.99l.16-4.87-.18-13.28-.15-2.74-.2-3.64c-.05-.86-.18-1.57-.14-2.34l.35-7.75c.42-.23.73-.2,1.07-.67l-2.45-.99c-.8-.32-1.42-.2-2.1-.95-.16-.18-.61-.37-.68-.66s.04-.6.19-.88c-1,.28-.99-1.68-1.11-3.6.45.12.74.02.84-.1.07-.08.09-.46-.06-.56-.1.02-.37.22-.49.14-.76-.48.03-2.12,1.33-3.16.43-.6.74-.3,1.02.28-.19,1.25,1.14,1.98,2.16,2.46l12.63,3.73,4.35.59c16.42,3.99,32.9,7.85,49.45,11.57,3.31.32,6.49,1.01,9.55,2.07,4.02.18,8.01.88,11.98,2.1,2.48.3,4.92.7,7.33,1.19,2.94-.47,5.74-1.3,8.4-2.5,9.3-5.32,18.59-10.66,27.87-16.02l2.38-1.13c1.24-.97,2.44-1.98,3.6-3.05.08-1.03.42-1.64,1.02-1.83.41.33,1.34.32,1.78.97.7,1.04.74,2.19.63,3.49,1.06-.21,1.88,0,2.77.09Z"/>
          <path class="cls-2" d="M57.43,154.97l.02.54c-3.52,1.8-7.08,3.54-10.67,5.22-2.86,1.6-5.66,3.25-8.39,4.95-.7,1.29.28,1.93,2.94,1.94,2.51.8,5.11,1.5,7.8,1.53,1.43.83,3.03,1.12,4.65,1.22,3.52,1.08,7.11,1.93,10.78,2.54,8.65,2.25,17.46,4.13,26.24,5.79,1.13,1.29,2.91.83,4.33.1l6.82-4.46c7.38-3.8,14.33-8.18,20.86-13.15l.96-.57c3.95-.32,7.77-1.03,11.48-2.13.24.04.35.27.37.52l2.21.39,2.52.57,2.62.57,3.63,1c.68.19,1.09.15,1.79.43.75.3,1.48-.11,3.04,1.14l-.61,2.08-1.6,1.62c-.67.35-.92.25-1.44.96-.67.92-2.26,1.25-3.23,1.84l-3.98,2.42-2.93,1.49-3.81,2.12-4.87,2.97-4.67,2.77-6.61,3.68c-1.35.75-2.7,1.54-4.21,1.87l-5.34,1.18-2.23-.46-3.24-.41c-2.47-.31-4.79-.96-7.17-1.58-2.29-.48-4.43-1-6.75-.84-3.32-1.48-6.82-1.44-10.22-2.2l-10.49-2.33-14.31-3.41-4.11-.87-3.27-.84-8.65-2.11-5.21-1.16-2.74-.71-4.37-.59-12.18-3.57c-1.2-.35-2.3-1.13-2.95-2.13l-.03-.91c0-.18-.39-.27-.54-.35-.11-.19-.27-.61-.22-.82.06-.28.41-.51.72-.63l4.21-1.69,2.53-1.24c.4-.19,1.25-.5,1.56-.79.65-.59,1.21-.87,2.04-1.2l2.48-.99,6.58-2.7,2.58-1.11,1.65-.58c.16-.06.58.14.66.01.06-.1.18-.54.32-.56,1.2-.16,2.23-.85,3.33-1.29l4.24-1.71,2.92-1.15.45.44s.23-.47.3-.58c1.41-.97,2.87-.55,4.11-1.54.36-.29.87-.26,1.26-.15.01-.45.11-.76.36-.99l.46.48c.13,3.68,1.76,7.41,4.98,9.4l.22.7Z"/>
          <path class="cls-14" d="M126.11,197.52c-.22.32-.94.44-.95,1.19-.03,1.27-1.35,2.21-1.55,3.22l-1.19,6.25-.73,2.2-1.02,5.9c-.26,1.5-1.31,2.07-2.76,1.96-.04.19-.11.47-.24.48-1.08.05-3.49-.11-4.6-.27l-.34-.45c-.33-.92-.2-2.25-.24-3.38l-.09-2.47.28-9,.2-8.11,3.64-1.35,4.26-2.36,5.35-2.98,2.43-1.29,3.21-1.98c.46-.28,1.28-.21,1.65-.8.4-.63,1.18-.46,1.67-.74l2.59-1.43c1.33-.73,2.38-1.75,4.06-2.35l-.05,6.23.1,5.08-3.55.77c-1.66.36-3.15,1.05-4.86,1.27l-2.42.81-2.31,1.3c-1.28.36-1.91,1.41-2.53,2.28Z"/>
          <path class="cls-20" d="M95.28,193.9l-.89,4.24c-.11,2.1-.24,4.03-.89,6.08l-.13,3.27-1.2,2.05c-.1.31-.26.56-.49.75-5.75.23-11.55-.26-17.13-1.76-.61-.18-1.05-.62-1.32-1.31-.27-.2-.76-.51-.94-.89-.82-1.79-.95-3.74-.93-5.7,0-.71-.25-1.17-.28-1.82l-.06-1.45.02-2.91.09-2.2.59-2.93c.14-.68,1.13-.49,1.64-.51,2.65-.08,4.86.86,7.32,1.28l3.49.6,3.47.84,2.67.43c.54.09.81.53,1.62.39l1.97.51.98.48c.36.18.44.35.4.56Z"/>
          <path class="cls-17" d="M117.91,218.25c.3.96-.23,1.82-.37,2.79-.35,2.4-2.15,4.37-4.5,4.45-.12-.07-.3-.04-.39-.08-.1-.05-.2-.24-.2-.46l.08-5.94.18-1.01c.5-.09,1-.05,1.56-.01l3.63.26Z"/>
          <path class="cls-9" d="M100.27,151.56c-.79,1.12-1.32,2.45-1.67,3.83,0-.26-.06-.73-.26-.78l-.66-.18c-1.39-.38-2.64-.46-4.01-.75l-4.16-.89-4.05-.71-11.07-2.56,3.92-2.06,2.71-1.26,2.68-1.51c.07,1.12-.16,2.22.34,3.2.05.05.22-.28.33-.34.09-.05.17.39.32.43l2.19.49c2.12.77,4.23.84,6.39,1.32l4.22.93c1.51.34,2.68.47,2.78.85Z"/>
          <path class="cls-22" d="M72.74,155.32c-.16,1.69-.25,3.43-.27,5.21l-2.12.23c-.53-.28-.87-.63-1.29-1.17l-1.5-1.92c-.22-.14-.7-.17-1.01-.2-.48-.73-.66-1.47-.85-2.2l2.52-1.22,4-1.68c.49.97.52,1.87.51,2.94Z"/>
          <g>
            <path class="cls-5" d="M74.39,149.5l1.29-.21c7.22,1.78,14.5,3.19,21.84,4.58,1.12.23,1.33.27,1.08,1.51l.42.4c-.26,2.33.49,3.85,2.63,4.79,4.2,1.85,11.08,1.66,15.02-.79l.53.22c.16-.13.63-.15.74.01.53.02,1.12.2,1.79.54l2.78.13.31.5c.09.1.25.28.24.39-.02.11-.18.34-.34.46l-3.66,2.7-1.95,1.28-4.99,3.13-9.9,5.62-6.68,4.38c-2.13,1.39-4.56.65-4.55.68-.03-.08,0-.27.09-.58l-4.7-.75-5.57-1.37-9.93-2.04-6.43-1.68-1.82-.4-3.73-.72-2.61-.6c-.89-.2-1.83-.3-2.65-.83-1.66-.09-3.24-.38-4.64-1.22-1.62,0-3.17-.14-4.69-.74-1.29.06-2.34-.72-3.55-.85l-2.48-.27-.8-1.35c.22-.95.87-1.47,1.65-1.85l2.1-1.03c1.21-1.08,2.49-1.64,3.83-2.4s2.29-1.32,3.73-1.74l2.51-1.37,6.13-3.03c1.68.91,5.15-.13,7.27-1.07.59-.44,1.51.84,1.02,1.37l.56.19c.1,1.09.63,1.7,1.59,1.83l1.87,2.32c.51.35.73.73.63,1.15.78.02,1.51-.09,2.19-.34-.06-1.73,0-3.43.19-5.1-.45-.25-.64-.78-.58-1.58-.26-.57-.24-1.02.07-1.36-.7.27-.89-.95-.82-1.48-.05-1.02,1.55-.65,2.98-1.4Z"/>
            <path class="cls-11" d="M70.36,160.76c.6-.35,1.26-.34,2.06-.29v-4.92c.01-.19.14-.29.33-.23l-.06,5.2c-.74.36-1.65.59-2.33.24Z"/>
            <g>
              <path class="cls-11" d="M80.79,169.32l.11-2.05c-.69-.35-1.47-.31-2.17-.02-1.25.54-2.47.71-3.78.96-2.2.43-4.36.26-6.45-.71-.94-.07-1.73-.72-1.96-1.62s.15-1.85.95-2.36c-.27-.66-1.09-.47-1.51-.66.22-.19.37-.31.4-.39.05-.1-.03-.34-.46-.44,1.54-1.14,3.17-.77,5.44-.67l5.15-1.74c.51-.17,1.06-.22,1.49-.26,1.13-.59,2.27-1.21,3.58-1.27.34-.23.69-.48,1.35-.52.86-.05,1.89-.82,2.82.04.28-.14.48-.26.69-.19.36.12.7.45.83.75l.32-.26c.35-.29.39,1.38,1.21,2.17.76.73,1.24,1.58,1.62,2.67,1.4-1.42,3.07-2.66,5.12-2.39,1.02.13,1.97.84,2.75,1.58s.87,2.84,0,3.33c-.76.43-1.38-.74-1.35-1.24.07-.93-.55-1.43-1.14-1.75-1.29-.71-3.26.56-4.16,2.33,1.04,1.55,1.68,3.34,1.65,5.13-.03,1.23-.89,1.68-1.69,2.09-1.79.9-3.49,1.65-5.52,1.42-1.36-.15-2.98.05-4.06-.86-1-.84-1.3-1.78-1.23-3.05Z"/>
              <path class="cls-18" d="M81.91,165.48s-1.65-.34-3.33.07l-4.6,1.11-4.13-.41c-.53-.05-1.52-.54-1.47-1.01.22-1.04,1.36-1.44,2.1-2.02.14-.11.23-.48.34-.51s.32.32.45.33c1.36.05,2.64-.57,3.86-.93l1.79-.53,5.44-1.97c1.26-.46,2.52-.71,3.87-.43l1.75,2.73,3.09,5.51c.32.57.23,1.37.72,1.76-1.32,2.09-4.71,2.63-7.07,2.07-.51-.12-1.39-.02-1.73-.51-.27-.38-.86-1.19-.54-1.63.48-.66.4-1.14.4-1.95v-.77c0-.31-1.08-.38-.94-.88Z"/>
            </g>
          </g>
        </g>
      </g>
    </g>
  </g>
</svg>