<?xml version="1.0" encoding="UTF-8"?>
<svg id="Layer_2" data-name="Layer 2" xmlns="http://www.w3.org/2000/svg" viewBox="0 0 189.3 194.44">
  <defs>
    <style>
      .cls-1 {
        fill: #555a5d;
      }

      .cls-2 {
        fill: #68a4be;
      }

      .cls-3 {
        fill: #537c84;
      }

      .cls-4 {
        fill: #565c5e;
      }

      .cls-5 {
        fill: #537f87;
      }

      .cls-6 {
        fill: #517a83;
      }

      .cls-7 {
        fill: #6ca9c5;
      }

      .cls-8 {
        fill: #537d86;
      }

      .cls-9 {
        fill: #ab7d51;
      }

      .cls-10 {
        fill: #ddd;
      }

      .cls-11 {
        fill: #ab7c51;
      }

      .cls-12 {
        fill: #547e86;
      }

      .cls-13 {
        fill: #697576;
      }

      .cls-14 {
        fill: #ac7d50;
      }

      .cls-15 {
        fill: #c79770;
      }

      .cls-16 {
        fill: #537e86;
      }

      .cls-17 {
        fill: #ecd67e;
      }

      .cls-18 {
        fill: #aa7c4f;
      }

      .cls-19 {
        fill: #fefefe;
      }

      .cls-20 {
        fill: #d5d5d5;
      }

      .cls-21 {
        fill: #c7986a;
      }

      .cls-22 {
        fill: #74aec9;
      }

      .cls-23 {
        fill: #c4926a;
      }

      .cls-24 {
        fill: #bb865e;
      }

      .cls-25 {
        fill: #ebd67e;
      }

      .cls-26 {
        fill: #cfcfcf;
      }
    </style>
  </defs>
  <g id="Layer_1-2" data-name="Layer 1">
    <g>
      <path class="cls-26" d="M129.08,184.05l-10.1,6.03c-2.57,1.54-5.08,3.09-8.03,3.82-1.25.31-2.63.62-3.89.51l-2.07-.18-10.08-1.56-9.17-1.6-16.63-2.88-17.72-3.12-12.09-2.07-5.19-.9-11.42-1.99-7.34-1.42c-2.8-.54-5.61-.59-8.28-1.59-2.13-.8-4.25-2-5.35-4.05-1.49-2.78-1.86-6-1.68-9.08l.22-3.83c.07-1.27.34-2.52,1.37-3.47-.37,1.87-.43,3.46-.39,5.26l.12,5.58c.42,3.85,2.94,6.65,6.66,7.54l6.49,1.16,33.61,5.85,46.13,8.05,11.13,1.75c2.74.43,5.46.2,7.93-1.25l23.24-13.69c1.24-.73,2.06-1.7,2.74-2.87l29.34-.14c4.06-.02,7.53-3.38,7.61-7.58.24-11.9-1.25-23.69-3.76-35.35-2.04-9.49-5.13-18.43-9.42-27.17l3.78-3.66c5.7-5.5,10.7-11.47,14.47-18.47,3.49-6.49,5.77-13.34,6.46-20.7,1.13-12.1-3.3-24.77-9.72-34.91l-4.16-5.98-.24-.3c-.1-.12-.07-.3.09-.33.13-.02.31.05.4.19l5.35,7.62c2.43,4.11,4.5,8.2,6.2,12.64,1.42,3.7,2.25,7.36,2.92,11.24l.32,2.88.22,2.66c.14,1.64.22,3.09-.03,4.73l-1.1,7.25-.77,2.83-2.18,6.56-1.26,2.97c-1.74,3.26-3.53,6.36-5.68,9.34l-2.26,3.12-2.14,2.59-2.68,2.92-3.03,3.03c-1.69,1.69-3.6,2.52-2.32,5.65,2.23,5.41,4.37,10.74,6.04,16.37l1.4,5.61,1.45,6.82.94,4.9,1.03,7.72.53,6.39.22,4.04.04,8.07c.01,2.19-1.28,5.07-3.08,6.39-1.58,1.15-3.18,2.11-5.22,2.17l-3.95.12-8,.03-3.7.07-2.22-.19-4.86.08-3.41.11c-1.93.06-3.29.4-4.64,1.8-1.55,1.61-3.68,2.63-5.63,3.73l-3.6,2.05Z"/>
      <path class="cls-10" d="M46.35,66.45l-.03-5.15.18-2.75.42-3.56c.23-1.94.56-3.78,1.13-5.61l1.95-6.33,2.13-5.08c1.38-3.29,3.11-6.26,5.08-9.25l3.49-5.29,4.31-5.36,6.74-6.89c3.13-2.26,5.7-5.18,9.43-6.63-9.57,6.66-17.4,14.84-23.4,24.72-3.66,6.02-6.53,12.25-8.27,19.11-2.22,8.8-2.34,17.82-.23,26.63l1.82,5.61c-1.11.72-2.33.52-3.58-.15,1.01-.65,1.1-1.44.84-2.45l-1.33-5.14-.67-6.44Z"/>
      <path class="cls-20" d="M39.19,134.7c-1.01-1.61-1.77-3.23-2-5.19-.29-2.51-.18-5.05.23-7.57.12-.72.71-1.59.47-2.32-.4-1.25-1.76-1.29-2.84-1.23-3.04.18-6.87-1.73-8.51-4.03-1.92-2.68-3.31-5.66-4.15-8.86l-1.07-4.1c-.62-2.38.38-7.5,2.6-9.02-1.5,2.81-1.97,5.61-1.24,8.6l2.84,7.91c1.9,5.27,6.54,8.16,12.19,6.89l3.14-.7c-4.82,8.45-2.6,18.02,3.79,24.81l-4.72-.75.49-1.65-1.23-2.79Z"/>
      <g>
        <g>
          <path class="cls-14" d="M103.56,166.74l-2.31-1.53c-.28-.2-.21-.5-.04-.8l17.53,4.22.89.5,11.51-6.59c.44-.25.8-.44,1.24-.37.47,1.22.46,2.56.43,3.87s.13,2.58-.24,4l-13.51,8-10.5,6.11c-.77.22-1.87,0-2.69-.15l-19.49-3.4-35.12-6.12-17.82-3.06-23.95-4.24c-.2-2.69-.39-5.2-.11-7.62l2.92.5,19.76,3.3,19.59,3.29,21.54,3.59,33.78,5.78c.84.1,1.28-.21,1.88-.56l8.92-5.22-14.2-3.48Z"/>
          <g>
            <path class="cls-21" d="M80.97,153.54l2.51.52,2.5.41c1.09.18,2.16.15,3.16.57.49.34.68,2.07.23,2.47l-.18.44c-9.59-.81-19.66-.44-29.25.33-2.45-.24-4.86-.7-7.22-1.4-.44-.27-.96.28-.63.54,2.03,1.57,8.08,1.7,10.75,1.65,9.02-1.28,18.07-.81,26.86-.08l.73.5.61.04c5.68,5,14.94,2.99,21.11-.24l5.67-.31.35.43c.88-.05,2.07.32,2.95.48l2.31.42,2.7.44,2.92.47,2.49.48c.36.07.7.12.84.48-.15.33-.44.55-.85.66l-11.45,6.56c-.49.2-.99.09-1.51-.34l-15.63-3.75c-.63-.2-1.2-.49-1.72-.87l-.28.4c-6.18-1.24-12.37-2.28-18.57-3.11-.98-.06-4.59.22-4.67,1.48-.06,1,1.34,1.87,2.2,2.1,6.15,1.65,11.76,2.85,18.15,3.18.28.01.3-.49.16-.68-6.23-.68-12.38-1.84-18.47-3.48-.41-.11-1-.79-.77-1.12.67-.95,5.23-.62,6.5-.37l17.06,3.26c.4.12.8.3,1.04.66l.31-.39,13.86,3.4c.25.27.27.59.13.93l-9.22,5.4-1.58.38c-32.56-5.55-65.04-11.02-97.46-16.42l-.23-.49c.03-.28.57-.52.85-.66l22.11-10.8c1.2-.58,2.69-1.47,4-1.27l15.54,2.33,25.04,3.89,4.06.5Z"/>
            <path class="cls-14" d="M70.45,165.24c.63.23.34.97.14,1.22-.34.43-.74.43-1.29.24-4.8-1.65-9.56-2.62-14.58-3.6l-29.96-5.85c-.65-.13-.88-.82-.78-1.23.17-.68.68-.65,1.38-.51l35.47,7.05c3.33.66,6.38,1.47,9.62,2.66Z"/>
            <path class="cls-18" d="M101.21,164.41c.54,1.12,2.09,1.12,2.35,2.33l-17.83-3.41c-2.22-.43-4.34-.45-6.56.02.59.62,1.35.83,2.14,1l8.85,1.93,7.65.88c.65.08.93.49.91.98-.02.62-.41.84-1.14.8-5.91-.35-11.64-1.48-17.32-3.06-1.64-.46-3.25-1.52-3-2.84.34-1.85,5.09-2.02,7.58-1.58l16.37,2.95Z"/>
            <path class="cls-9" d="M89.37,157.51c.26.65.63,1.38,1.07,1.97l-9.22-.65c-5.44-.37-10.7-.16-16.14.48-4.46.53-8.67.24-12.89-1.29-.51-.19-.66-.66-.57-1.09.34-1.66,4.71,1.19,9.16.87l6.6-.48c4.95-.36,9.75-.53,14.72-.22l7.27.4Z"/>
            <path class="cls-11" d="M59.12,153.85c.59.1.8.57.91.83s-.17,1.08-.58,1l-9.17-1.61-15.43-2.21c-.43-.06-.84-.34-.91-.59-.11-.36-.07-.77.17-1.09.26-.34.7-.22,1.2-.15l11.1,1.67,12.71,2.14Z"/>
          </g>
        </g>
        <g>
          <g>
            <path class="cls-13" d="M51.84,101.18c.04.17.09.44-.03.49-.69.34-5.61,2.35-5.9,2.24l-.3-.46c-1.24-.44-2.53-.92-3.92-.53-1.07.3-1.75,1.21-1.66,2.31.06.77-.32,1.11-.94,1.39l-3.24,1.45c-.73.33-1.57-.03-2-.79-1.5-2.65-2.61-5.53-3.33-8.53-.28-1.15.3-2.11,1.31-2.57l2.64-1.18c1.39-.62,2.56,2.15,3.91.76l2.54-2.63.5-.57c1.85-.45,3.55-1.32,5.2-2.23l.75.1,2.88-.95c3.33-1.1,6.71-.46,9.49,1.58,1.73,1.27,3.21,2.71,3.98,4.77.26.7-.47,2.05-1.21,1.68-1.76-.88-3.45-1.73-5.45-1.65s-3.5,1.12-4.23,2.92l-.97,2.39Z"/>
            <path class="cls-5" d="M63.01,116.91c-.04,2.34,1.93,4.43,2.17,7.28.2,2.35-.58,4.57-1.48,6.61l-.51-.07-3.34-8.15c.05-.21-.41-.37-.4-.34,1.58,4.07,3.16,8.62.39,12.61-.49.71-1.29,1.84-2.16,1.47-4.74,1.13-8.91-2.49-10.47-6.96-.76-2.19-1.2-4.4-.82-6.75.39-2.45,1.87-4.78,4.11-5.68l.19-.54c1.52-.28,3.02-.07,4.49.66.1-.95.77-3.1,1.89-2.51,1.87-1.05,4.62.35,5.95,2.39Z"/>
            <path class="cls-23" d="M51.84,101.18l1.17,3.34,4.05,10c-1.08.6-1.51,1.94-1.48,3.38-1.6-.92-3.38-1.67-5.1-.98l-4.88-13.47c.49.18,1.2-.31,1.71-.51l4.52-1.76Z"/>
            <path class="cls-15" d="M63.7,130.8l1.3,3.43,1.75,5.06c.15.44-.25,1.41-.62,1.73-1.8,1.54-5.45,2.47-6.23.33l-1.62-4.42c-.13-.36-.32-.55-.61-.6,1.59-.97,2.65-2.77,3.04-4.76.47-3.32-.23-6.62-1.96-9.53.21-.34.67-.28,1-.18.26.08.42.33.57.7l3.38,8.24Z"/>
            <path class="cls-24" d="M47.35,90.44c-2.05,1.13-4.11,2.26-6.45,2.69.22-.64-.06-1.81.52-2.43,1.16-1.16,3.13-1.82,4.82-1.9.75-.03,1.06,1.16,1.11,1.63Z"/>
          </g>
          <path class="cls-12" d="M118.18,159.4l-5.92.31c-1.81.67-3.31,1.76-5.32,2.26-3.72.91-7.58,1.4-11.38.46-1.98-.49-3.97-1.41-5.12-2.94-.84-.2-1.63-1.23-1.07-1.97-.28-.69-.41-1.74-.23-2.47,1.28-5.17,7.57-8.88,13.03-8.6.49-2,1.67-3.41,3.17-4.56l4.31-3.32,9.27-6.86,4.04-4.03,6.08-8.47c.5-.69,1.24-.9,1.84-.49.75.51.68,1.31.16,2.02l-6.74,9.2c-2.64,2.99-5.72,5.28-8.94,7.64l-8.54,6.25c-.94.69-1.74,1.45-2.1,2.75,5.35,1.23,10.19,4.78,9.18,10.47,1.18.09,2.13-.02,3.24-.2,5.96-.97,11.53-2.96,16.86-5.78,5.62-2.98,10.29-7.05,14.22-12.01.42-.52,1.27.06,1.47.41.27.46.35,1.16-.05,1.7-2.3,3.12-5.04,5.66-8.14,8-6.95,5.26-14.95,8.42-23.34,10.26Z"/>
          <g>
            <path class="cls-2" d="M132.8,166.03c-.43-.48-.6-1.19-.49-2.13-.24-.7-.22-1.28.06-1.73-4.63-.68-9.27-1.45-13.92-2.32l-.27-.45.56-.43c11.4-2.89,21.92-7.85,29.65-16.92.86-1.01,1.87-2.25.23-2.77-7.54,9.76-20.44,16.92-32.71,18.17-.54.06-1.98.19-2.28-.21-.08-.11-.1-.26-.1-.43.79-5.45-4.02-8.66-8.74-9.81-1.03-.92.42-2.42,1.25-3.15,4.96-3.57,9.91-7.29,14.83-11.16l3.09-3.06,6.76-9.24c.66-1.24-.29-1.94-1.28-1l-6.15,8.56-4.08,4.08c-5.16,3.66-10.17,7.49-15.02,11.51-.77.96-1.37,2.03-1.8,3.21-5.29.12-10.86,2.71-12.7,7.95l-.56.33-.47.3c-2.51-.37-5.01-.8-7.49-1.3l-.21-.5,1.88-14.77c-6.03,2.29-10.08,2.03-16.09.52l-.51-.1-2.85-7.94.31-.45v-1.12c1.69-3.58,1.19-6.95-.62-10.31l-.36-1.11c-.27-.67-.18-1.12.29-1.35,3.59-.78,6.26.85,9.95-.67,2.42-.99,4.15-2.77,5.89-4.64l3.25-3.49c.52-.56,1.35-.87,1.43-1.78l-8.96-6.34c-4.72-3.96-8.82-8.43-12.05-13.72-8.58-14.05-8.81-30.54-1.87-45.41,4.11-8.81,9.92-16.69,16.97-23.3,2.47-2.32,4.94-4.16,7.69-6.07C97.83,2.78,113.39-1.79,128.6.66c6.1.98,11.7,3.08,17.1,5.98,12.68,6.81,21.7,16.07,28.47,28.74,2.95,5.53,4.79,11.34,5.51,17.58,1.25,10.76-2.37,21.34-8.48,30.11-3.56,5.11-7.54,9.71-12.3,13.69l-5.42,4.52c-.35.39.08,1.37.31,1.82,3.36,6.62,6.3,13.26,8.53,20.38,2.2,7.22,3.66,14.35,4.65,21.84.91,6.91,1.5,13.67,1.33,20.77l-35.5-.05Z"/>
            <path class="cls-16" d="M84.88,137.65c-.1.71-.63.95-.97,1.12s-1.5.11-1.5-.36l2.06-14.43c.11-.78.78-1.13,1.33-1.06.69.08,1.16.56,1.04,1.37l-1.97,13.36Z"/>
            <path class="cls-3" d="M139.88,108.58c-.92.22-1.58-.17-1.81-.87-.18-.54.22-1.27.99-1.41,2.08-.38,4.02-1.01,5.97-1.87l4.66-2.04c.46-.2.94.46,1.04.8.12.4.11,1.18-.38,1.43-3.32,1.68-6.73,3.09-10.47,3.97Z"/>
            <path class="cls-6" d="M95.82,109.59c.73.17.75,1.1.6,1.51-.23.61-.82.85-1.51.69-2.68-.58-5.15-1.49-7.68-2.47-.52-.2-.92-.58-1.03-.93-.14-.46-.15-1.29.26-1.48.66-.32,1.42,0,2.02.26,2.38,1.04,4.72,1.8,7.35,2.42Z"/>
            <g>
              <path class="cls-8" d="M114.64,107.77c-3.72,1.71-7.22,2.04-11.06.83-8.5-2.66-16.5-6.77-23.57-12.24-2.54-1.96-4.62-4.17-6.73-6.53-2.75-3.07-4.81-6.53-6.13-10.45-3.22-9.57-4.23-16.57-1.27-26.54,4.28-14.41,16.41-24.25,29.58-30.51l6.13-2.42c5.4-2.13,11.76.21,17.06,2.57,6.97,3.11,13.26,7.13,18.99,12.18l5.16,5.16c7.39,8.32,11.2,20.73,8.64,31.52-1.03,4.33-2.54,8.36-5.04,12-2.29,3.32-4.83,6.27-7.85,9-7.08,6.41-15.14,11.39-23.9,15.41Z"/>
              <g>
                <path class="cls-19" d="M113.46,101.8c-3.34,1.81-5.09,2.44-8.7,1.17-4.79-1.69-9.26-3.79-13.71-6.22-3.47-1.9-6.51-4.09-9.46-6.69-4.02-3.56-7.08-7.79-8.9-12.86-1.12-3.1-2.09-6.1-2.43-9.42-1.7-16.85,8.78-30.31,23.32-37.65,4.04-2.04,8.06-3.72,12.42-4.85,1.22-.32,2.34-.33,3.45.12l5.44,2.2c6.33,2.92,12.23,6.38,17.62,10.85,5.66,4.7,9.9,10.75,11.93,17.86,1.49,5.22,1.7,10.76.3,16.01-1.49,5.59-4.71,10.31-8.69,14.38-3.95,4.04-8.21,7.3-13.15,9.98l-9.45,5.12Z"/>
                <g>
                  <path class="cls-25" d="M135.53,80.03c-.62,4.81-5.47,7.62-9.93,6.45-2.68-.7-4.83-2.4-5.71-4.7-1.02-2.67-.66-5.7,1.17-7.84,2.67-3.13,7.22-3.54,10.7-1.55,2.73,1.56,4.2,4.31,3.77,7.65Z"/>
                  <path class="cls-17" d="M80.59,86c-4.25-1.13-7.48-6.83-6.87-10.9.26-1.74,1.29-3.23,2.62-3.88,1.66-.82,3.42-.65,5,.3,3.83,2.31,5.64,7.08,4.56,11.39-.62,2.46-2.78,3.77-5.3,3.09Z"/>
                  <path class="cls-4" d="M119.45,62.55c2.32,3.31,1.31,8.62-1.18,8.95-.88.12-1.75-.24-2.38-1-2.72-3.25-1.44-8.65,1.15-9.04.92-.14,1.84.26,2.42,1.08Z"/>
                  <path class="cls-1" d="M86.88,61.93c2.48,3.07,1.99,8.69-.94,9.08-.9.12-1.82-.23-2.46-1.04-2.63-3.31-1.27-8.53,1.05-8.91.88-.14,1.76.14,2.35.87Z"/>
                  <path class="cls-22" d="M95.62,84.04c-.56-.39-.53-1.16-.35-1.49.73-1.34,2.64.39,5.23.72s4.9-.56,6.59-2.42c.45-.49,1.37-.34,1.69.07,1.76,2.17-6.42,7.81-13.17,3.12Z"/>
                  <path class="cls-7" d="M100.23,76.13c-.38.97-1.96.8-2.72.46-2.16-.97-2.16-4.46-.27-6.74.54-.65,2.15-.98,2.61-.04.88,1.8,1.17,4.32.39,6.32Z"/>
                </g>
              </g>
            </g>
          </g>
        </g>
      </g>
    </g>
  </g>
</svg>