<?xml version="1.0" encoding="UTF-8"?>
<svg id="Layer_2" data-name="Layer 2" xmlns="http://www.w3.org/2000/svg" viewBox="0 0 148.56 188.11">
  <defs>
    <style>
      .cls-1 {
        fill: #d6d6d6;
      }

      .cls-2 {
        fill: #eed981;
      }

      .cls-3 {
        fill: #edd77d;
      }

      .cls-4 {
        fill: #6facc8;
      }

      .cls-5 {
        fill: #75adc7;
      }

      .cls-6 {
        fill: #537d86;
      }

      .cls-7 {
        fill: #557e87;
      }

      .cls-8 {
        fill: #fefefe;
      }

      .cls-9 {
        fill: #d5d5d5;
      }

      .cls-10 {
        fill: #68a4bf;
      }

      .cls-11 {
        fill: #595d61;
      }

      .cls-12 {
        fill: #54575c;
      }
    </style>
  </defs>
  <g id="Layer_1-2" data-name="Layer 1">
    <g>
      <path class="cls-1" d="M10.3,168.04c4.28,13.98,19.98,19.35,32.86,14l2.04-.14c5.56.89,10.82,1.59,16.44,1.37,6.36,2.2,12.72,2.87,19.22,3.07,10.3.31,20.49-1.31,29.93-6.24,1.97-.61,4.02-.88,6.16-.81l12.5-.13c2.79-.36,5.08-2.17,5.68-4.49,1.01-1.57,1.28-3.33,1.21-5.18-.24-6.2-.96-12.16-1.87-18.35-2.05-13.95-6.17-27.31-12.36-39.92.59-1.73,1.94-3.09,3.31-4.29,10.99-10.46,19.77-24.24,21.53-39.33l-.17-.58c1.18-9.86-.76-19.11-4.45-28.2-1.21-2.98-2.44-5.73-4.07-8.52-5.59-9.57-11.67-16.23-20.38-23.18.05-.12.16-.27.4-.4.4.86,1.18,1.09,1.81,1.61l3.07,2.57,3.22,3.04,2.46,2.48c2.14,2.16,3.84,4.45,5.71,6.85,2.76,3.53,4.96,7.25,6.89,11.29l1.75,3.65,1.3,3.42c2.87,7.55,4.41,15.45,4.01,23.52-.21,4.2-.75,8.12-2.07,12.08l-1.12,3.37-1.72,4.39c-2.08,5.31-5.23,10.03-8.94,14.34l-3.85,4.47-2.06,2.17c-1.54,1.62-3.37,2.97-4.56,4.87-.73,1.16,0,2.59.48,3.72l2.69,6.31,2.1,5.56c1.89,5.02,3.37,10.06,4.33,15.33l.25,1.38c1.55,6.95,2.53,13.87,2.98,20.95l.28,2.46.14,4.6c.15,4.92-3.08,8.94-8,9.85l-15.15.02-2.16.33c-1.49.44-2.79,1.25-4.21,1.84l-3.98,1.66c-3.01,1.25-7.84,2.35-11.18,2.76l-1.57.19-3.39.24-2.06.06c-1.95.06-3.79.03-5.79-.08l-2.56-.14-9.54-1.22-2.07-.41c-1.46-.29-2.93-1.04-4.46-1.12l-3.75-.19-2.57.02c-2.65-.26-5.2-.55-7.81-1.23-1.15-.3-2.52-.45-3.64-.09l-3.75,1.19c-2.24.71-4.37.93-6.72.94-2.4,0-4.62-.1-6.94-.71-4.76-1.25-8.93-3.65-12.14-7.4-3.52-4.12-5.81-8.96-6.38-14.44l-.05-7.53.25-2.24.41-2.5c.57-5.12,2.11-9.9,4.19-14.57l2-4.5,1.74-3.66,1.67-3.28,2.15-3.68,1.25-2.12,1.98-3.39c.53-.9.34-1.91-.45-2.72l-2.32-2.36c-1.14-1.16-2.28-2.15-3.37-3.36l-2.23-2.48-1.45-1.71-3.69-5.05c-5.37-7.36-9.06-18.5-9.72-27.68v-8.37c.36-5.41,1.34-10.63,3.07-15.72l1.93-4.81,1.58-3.14,3.31-6.34,1.11-1.82c2.38-3.91,5.06-7.56,8.25-10.85.27-.07.48.1.27.34C6.13,35.64-1.55,53.9,2.02,75.01c3.11,15.5,12,27.94,24.07,37.71-4.74,7.03-8.84,14.25-12.15,21.97-2.22,5.18-3.89,10.31-4.75,15.85l-.62,8.47c.05,3.17.52,6.12,1.73,9.02Z"/>
      <path class="cls-9" d="M135.12,174.66c.3.1.3.3.25.4l-.26.56c-1.05,2.29-3.21,3.96-5.86,3.99l-12.29.12-3.61.19c-1.58.08-3.06.89-4.45,1.54-6.28,2.94-13.38,4.82-20.3,5.28l-7.75.05-4.27-.23-3.13-.2c-4.11-.27-7.92-1.61-11.88-2.64l-7.97-.1-4.81-.79c-1.85-.3-3.69-.69-5.53-.35l-4.76,1.47c-3.8,1.17-11.45.43-15.43-1.22-4.67-1.94-8.44-5.35-10.81-9.8l-1.42-2.41-.81-2.35c-.04-.13.14-.26.27-.13,1.29,3.08,2.97,5.97,5.38,8.41,4.57,4.63,10.86,7.22,17.39,7.07,4.14-.09,7.84-1.38,11.51-3.18,5.41,2.09,11.15,2.67,16.96,2.05l4.98,1.53c14.66,3.07,31.6,2.97,44.55-5.28l17.8-.07c2.65-.01,4.9-1.8,6.26-3.93Z"/>
      <path class="cls-9" d="M122.11,111.21c-.29-.6-.61-1.04-.64-1.7,12.89-10.96,23.26-25.42,25.31-42.5.2.1.3.2.38.29.23.27-.75,6.03-1.52,8.43l-1.38,4.27c-2.81,8.66-9.24,17.77-15.62,24.28l-2.89,2.96c-.63.64-1.29,1.05-1.81,1.81-.43.62-1.03,1.1-1.22,1.92-.06.26-.41.35-.6.24Z"/>
      <g>
        <g>
          <path class="cls-10" d="M108.59,170.5l-.15-.47c4.65-3.66,7.6-8.53,8.81-14.43.24-1.18-1.04-1.53-1.62-.59-5.12,21.85-30.27,22.25-47.91,18.62-.7-.15-1.4-.55-1.7-1.23l-1.96-14.94c.09-.98,1.15-1.85,2.03-2.22,9.52-4.01,19.02-6.41,29.37-7.26.32-.63-.02-1.24-.67-1.5l-3.56.23-.63-.26c.07-4.03.73-8,1.98-11.9.08-1.26-1.34-1.52-1.69-.27-1.07,3.92-2.04,7.86-2.55,11.9l-.39.99c-5.06,1.06-10.18,2.25-15.36,3.56-3.44,1.04-6.56,2.53-9.35,4.48l-1.18,1.55c-2.22.26-4.39.72-6.51,1.38-.88.03-1.25-.02-.86-.92,4.58-9.62,6.21-19.76,6.89-30.28.11-1.7-.15-2.95-1.03-4.4.34-.69.91-1.23,1.72-1.64,2.32-1.87,4.02-4.16,5.09-6.87,9.08-2.72,18.13-8.29,25.6-14.2,12.13-9.6,19.7-21.82,17.25-37.72-3.05-19.79-21.73-33.57-39.41-40.31-7.74-2.95-13.61-1-20.65,2.66-17.54,9.12-32.35,23.51-31.23,44.77.92,17.46,10.73,29.25,25.44,37.53.37.28.85,8.89.55,9.24-2.82,1.74-4.88,4.36-6.81,7.07-3.7,5.19-8.98,13.25-10.65,19.36-.24.89,1.04,1.33,1.66.49,3.03-7.96,7.64-14.98,12.97-22.14.87-1.17,2.76-3.19,4.34-2.41,3.77,2.08,7.89,3.56,11.93,4.91.72.31,1.07.64,1.3,1.38.53,1.7.01,6.3-.2,7.99-1.59,12.54-4.96,25.08-13.28,34.43-.51.85-.75,1.86-.61,2.85l-.38.41c-2.3,1.64-4.58,3.3-7.34,4.2-6.96,2.27-14.41,0-18.42-6.15-2.09-3.21-2.93-6.87-2.83-10.73.15-5.66,1.39-10.97,3.29-16.3,2.57-6.63,5.61-12.85,9.38-18.88l8.15-11.65c-5.44-3.36-10.2-7.14-14.35-11.81-9.7-10.92-14.84-23.16-13.69-37.94.77-9.96,4.22-19.04,9.65-27.31,3.1-4.72,6.25-9.1,10.31-13.02l4.02-3.87c5.08-4.48,10.75-7.96,16.88-10.92C58.44,2.04,67.26.04,76.35,0c3.36-.01,6.43.16,9.69.91,13.6,3.14,25.92,10.18,35.51,20.28,4.81,5.06,8.58,10.57,11.72,16.8,3.86,7.65,6.14,15.89,5.76,24.54-.6,13.36-6.33,23.95-15.09,33.7l-7.01,6.69-4.71,3.81c-.5.4-.75.81-.46,1.42l3.89,8.23,5.13,12.12c4.56,13.36,6.87,27.77,7.64,42.01l-19.84-.02Z"/>
          <path class="cls-6" d="M96.88,115.72c-.85.26-1.53.12-1.79-.62-.19-.54.03-1.34.83-1.58,2.97-.88,5.64-2.28,8.41-3.66l2.12-1.05c.68-.33,1.47.02,1.72.59.28.65.12,1.36-.58,1.7l-1.83.88c-2.9,1.39-5.69,2.78-8.88,3.76Z"/>
        </g>
        <g>
          <path class="cls-7" d="M108.59,170.5c-3.99,2.96-8.44,4.99-13.34,6.05-9.29,2.01-19.93,1.24-29.15-.96-1.02-.24-1.69-.91-1.89-2-5.46,1.35-11.78,1.66-16.76-.9-.98-.5-1.98-1.28-2.24-2.35-.33-1.34.06-2.84.89-3.92l2.64-3.41c1.36-1.76,2.55-3.42,3.52-5.52,4.19-9.09,6.57-18.91,7.09-28.94.07-1.41.18-2.7-.15-4.01-.15-.58-1.31-1.01-1.89-1.19-3.79-1.18-7.3-2.58-10.8-4.46-.74-.4-1.57-.35-2.15.24l-1.91,1.93c-3.69,4.56-6.85,9.4-9.61,14.58l-3.22,7.32c-.33.74-1.12.97-1.78.79s-.97-.98-.71-1.76c1.04-3.15,2.5-5.94,4.12-8.85,2.68-4.8,5.52-9.37,9.06-13.56,1.2-1.6,2.54-2.84,4.3-3.81l-.52-8.76c-7.08-4.06-14.81-9.98-19.1-16.85-4.05-6.49-6.21-13.87-6.51-21.53-.24-6.28.98-12,3.45-17.7,4.97-11.48,14.74-19.68,25.57-25.57,6.51-3.54,14.02-7.14,21.3-4.75,11.03,3.61,20.86,9.81,29.23,17.81,7.89,7.54,12.65,17.15,13.1,28.16.26,6.23-1.13,12.26-4.05,17.67-1.89,3.51-3.98,6.59-6.72,9.5-7.06,7.47-17.25,13.9-26.52,18.48-2.03,1-4.06,1.57-6.19,2.12-.59,1.37-.99,2.83-2.02,3.85l-3.03,3.02c-.47.47-1.17.6-1.63,1.29.87,1.14,1.14,2.32,1.11,3.77-.23,10.33-2.64,22.18-7.23,31.67,2.23-1.02,4.71-1.24,7.03-1.57.57-.94,1.2-1.93,2.31-2.43,4.07-2.29,8.39-3.96,12.99-4.92l10.66-2.22c.53-4.34,1.47-8.48,2.66-12.68.23-.83.97-1.3,1.65-1.08s1.08.97.87,1.74c-1.04,3.77-1.87,7.47-2.1,11.48l3.63-.27c.7-.05,1.17.5,1.41.93.2.37.13,1.49-.53,1.54-6.33.56-12.45,1.65-18.64,3.3-3.67.98-7.04,2.33-10.49,3.85-.68.3-1.5.95-1.79,1.65l1.92,14.82c.07.53.91.99,1.39,1.07l10.36,1.53c5.33.41,10.51.41,15.74-.65,10.36-2.08,19.1-8.45,21.27-19.05.16-.79,1.15-1.11,1.66-.96.67.2,1,.83.86,1.61-.87,4.84-3.18,9.03-6.54,12.56l-2.56,2.26Z"/>
          <g>
            <path class="cls-8" d="M62.85,103.93c2.64-1.92,5.73-4.13,4.53-6.64-1.15-2.41-4.72-1.48-7.48-.26-3.19,1.41-5.76,3.63-8.13,6.22l-1.62-3.23c-.54-1.07-1.7-1.67-2.84-1.69s-2.17.73-2.93,2c-10.03-6.94-15.96-12.58-18.84-24.82-1.85-7.87-.94-15.69,2.4-23.01,1.9-4.16,4.55-7.62,7.75-10.88,7.36-7.49,16.28-12.16,26.41-14.85,1.97-.52,3.86-.36,5.75.39,8.79,3.49,16.05,7.54,23.21,13.8,8.06,7.04,12.88,16.19,13.24,26.97.15,4.4-.67,8.36-2.44,12.28-1.51,3.35-3.29,6.3-5.76,9.08-4.29,4.84-9.38,8.62-14.93,11.95-4.5,2.7-8.89,5.17-13.77,7.11-1.53.61-1.26-2.9-4.54-4.43Z"/>
            <g>
              <path class="cls-3" d="M93.15,86.87c-4.22,3.89-11.67,3.01-13.9-1.63-1.17-2.42-1.25-5.44-.02-7.93,1.8-3.66,6.01-5.67,9.93-4.92,3.6.68,6.27,3.41,6.53,7,.2,2.76-.43,5.54-2.54,7.49Z"/>
              <path class="cls-2" d="M33.62,86.11c-3.05-2.14-4.73-5.86-4.47-9.46.14-1.88.51-3.82,1.86-5.13,2.54-2.44,6.38-2.29,9.04.07,3.08,2.73,4.31,7.2,3.11,11.12-.6,1.96-2.02,3.48-3.59,4.09-2,.78-4.16.57-5.96-.69Z"/>
              <path class="cls-11" d="M80.82,62.69c2.31,3.66.28,9.48-2.73,9.25s-4.12-5.59-1.83-9.42c.49-.82,1.43-1.25,2.23-1.26.89-.02,1.76.53,2.33,1.43Z"/>
              <path class="cls-12" d="M46.72,60.62c2.7,3.34.95,9.82-2.1,9.73-.85-.03-1.77-.49-2.29-1.38-2.15-3.67-.19-9.22,2.52-9.31.73-.02,1.36.33,1.87.96Z"/>
              <path class="cls-5" d="M65.15,87.59c-2.97-1.87-6.36-2.58-9.68-1.73-.7.18-1.29-.27-1.46-.8-.87-2.65,7.09-3.37,12.66.46.61.42.71,1.28.3,1.84-.36.51-1.09.69-1.82.23Z"/>
              <path class="cls-4" d="M60.46,70.22c.54,2.94.3,6.7-2.08,6.6-1.16-.05-2.29-1.05-2.52-2.2-.6-2.98,1.39-6.39,3.28-5.92.63.16,1.17.73,1.32,1.53Z"/>
            </g>
          </g>
        </g>
      </g>
    </g>
  </g>
</svg>