<?xml version="1.0" encoding="UTF-8"?>
<svg id="Layer_2" data-name="Layer 2" xmlns="http://www.w3.org/2000/svg" viewBox="0 0 107.17 132.1">
  <defs>
    <style>
      .cls-1 {
        fill: #859ca7;
      }

      .cls-2 {
        fill: #839ca8;
      }

      .cls-3 {
        fill: #eff7fa;
      }

      .cls-4 {
        fill: #d7d7d7;
      }

      .cls-5 {
        fill: #b7b7b7;
      }

      .cls-6 {
        fill: #bababa;
      }

      .cls-7 {
        fill: #839ba7;
      }
    </style>
  </defs>
  <g id="Layer_1-2" data-name="Layer 1">
    <g>
      <path class="cls-6" d="M5.24,125.52c.88.77,1.89,1.45,2.98,1.92,1.24.77,2.64,1.19,4.18,1.25,11.91,1.23,23.89,1.28,35.84.87l37.52-.34c7.95.03,16.92-.32,18.07-10.6.68-7.14,1.23-14.19,1.15-21.27,0-.01-.09.05-.2.14l-.52-28.54-.05-18.22-.38-7.73-.57-6.04c-.16-1.65-.4-3.22-.86-4.65.06-.11-.19-.35.16-.57l.85,2.06.88,4.88.4,4.08.21,2.58.22,4.07.19,4.8v2.75s-.05,4.33-.05,4.33l-.04,10.42.08,2,.1,4.04.17,2.18.05,10.16.11,2.47-.06,7.11-.21,8.15-.16,4.37-.22,2.77c-.33,4.17-.56,8.28-3.72,11.47-1.17,1.18-2.37,2.07-3.99,2.62-1.81.62-3.66.88-5.61.94l-6.82.19-3.17.05-4.9.06-5.56.07-4.91.1-4.25-.06-7.16-.05-6.32.16-6.31.2h-3.19s-13.02-.04-13.02-.04l-2.56-.2-2.52-.21-3.61-.19-4.95-.47c-2.88-.28-5.49-1.45-7.42-3.66-.13-.15-.1-.35.15-.41Z"/>
      <g>
        <path class="cls-4" d="M5.24,125.52c0,.34.34.64.84,1.03,1.52,1.15,3.16,2.24,5.06,2.56,4.99.59,9.99,1,15,1.24,19.9-.05,39.76-.21,59.57-.47l6.69-.25c5.75-.72,9.66-2.14,11.44-8.29,1.62-9.81,1.67-19.95,1.55-29.83,0-.06-.07-.11-.16-.17-.03-6.55-.18-13.1-.45-19.63.39-11.03.08-22.03-.92-32.98-.32-2.51-.73-4.34-1.38-6.77,0-.02.18.32-.09.34-.72-2.23-2.28-3.63-3.85-5.37l-15.56-17.15-5.37-5.51c-1.96-2.02-4.52-3.35-7.42-3.38l-21.72-.23-9.93.31-8.84.21-4.5-.13c-4.16-.33-8.22.1-12.39.75-.36.11-.5-.21-.19-.39l1.9-.28,6.04-.75c.99-.12,1.82-.02,2.84.03l4.42.19,4.44.03,7.24-.26,4.24-.19,7.39-.19h11.92s6.17.16,6.17.16c3.82.09,7.94,1.86,10.67,4.58l4.36,4.34,2.58,2.75,3.42,4,2.44,2.69,2.54,2.79,2.74,3,2.96,3.21c3.63,3.94,4.29,6.49,4.7,11.78l.19,2.39.23,2.1.17,2.84.25,4.46.1,2.07.17,21.87.21,8.57.18,8.18c.06,2.5.03,4.94-.03,7.45l-.16,8.03-.16,3.71-.21,3.02-.21,2.35-.5,3.56-.84,3.23-1.23,2.34c-1.99,3.77-6.84,5.63-10.98,5.8l-5.5.22h-2.62s-4.26.05-4.26.05l-10.45.12-2.11.04-2.79-.03-11.03-.02-1.81.07-3.78.04-3.88.15-11.28.16c-.71,0-1.21.04-1.95.02l-1.26-.02-4.81-.13-2.56-.2-3.76-.25-5.01-.43c-2.07-.18-4.02-.41-5.91-1.27-3.89-1.76-6.22-5.29-6.62-9.6l-.59-6.42-.17-2.4-.1-5.93-.12-2.41-.11-6.2c-.01-.81-.1-1.39-.06-2.23l.07-1.44.1-5.35.13-1.85v-16.6s-.12-3.3-.12-3.3l-.13-7.01v-1.52s-.16-4.31-.16-4.31l-.18-2.39.06-14.9.21-3.93.17-3.01.4-8.77.24-1.73c-.25-3.17.32-9.47,2.4-11.88l-1.2,5.22-.43,6.88-.81,16.09-.02,15.65.37,13.32.05,23.59-.02,15.46c0,4.94.23,9.68.88,14.58l.55,4.17c.45,1.59,1.21,2.9,2.4,3.93Z"/>
        <path class="cls-5" d="M8.22,127.44c1.39.61,2.99.82,4.61.95l6.54.49,12.43.58,10.97-.2,23.59-.27,18.75-.16c3.22-.03,6.27-.1,9.4-.55,3.9-.56,6.96-3.07,8.3-6.8.76-2.11,1.07-4.24,1.2-6.5l.5-8.91c.08-2.14.15-4.28.2-6.44l.07-2.13.17-5.91c0-.08.1-.13.16-.12l.1,4.24-.19,6.6-.02,4.31-.38,5.98c-.18,2.8-.34,5.48-.98,8.22-1.31,5.54-5.37,8.2-10.9,8.48l-2.97.15-4.01.16-11.69.1-2.85.12h-9.49s-8.01.03-8.01.03l-5.48.05-5.07.18-7.67.09-5.78.03-4.41-.21-7.56-.44-5.13-.5c-1.61-.16-3.91-.66-4.41-1.61Z"/>
        <g>
          <path class="cls-6" d="M104.52,106.07l.02-6.22c0-.15.11-.23.19-.22l.02,6.2c0,.16-.15.24-.22.24Z"/>
          <g>
            <path class="cls-1" d="M52.33,121.86l-3.69.2-9.99.25-1.62.05-3.47.06h-4.66s-2.35-.12-2.35-.12c-.15,0-.33-.22-.42-.28-.11-.07-.37.24-.54.23l-5-.36-3.56-.21-5.62-.61c-1.24-.13-2.15-1.23-2.03-2.39l-.44-3.44-.31-3.14-.02-1.42-.27-4.53-.09-4.82c-.02-.87.09-1.65-.13-2.49s.13-1.77.11-2.59c-.01-.42-.29-.83-.16-1.3.28-.99.02-1.99.03-2.98l.12-7.38.26-1.61c.11-.71-.31-1.55-.15-2.32.43-2.17-.41-2.71.17-3.51-.47-1.32-.05-2.74-.04-4.09l.03-4.74-.03-1.94-.18-2.07-.07-3.54.04-1.51-.07-1.7-.15-5.51v-3.09c0-.86-.25-1.86-.03-2.73l-.13-1.18-.08-3.37.04-3.43.14-4.54.47-7.44.08-4,.19-3.92c.06-1.31.2-2.39.31-3.69l.27-3.05c.14-1.62,1.02-2.27,2.5-2.52l4.39-.73,5.24-.37,2.15-.14,5.7.33c.35.02.59.19.83.46.58-.79,1.48-.25,2.15-.35,1.44-.23,2.76-.26,4.23-.26h4.79c.72.01,1.08-.21,1.7-.22l11.11-.26,2.79-.05c.57-.01,1.05.13,1.38.36.49-.5,1.11-.23,1.7-.22l4.3.07,1.7-.02,2.91.11c.53.02.92-.01,1.44.2l1.51.62c1.27.52,1.84,1.45,2.73,2.49.73.86,2.17,1.49,2.48,2.75.56.11.92.54,1.32,1.01l3.7,4.23,5.1,5.47.46.79,2.23,2.28,3.03,3.35,1.35,1.21,1.17,1.59c.46.63.81,1.21.9,2.08l.4,4.28c.19,1.98.13,3.85.56,5.81.07.33-.24.81-.26,1.06.43,1.06.38,2.3.33,3.41-.03.6.41,1.23-.02,1.88-.19.3.14.67.14.92v7.8s-.1,3.97-.1,3.97v2.08s.18,4.36.18,4.36l.21,7.97.2,14.87c-.18.08-.29.2-.34.27-.18.27.74.19.49.47-.47.52,0,1.1-.04,1.51l-.38,4.74v3.39s-.12,3.93-.12,3.93c0,.37-.19.82-.4,1.14.48.84.26,1.68.17,2.59l-.56,5.67c-.13.87-.8,1.86-1.24,2.69l-1.42.43c-.5.15-1.02.56-2.38.25-.51.42-1.28.6-1.68-.07-.22.27-.41.44-.67.51-.45.12-.89-.62-1.15-.48-.2.11-.31.53-.46.47l-.33-.13-1.77.13-5.19.11-3.8-.11-8.31.09c-.54,0-.88-.17-1.51.02-.69.2-1.65.02-2.42,0l-6.39-.1-3.7.04-2.02-.06Z"/>
            <path class="cls-3" d="M88.18,117.59l-2.72.11-4.1.06c-.69,0-1.82-.27-2.38.02-.71.37-.85-.09-1.42-.08l-3.31.08c-.53.01-.64.11-1.17.05-1.22-.15-2.58-.03-3.82-.02l-3.09.05-4.23-.06h-4.54s-3.46.23-3.46.23l-2.53.1-1.71.17-9.92.43c-1.22.05-2.5-.34-3.67-.05-.74.18-1.24.04-2.01.06l-4.5.1-5.41.1-11.44-.31c-.49-.78-.15-1.7-.31-2.46-.2-.96.07-1.64-.01-2.52l-.15-1.65.3-1.24-.08-2.91c-.04-1.36.52-2.81.14-4.17-.22-.8.16-1.08.09-2.31l-.25-4.21c-.03-.5-.33-.85-.21-1.5.08-.42.22-1.19.23-1.65l.18-5.11-.05-6.68c.06-1.76.32-3.54-.3-5.34.44-2.82-.03-5.52-.19-8.3l-.27-4.66-.2-3.59-.12-4.91-.04-1.51-.22-6.13-.08-4.51v-2.03s-.06-2.54-.06-2.54l.12-3.14.02-3.21.21-6.01.07-3.09-.08-2.77v-9.02s4.06-.34,4.06-.34l2.48-.13h2.72s1.56.12,1.56.12h1.86c2.74.38,5.34.37,8.05.47l3.58.14,2.23-.08,2.24-.02,8.02-.07h6.9s3.42-.08,3.42-.08l6.14.27,3.64-.09c.06-.23.28-.15.26,0l.23,7.99.18,3.13-.02,3.3.12,3.17c.03.77-.12,1.35.16,2.13l.97,2.69c.21.58.75.68,1.1,1.02.58.57,1.07.57,1.68.81,1.05.42,1.99.57,3.15.63l8.68.46,2.18.12,5.63.18c.24,0,.55-.3.64-.18.1.13.21.56.2.75l-.3,5.99-.09,3.1-.17,3.28.17,4.12-.13,1.97.15,3.87-.21,3.22.17,5.34.09,6.44-.23,2.35.19,2.44.33,6.79.15,3.24c.05,1.07.07,2.04.35,3.07.09.34.01,1.09-.03,1.48l-.16,1.58.15,5.02-.03,4.8c0,.84-.02,1.38-.19,2.2-.26,1.26-.09,2.49-.23,3.87l-.59,5.74c-.64-.25-1.32,0-1.89-.02l-2.86-.12Z"/>
            <path class="cls-2" d="M69.2,84.91c-1.76.19-3.03-.07-3.85-1.78-.05-.1.21-.31.25-.27.05.04.19-.18.12-.26-.05-.06-.28,0-.42-.07-.05-.89.27-2.21,1.09-2.78,1.67-1.17,1.84-2.16,2.64-1.92.03-.77.6-1.08,1.14-1.6l1.26-1.21,2.22-2.1,1.39-1,1.34-1.23c-.5-.76-1.18-1.04-1.78-1.56l-3.28-2.89-2.08-1.93c-.68-.63-1.27-1.08-1.78-1.88l-1.84-1.72c-.15-.14-.25-.34-.24-.49s.2-.34.36-.42c-.34-.08-.58-.2-.68-.47-.34-.93.07-1.89.96-2.44.52-.32,1.71-.33,2.35-.07,1.52.62,2.47,1.91,3.69,2.88l1.91,1.51,1.98,1.6,4.12,3.13,1.38,1.41c.5.52,1.03,1.33,1.45,1.86.52.64.11,1.16.12,1.58.02,1.5-.48,2.48-1.61,3.41l-1.38,1.15-1.56,1.2-2.63,2.46c-.91.85-1.79,1.55-2.62,2.5l-1.02.67c-.96.96-1.79,2.06-3.02,2.72Z"/>
            <path class="cls-7" d="M37.83,84.65c-.24.34-1.52-.03-1.88-.28-.21-.15-.3-.4-.25-.96l-.45.51c-.21.24-.48-.59-.67-.71-.08-.05-.29.04-.49,0-.57-.1-.92-.93-1.37-1.25l-1.63-1.15-4.75-4.14c-1.09-.95-2.07-1.67-2.98-2.82-.83-1.05-1.85-2.26-1.34-3.76s1.93-2.59,3.06-3.65l1.33-1.25,1.63-1.55,2.52-2.38,2.2-1.87,3.3-2.61c.43-.34,1.4-.41,1.86-.33,1.01.28,1.51.99,1.69,1.74.24,1-.18,1.64-.91,2.37l-4.12,4.14-2.14,2.14c-1.35,1.35-2.52,2.81-4.35,3.88l6.07,5.05c.54.45.97.76,1.55,1.23l3.74,3.03.52,1.13c.56.54.54,1.14.16,1.61.23.25.37.59.09.99-.48.69-1.27,1.05-2.04,1.15-.05-.33-.06-.48-.02-.62.06-.2-.23-.41-.42-.2-.01.12.16.44.07.57Z"/>
            <path class="cls-2" d="M51.19,83.28c-1.04,2.79-1.89,6.69-4.35,6.24.18-.44-.23-.79-.39-.28-.71.16-1.69-.24-1.94-.94l.28-.39-.29-.34c-.5-.58-.14-1.39.06-2.02l1.94-5.91,1.27-3.91,4.87-13.02,3.06-8.29c.34-.92.84-1.52,1.77-1.91.68-.29,1.58.04,1.98.63.14-.03.39-.14.49-.12.19.04.23.33.19.56.47.33.73.96.52,1.64l-1.25,4.07-.94,2.66-1.82,5.88-2.56,7.68-1.24,3.28-1.66,4.47Z"/>
          </g>
        </g>
      </g>
    </g>
  </g>
</svg>