<?xml version="1.0" encoding="UTF-8"?>
<svg id="Layer_2" data-name="Layer 2" xmlns="http://www.w3.org/2000/svg" viewBox="0 0 107.71 132.65">
  <defs>
    <style>
      .cls-1 {
        fill: #fefefd;
      }

      .cls-2 {
        fill: #d8d8d8;
      }

      .cls-3 {
        fill: #b9bab9;
      }

      .cls-4 {
        fill: #d7d7d7;
      }

      .cls-5 {
        fill: #f0f8fb;
      }

      .cls-6 {
        fill: #839ca7;
      }

      .cls-7 {
        fill: #839aa6;
      }

      .cls-8 {
        fill: #869da8;
      }
    </style>
  </defs>
  <g id="Layer_1-2" data-name="Layer 1">
    <g>
      <path class="cls-2" d="M27.31,132.65l-4.55-.22-7.12-.45-2.38-.17c-5.69-.4-10.49-4.22-11.28-9.96l-.77-5.61-.2-2.15-.21-3.43-.21-2.81-.09-4.75-.03-3.6-.04-1.54c-.04-1.27.06-2.37.06-3.64v-3.93s-.04-22.75-.04-22.75l-.23-5.38-.19-6.89-.03-18.9.2-5.23.18-3.45c.06-1.13.34-2.24.17-3.42-.16-1.09.21-2.14.2-3.2-.02-3.83.04-7.47,1.1-11.14C4.14,2.18,12.05,1.25,19.4.72h9.28c1.65-.02,3.21.03,4.86-.02l6.97-.2,6.92-.23,6.85-.17c.7-.02,1.23-.06,1.93-.08l1.72-.03c1.51.33,2.97.1,4.47.13l5.58.1,2.15.19c5.61.5,8.2,2.47,11.95,6.22,2.61,2.6,4.99,5.17,7.28,8.04l3.03,3.19,2.26,2.38,2.58,2.78,1.94,2.23c.68.78,1.33,1.34,2.02,2.06,2.47,2.57,4.22,5.58,4.64,9.24l.94,8.22.17,2.4.19,5.88.05,2.04.16,17.06.2,12.44.2,6.65v10.08s-.21,6.02-.21,6.02l-.19,4.29-.22,2.78c-.29,3.61-.57,7.22-2.1,10.5-1.65,3.54-4.67,6.03-8.49,6.59l-3.65.53-6.7.17-35.74.23-8.47.21h-14.64Z"/>
      <path class="cls-1" d="M76.84,3.45c3.96,3.47,7.62,7.25,11,11.34l12.19,13.05c1.37,1.35,2.39,2.86,3.05,4.53l-.12.43.26.17c1.09,4.75,1.69,9.65,1.81,14.69.33,18.52.55,37.03.64,55.52l-1.01,14.94c0,6.31-4.89,11.17-11.08,11.38l-10.41.39c-18.51,0-37.06.13-55.65.38l-17.01-1.16c-1.81-.36-3.77-1.37-4.85-2.87l-.57-.03c-1.03-1.05-2.14-3.3-2.05-4.78l-1.13-10.72c-.45-7.93-.55-15.66-.33-23.64.23-8.61.14-16.92-.19-25.53-.27-6.97-.56-13.64-.39-20.59l.27-10.66.54-13.37c.11-2.79.39-5.42,1.17-8.05,1.3-4.41,4.8-5.68,8.94-6.52,5.78-1.18,11.41-1.05,17.29-.84l16.43-.39,16.45-.22c3.18-.04,6.21.1,9.32.51,2.07.28,3.73,1.19,5.43,2.06Z"/>
      <path class="cls-4" d="M3.05,121.42c.2,1.88,1.36,3.45,2.63,4.81,2.28,2.81,6.13,3.63,9.58,3.8,13.05,1.06,26.19.81,39.25.42,12.52.14,25.02.04,37.5-.31,5.22-.46,10.01-1.36,11.92-7.21,1.81-10.06,2.03-20.31,1.94-30.51-.39-15.14-.66-30.3-.81-45.47-.29-4.7-.76-9.78-1.93-14.33l-.15.18c-.89-2.04-2.26-3.85-3.85-5.53l-4.56-4.81-7.06-7.61c-3.58-3.86-6.87-7.79-10.66-11.39.75.38,1.55.75,2.16,1.62l1.04.85,5.03,5.17,1.04,1.09,1.9,2.38,4.85,5.12,4.22,4.5,3.16,3.47c2.15,2.36,4.24,4.88,4.65,8.12l.41,3.25c.59,4.68.83,9.21.94,13.93l.12,5.25.13,16.53.2,9.87.2,6.01v10.72s-.22,5.13-.22,5.13l-.17,4.34-.47,5.52c-.36,4.25-.95,8.41-3.91,11.28-.97.94-1.89,1.82-3.22,2.33-2.37.91-4.87,1.16-7.41,1.25l-6.34.22-33.94.19-8.32.13-2.38.19-12.46-.08-9.02-.47-5.5-.42c-5.25-.4-9.14-3.15-10.54-8.36-.12-.44-.27-.87.06-1.14Z"/>
      <path class="cls-3" d="M5.67,126.23c1.63,1.14,3.42,2.38,5.57,2.52l16.29,1.08,24.84-.3h13.09s17.7-.08,17.7-.08l10.11-.38c2.19-.08,4.35-.64,6.16-1.86,2.7-1.81,4.51-4.76,4.73-8.03l1.09-16.03.03-14.62-.53-25.5-.07-12.68c-.02-4.07-.41-7.94-.89-11.96-.23-1.95-.19-3.83-.83-5.6-.17-.36.21-.59.3-.22.72,1.58,1.13,3.12,1.29,4.79l.92,9.56.12,5.1.05,1.58.11,16.45.2,10.81.15,4.47.13,3.86.05,3.21-.03,8.53-.2,6.01-.23,4.25-.23,2.55-.84,7.25c-.54,4.62-3.75,8.09-8.31,8.98l-4.42.58-6.56.2-10.91.13-2.13.06-2.95-.04c-1.81-.03-3.45.2-5.29-.04l-1.9.02h-7.78s-2.33,0-2.33,0l-3.57.17-4.65.03-1.91.14-14.46-.07-8.36-.45-3.18-.2c-4.1-.26-7.41-.63-10.28-3.7-.14-.15-.15-.43-.08-.58Z"/>
      <g>
        <path class="cls-8" d="M40.1,122.85l-5.44.19h-3.14c-.88,0-1.81-.31-2.75-.07-.75.19-1.47-.07-2.13-.12l-2.9-.22-4.05-.24-2.98-.24-3.6-.27c-1.2-.09-2.99-.51-3.36-1.83l-.55-4.64c-.15-1.26-.33-2.35-.36-3.7l-.05-2.64c-.03-1.36-.28-2.56-.29-4.02l-.03-2.58-.12-2.07c-.03-.53-.14-.79-.13-1.17l.19-10.03.03-4.46c0-1.08.24-1.96.06-3.08l.07-2.24c.03-.97-.11-1.87-.1-2.88s.11-1.94.17-2.97c.02-.36-.38-.6-.01-1.13.2-.37-.19-1.27-.19-1.76l.02-3.59-.08-2.36-.09-1.69-.26-8.89-.16-5.96-.09-7.12.16-7.03.52-7.93.14-4.91c.02-.75.05-1.38.1-2.14l.39-6.9c.08-1.43.99-1.91,2.11-2.25,2.34-.71,3.85-.95,6.13-1.17,1.06-.1,2.05-.38,3.11-.43,1.84-.07,3.55-.04,5.4.04l1.72.07,6.08-.08c.98-.01,1.83.01,2.83,0h2.04s2.07-.11,2.07-.11l5.6-.25,5.26-.15,10.14.05,2.86.03,1.9.04c2.27.04,4.76.01,6.36,1.74l.76.29,3.12,3.25,5.55,5.99,1.84,1.99,2.68,2.83,2.22,2.43,3.45,3.81c1.39,1.54,2.96,2.87,4.08,4.62.47.73.24,1.35.3,2.13l.52,6.23.13,1.28c.15,1.52.38,2.88.4,4.45.01.72.55,1.56-.17,2.29.62.99.25,2.21.29,3.33l.12,3.25-.1,2.28v4.96s.05,4.75.05,4.75l.07,4.87.14,4.51.15,2.84.16,6.23.02,8.6-.21,5.53-.28,8.15v1.93c.01,1-.4,1.48-.48,2.26l-.24,2.09c-.13,1.14-.08,2.26-.76,3.42-.58,1-2.73,1.85-3.85,1.72-.44-.05-.88-.02-1.23.08-.1,0-.33-.23-.42-.25-.13-.03-.35.3-.52.32-1.41.18-2.79.11-2.68-.48.01-.07-.23-.15-.23.07,0,.77-1,.69-2.27.44-.68.38-1.51.16-2.19.17l-8.74.05-3.56.14-13.11-.19-5.32.07c-.7,0-1.11.08-1.84.08l-2.43.02-8.03.29Z"/>
        <path class="cls-5" d="M94.13,112.31c0,.58-.35,1.17-.4,1.91l-.27,3.82-2.96-.02-6.11.06h-2.29s-1.72.01-1.72.01c-.6,0-1.56-.26-2.07.02-.56.31-.6.06-1.09-.02-1.68-.26-2.97.3-3.65.06-.44-.15-1.22-.11-1.79-.09l-4.55.2c-2.55-.22-5.03-.02-7.6-.06l-2.82-.04-5.59.45-2.88.08-5.25.4-3.33-.05-.54.33-.63-.38c-.84.17-1.9.11-2.81.12h-2.13s-2.66.06-2.66.06l-4.72.17-8.23-.29-5.48-.17-.06-6.52.15-1.87c.04-.54-.04-.7-.04-1.22l.08-6.89-.21-6.37.04-3.76.2-9.08-.19-6.28c-.08-2.61.01-5.09-.2-7.73l-.74-9.17-.09-5.25-.31-12.55.09-7.35.22-10.89c.02-1.04,0-1.99-.02-3.05l-.16-5.96c-.03-1.02-.18-1.98.35-2.96l3.06-.39,3.95-.22,2.73.05,2.39.06c1.83.04,3.58.34,5.46.28l2.47.23,5.48.05c1.1.01,2.1-.14,3.17-.13h1.55s2.8-.05,2.8-.05h2.2s3.59.02,3.59.02h10.2s4.02.17,4.02.17l3.38-.03c.22,0,.43-.26.55-.19.15.09.56.38.56.61l.11,6.52.04,2.34c.02,1.19.44,2.55.11,3.68-.19.67.09,1.14.08,1.79l-.04,2.72c-.03,1.86.47,3.87,1.72,5.33,1.35,1.59,3.45,1.84,5.41,2.03l2.54.24c.69.06,1.23-.12,1.78-.06l2.78.3c1.54-.14,2.94.14,4.51.16l2.07.03,3.55-.03-.23,4.28-.19,7.49v7.29s-.04,4.2-.04,4.2c0,.93-.03,1.74-.03,2.71v2.57s.18,1.65.18,1.65l.02,5.48.12,1.15-.23,3.4-.09,1.98.25,3.13.79,12.21v2.58s-.02,9.87-.02,9.87l-.28,3.18.02,1.61Z"/>
        <path class="cls-7" d="M84.49,109.83c-.2.54-.57.75-1.07.79l-6.57.47-12.4.09-1.51-.1-4.62-.2-8.08-.16c-.5,0-.82-.07-1.42-.06l-5.16.08-5.17.09-1.5.1-2.78.06-3.84.29-4.32.05c-1.69.02-3.65.18-4.93-1.49-.4-.52-.86-1.42-.99-2.1l-.25-1.35-.21-3.25v-3.48s-.06-5.76-.06-5.76l-.05-5.11c-.01-1.53.7-2.51,1.64-3.47l1.54-1.6,4.98-6.53,4.36-4.85,2.47-2.62.94-1.17c.64-.8,1.16-1.15,2.14-1.23.88-.07,1.65.27,2.37,1.04l3.16,3.41,2.67,3.25c.57.69.9,1.27,1.53,1.93l3.34,3.46c1.79,1.85,3.1,4.08,5.42,5.56.34-.59.85-1.18,1.36-1.71l1.99-2.05,1.84-1.8,5.89-5.57c.84-1.13,1.74-1.91,3.17-2.16,1.15-.99,3.31-1.55,4.55-.41l6.3,5.79c1.29,1.19,2.76,1.35,3.67,3.4.13.29.68.69.66,1.12.72.2.86.69,1.11,1.33.54,1.41.39,2.9.43,4.39l.05,2.08c.01.58-.07,1.15-.37,1.57.46.59.5,1.23.52,1.95l.16,5.49-.03,5.03c0,.89-.23,1.63-.16,2.5.12,1.46-.7,2.76-2.02,3.27-.27.11-.54-.08-.74-.39Z"/>
        <path class="cls-6" d="M56.21,67.17c-2.08-.94-3.97-2.34-4.66-4.54l-.51-1.63c-.47-1.52.19-3.23.64-4.74l.91-1.37c.37-.56.96-.74,1.26-1.06.89-.96,1.77-1.09,2.87-1.44,2.68-.86,5.47.13,7.16,2.39,2.36,3.14,2.55,6.25.53,9.73-1.54,2.66-5.56,3.85-8.21,2.66Z"/>
      </g>
    </g>
  </g>
</svg>