<?xml version="1.0" encoding="UTF-8"?>
<svg id="Layer_2" data-name="Layer 2" xmlns="http://www.w3.org/2000/svg" viewBox="0 0 107.22 132.08">
  <defs>
    <style>
      .cls-1 {
        fill: #839ca8;
      }

      .cls-2 {
        fill: #f0f8fb;
      }

      .cls-3 {
        fill: #bababa;
      }

      .cls-4 {
        fill: #839ca7;
      }

      .cls-5 {
        fill: #839ba7;
      }

      .cls-6 {
        fill: #d8d8d7;
      }

      .cls-7 {
        fill: #849ca7;
      }
    </style>
  </defs>
  <g id="Layer_1-2" data-name="Layer 1">
    <g>
      <path class="cls-6" d="M4.89,125.06c1.36,2.34,4.4,3.57,6.96,4.17,8.62.92,17.28,1.18,25.92,1.13,3.96-.02,7.91-.08,11.78-.39.87.25,1.76.27,2.68.05,13.46.14,26.83-.06,40.29-.35,6.81-.74,10.32-3.21,11.7-10.29.67-7.74,1.07-15.48,1.2-23.22l-.71-38.07c.34-7.94-.46-15.97-1.5-23.9-.28-1.27-.71-2.26-1.3-2.95-.8-1.83-2.17-2.88-3.48-4.33l-12.54-13.8-8.27-8.76c-2.19-1.97-4.77-3.33-7.75-3.42l-9.43-.27-21.48.41-11.81.14c-4.29-.27-8.4-.27-12.65.44-.81.13-1.59.24-2.31.18l.09-.26,4.39-.68,4.19-.46,5.27.22,2.14.02,6.97-.04,3.39-.17,4.55-.11,2.74-.2,6.53-.14h11.57s2.15.19,2.15.19c3.43-.1,6.9.35,9.98,1.77,1.3.6,2.35,1.48,3.35,2.41l2.54,2.34,1.39,1.4,2.45,2.65,6.06,6.9,3.28,3.52,2.24,2.49,1.97,2.27c1.4,1.61,3.01,2.95,4.07,4.85,1.55,2.8,1.78,4.29,2.04,7.34l.61,7.1.21,2.77.18,3.57.1,22.16.17,1.1v3.63s.22,8.17.22,8.17l-.02,1.91.21,7.04c.03,1.14-.09,2.16-.13,3.28l-.16,5.04-.11,3.55-.25,5.57-.19,2.58-.75,5.44c-1.49,6.79-6.01,10.12-12.78,10.34l-4.09.13-2.17.09-1.71.02-13.65.11-1.7.04-1.47.06-3.59-.03-1.3-.08h-11.55c-.86,0-1.49.3-2.42.07l-2.02.14-5.28.14-15.31-.06-7.27-.4-3.57-.21-2.65-.26c-3.05-.3-5.96-1.28-8.19-3.44l-1.09-1.25c-1.77-2.56-2.14-5.64-2.46-8.71l-.2-1.94-.2-2.8-.19-3.87-.17-6.85-.16-3.87-.02-6.41.2-2.38.14-6.85-.11-9.52-.17-6.26-.2-10.57-.2-6.48c-.04-1.45-.04-2.8-.09-4.18-.09-2.44.15-4.76.17-7.2l.04-3.65c.22-1.32.11-2.55.21-3.89l.22-3.2c.07-1.07.29-2.1.16-3.22-.11-.96.16-1.85.18-2.78l.09-4.92.18-2.18.6-3.86c.22-1.43.58-2.85,1.66-3.86-.63,1.82-1.14,3.49-1.24,5.38l-.36,6.87-.71,16.3-.02,13.95.33,14.39c.18,7.73.4,15.2.11,22.94-.21,5.47-.13,10.64-.04,16.11.1,5.48.38,10.71,1.01,16.14.26,2.23.79,4.3,2.27,5.99Z"/>
      <g>
        <path class="cls-3" d="M4.89,125.06c1.61,1.84,3.83,2.99,6.27,3.19l9.02.75,14.35.51,13.28-.32,16.02-.09,12.66-.11,15.37-.29c4.46-.08,8.59-1.72,10.49-5.88.84-1.83,1.36-3.72,1.47-5.79l.91-16.65.16-7.75-.31-13.3-.29-19.31-.51-17.29-.51-5.68c-.18-2.05-.56-4.03-1.33-5.82.02-.23.28-.2.28-.03,1.32,1.88,1.79,4.01,1.95,6.26l.16,2.18.71,8.47.16,3.16c.04.88-.11,1.63.14,2.57l-.11,2.49-.08,1.76.2,9.05.13,10.77.16,9.98.09,2.22.12,5.28c.02.72-.01,1.24-.03,1.96l-.14,4.75-.09,1.47-.2,6.44-.19,2.58-.21,2.79-.22,3.03c-.29,3.95-2.39,8.19-5.88,10.1-2.31,1.27-4.89,1.57-7.47,1.63l-5.38.12c-1.5.03-2.94-.23-4.52.09l-2.81-.07-7.66.24h-4.01s-1.73,0-1.73,0l-1.49-.08h-11.56c-.83,0-1.54.43-2.42,0-.31-.15-.86.15-1.2.16l-7.37.1c-1.34.02-2.55.1-3.86.1l-6.87-.03-1.72-.03-2.1-.14-4.29-.11-3.43-.15-5.48-.43c-3.5-.27-6.63-1.7-8.87-4.54-.16-.12-.06-.36.23-.29Z"/>
        <g>
          <path class="cls-4" d="M47.96,122.16l-6.97.24-2.41.04h-1.91c-.86.01-1.81.36-2.67-.05-.53-.25-.91.22-1.33.21l-3.07-.1c-1.21-.04-2.48.21-3.4-.31-1.23.26-2.55.13-3.9-.16-3.69-.02-7.26-.39-10.88-.84-1.19-.4-2.22-1.39-1.8-2.64-.38-1.76-.71-3.48-.63-5.3-.57-.66-.1-1.39-.13-1.98l-.42-8.42.03-2.57c.02-1.45-.1-2.67-.11-3.99l-.04-4.36.08-7.47c0-.38.51-.93.3-1.46-.43-1.13-.06-2.28-.1-3.45l-.1-2.55c-.05-1.25-.1-2.4.14-3.69l-.09-3.13c-.03-.99.08-1.88.05-2.82l-.11-2.85-.05-3.81c-.01-.91-.03-1.81-.04-2.7l-.04-3.35-.18-4.93c-.02-.55-.01-.76-.03-1.25l-.14-3.76-.06-3.14v-2.8s.31-6.91.31-6.91l.44-6.42.07-3.22.21-5.85c.04-1.13.34-2.15.29-3.38-.03-.66.22-1.58.36-2.21.26-1.2,1.6-1.34,2.5-1.58l1.59-.42,6.46-.68c2.16-.23,4.19-.06,6.34.06l3.73.21h2.06c1.39,0,2.7-.27,4.12-.24l2.46.05,3.64-.16,2.04-.24c3.94-.21,7.8-.06,11.74-.06h1.96s10.21.13,10.21.13c2.69.03,4.81,1.32,6.39,3.47l2.33,2.28.05.4c0,.08.36.07.45.17l2.12,2.14,1.32,1.67c.36.45.61.72,1.01,1.16l5.04,5.55,1.07,1.29,3.95,4.32c.4.43.54.79,1.07,1.1.94.56,1.5,1.64,2.16,2.48.46.59.9,1.16.97,1.99l.38,4.8c.12,1.47.02,2.85.37,4.33.17.73.24,1.44-.14,2.08.63,1.1.49,2.31.46,3.42l-.07,2.39.12,5.67-.03,3.38-.1,3.31v2.16s.16,3.96.16,3.96l.14,4.81.31,16.77v1.75c-.02.41.1.74-.13,1.1.35.61.15,1.23.12,1.89l-.31,5.65c-.07,1.19.12,2.25-.16,3.43-.14.61.29,1.73-.01,2.28-.38.69-.2.85-.09,1.5.23,1.31-.28,2.67-.38,3.94l-.28,3.6c-.07.86-.67,2.2-1.39,2.8-.55.41-1.63.07-2.15.88-.64-.21-1.21-.35-1.71-.17l-.98.36c-.22.08-.47-.22-.65-.56-.21.36-.42.64-.62.57l-.97-.33c-.43.21-.9.15-1.28.17l-2.33.16-4.1.12-3.66-.11-8.76.12-3.94-.02-6.12-.1c-1.18-.02-2.28-.3-3.53.02l-2.29-.06-4.3.21Z"/>
          <path class="cls-2" d="M93.01,117.91c-.67-.35-1.42-.11-2.05-.11l-5.58-.03-3.98.07c-.71.01-1.83-.25-2.44.04-.7.33-.85-.08-1.42-.07l-3.32.06c-.52,0-.7.08-1.21.08l-5.37-.02-5.21-.05-4.69.02-3.9.27-2.58.07-1.3.17-10.02.42c-1.43.06-2.97-.43-4.37.02-.58.19-.91-.08-1.46-.06l-8.41.27-5.72-.24-7.16-.06c-.48-.75-.29-1.63-.31-2.48l-.06-2.28c-.02-.77-.24-1.67-.07-2.4.13-.56.41-.86.26-1.58-.46-2.21.64-4.62-.09-6.69.29-.97.29-2.05.07-3.18l-.1-2.94c-.02-.62-.17-.82-.11-1.46l.15-1.82c.14-1.71.03-3.27.22-4.96l-.05-3.15v-3.71c0-1.74-.14-3.37-.18-5.07-.06-2.47-.05-4.84-.22-7.32l-.39-5.73-.24-5.58-.05-4.32-.32-10.6.05-2.15-.09-2.65.15-3.73.03-2.66.09-2.67c.04-1.08.06-1.97-.03-3.03l.23-1.76-.08-4.42v-8.51c.24-.64,1.28-.55,1.74-.57l3.85-.23,2.51-.06,1.9.04c2.11.04,4.08.17,6.14.49l4.78.08c1.27.02,2.44.11,3.73.09l1.83-.03,2.61-.03,4.39-.02,4.39-.1,2.29.07h3.99s2.81-.09,2.81-.09l6.04.26,2.35-.09c.63-.02,1.2.33,1.91-.23l.13,8.13.2,3.21v5.5s.03,1.47.03,1.47c.01,1.24.52,2.63.88,3.79.27.84.84,1.16,1.34,1.65.57.55,1.11.51,1.66.75,1.11.5,2.05.54,3.22.62l4.41.3,3.05.24,1.72-.12c1.51.23,2.89.32,4.41.25,1.2-.05,2.38.4,3.66-.16l-.38,6.82-.04,2.99-.21,2.86.13,4.8.08,6.03-.23,2.77.17,5.35c.06,2-.31,4.93.32,7.32-.67.34-.29,1.13-.39,1.52-.26,1.03.05,1.64.09,2.48l.3,6.6.28,5.37.28,2.13-.25,1.09.07,10.27c0,1.06.22,1.86-.17,2.93l-.27,2.28c-.02.15.05.26.12.27.06,0,.16.02.41-.03.03.42-.5.82-.53,1.3l-.4,5.68Z"/>
          <g>
            <path class="cls-1" d="M34.23,86.38l-2.91-.17-5.78-.35-1.81-.29c-.68-.11-1.67-.98-1.64-1.67.06-1.86,2.68-1.78,4.63-1.98l1.89-.19,2.74-.05,1.14.03h4.68s4.83,0,4.83,0c1.3,0,2.51-.35,3.86-.13l1.99-.22h4.61s2.96-.09,2.96-.09l8.63-.29,3.25.13,3.42-.07,2.8-.03,4.17.16c.57.02,1.53-.69,2.16.14,1.18-.35,2.39.43,2.62,1.74.52.53.26,1.02.03,1.51-.5,1.09-1.3,1.34-2.39,1.4-.31.02-.62.19-.97-.06-.27.06-.73.28-1.18.28l-6.59-.03c-1.43,0-2.8.41-4.29.13l-1.99.05-4.43.08-8.86.13h-3.39s-2.02-.08-2.02-.08c-.54-.02-.62-.18-1.18-.05s-1.61.12-2.19,0-.76.07-1.25.06l-7.55-.11Z"/>
            <path class="cls-4" d="M42.45,61.72c-5.19-.08-10.15-.29-15.28-.58l-3.24-.18c-.76-.04-1.35-.76-1.31-1.4.05-.82.54-1.38,1.39-1.49l3-.38,1.16.12c1.31-.27,2.51-.14,3.85-.18l11.49-.39c2.08-.07,4.04-.15,6.14-.17l3.26-.03,4.4-.03,5.22-.1,10.11-.18,6.53.19,1.84.26c1.1.15,2.16.83,2.19,1.99.01.53-.4,1.59-.85,1.9-.58.4-1.57.59-2.3.6l-7.83.19-9.02-.08-7.57.03-5.36.04-7.81-.11Z"/>
            <path class="cls-7" d="M43.22,74.09l-7.15-.2-3.08-.06-4.03-.2-5.35-.33c-.66-.04-.94-1.08-.91-1.57.03-.55.37-1.56,1.07-1.6l4.37-.28,3.35-.08,5.17-.07,8.23-.2,2.97.06,2.64-.18,3.21-.1,6.43.13,2.94-.04,7.62-.19h4s4.34,0,4.34,0c2.01,0,3.64.21,3.99,2.27-.23.87-1.2,2.01-2.12,2.09l-2.31.2h-8.03c-.54-.01-.95.02-1.46.03l-1.38.04-5,.12-2.05.03h-1.74s-6.48.22-6.48.22l-9.23-.07Z"/>
            <path class="cls-4" d="M45.18,48.15l-7.49.09-5.42-.16-5.1-.2-2.73-.33c-.83-.1-1.34-.38-1.7-1s-.4-1.47.15-2.03c1.32-1.33,5.23-1.09,7.52-1.13l2.66-.05,5.25-.2,6.72-.06,1.36-.07,3.51-.08c1.06-.03,2.19.1,3.19.16l3.14.18c.47.03.9.4,1.39.37.61.39.96,1.22,1.5,1.77l-.55,1.97-2.37.77h-11.02Z"/>
            <path class="cls-5" d="M43.06,98.72l-6.33.05-3.68-.04c-3.82-.57-7.66-.19-9.37-.68-.81-.23-1.1-1.27-.92-2.02.16-.63.87-1.32,1.71-1.36l5.41-.23,4.22-.07c.71-.01,1.15-.06,1.82-.08l9.17-.29,4.82-.11,2.59.14c3.02.16,8.38-.42,7.84,2.75-.21,1.25-1.48,2.36-2.76,1.76-1.63.41-3.26.25-4.96.21l-5.84-.15-.34-.27-.37.28c-.96.36-1.92.12-3.03.13Z"/>
          </g>
        </g>
      </g>
    </g>
  </g>
</svg>