<?xml version="1.0" encoding="UTF-8"?>
<svg id="Layer_2" data-name="Layer 2" xmlns="http://www.w3.org/2000/svg" viewBox="0 0 140.73 124.14">
  <defs>
    <style>
      .cls-1 {
        fill: #5a8fb3;
      }

      .cls-2 {
        fill: #fefefd;
      }

      .cls-3 {
        fill: #d9d9d9;
      }

      .cls-4 {
        fill: #eff7fa;
      }

      .cls-5 {
        fill: #c3c3c3;
      }

      .cls-6 {
        fill: #b7b6b7;
      }

      .cls-7 {
        fill: #77afca;
      }

      .cls-8 {
        fill: #dadada;
      }
    </style>
  </defs>
  <g id="Layer_1-2" data-name="Layer 1">
    <g>
      <path class="cls-8" d="M113.16,123.69c-1.16.21-2.38-.12-3.62-.12l-15.99-.02-2.14.22-8.96-.11-2.23-.07h-8.11s-8.86.25-8.86.25l-32.28.16-1.34.04c-3.4.11-6.73.26-10.17-.39-4.56-.86-9.5-1.95-12.77-5.47-1.67-1.8-3.06-3.71-3.98-6.05-1.58-4.04-2.02-7.91-2.27-12.19l-.24-4.07.07-14.47.07-14.51c0-1.31-.35-2.53-.16-3.86.11-.81-.19-1.59-.18-2.37l.04-4.42.26-7.41-.03-7.78-.04-10.77.25-4.67c.22-4.03.36-9.56,1.88-12.9,1.81-3.99,5.9-8.63,9.87-10.31,1.9-.8,3.79-1.55,5.81-1.75l3.88-.39h4.09c3.39.02,6.73.2,10.13.07.56-.02.97-.06,1.55-.01.71.06,1.53-.26,2.29-.13.84.14,1.57-.16,2.35-.16l5.81.04,4.48.56c4.61.57,9.22,3.46,12.08,7.22l2.3,3.02c.51.66,1.27,1.07,2.13,1.08l6.88.1c1.81.03,3.46.04,5.28-.02l4.55-.14,12.73-.19c.92-.01,1.72-.12,2.62-.11l12.02.09,4.23.21c5.17.25,12.31,3.74,14.73,8.35l.81,1.55c1.62,3.1,2.13,6.62,2.46,10.15l.38,4.03c-.16,2.07.44,3.4,1.46,5.07,2.04,3.34,2.79,7.24,3.13,11.16l.16,8.69.11,1.98c.08,1.38-.05,2.7-.08,4.11l-.18,8.07c-.03,1.37-.06,2.61-.08,3.91l-.12,6.58c-.02,1.29-.18,2.38-.03,3.68.06.55-.04,2.23,0,3.88l.05,2.54-.24,6.16c-.29,7.38-4.98,14.96-11.22,18.77-3.32,2.02-7.02,2.85-10.81,3.06-2.2.12-4.04-.05-4.83.1Z"/>
      <path class="cls-2" d="M58.94,4.03l.37.04c2.82,2.16,5.07,5.03,7.05,7.97.4-.05.68.08.83.4,6.58.32,13.1.28,19.79,0l10.34-.27,3.6.04c4.82-.18,9.5-.14,14.3.14,4.36.25,8.07,1.65,11.63,3.73.41.29.83.58,1.21.91.64.56,1.56,1.4,1.99,2.11.05.08.01.22-.04.37,3.73,5.56,4.07,12.54,3.78,18.86,2.07,2.38,3.49,5.35,4.19,8.45l-.25,1.07c.11.02.2.04.21.08.17.63.32,2.23.29,2.89,0,.06-.09.11-.21.16.06.93.12,1.87.17,2.82.14.02.26.03.26.06.08.82.32,6.81.07,7.05-.07.07-.17.11-.28.14.17,1.68.17,3.48,0,5.16.15.02.27.05.28.1.07.45.1,1.69-.31,1.8-.05,1.16-.11,2.31-.17,3.47l.28.02c.04,3.22.02,6.45-.05,9.7l-.24.14c-.07,1.29-.14,2.58-.2,3.87.11.02.21.04.28.1.2.17.03,4.72,0,5.32,0,.05-.13.1-.28.14.18,2.61.18,5.35,0,7.97.15.13.27.26.28.39.19,5.63-2.46,11.66-6.3,15.64-4.85,5.02-10.98,6.7-17.64,6.38-27.25-.05-54.3.05-81.16.3-7.95.36-16.5.68-23.53-3.69-.45.1-.89-.09-1.32-.58-1.53-1.42-2.75-3.03-3.66-4.84-.26,0-.46-.1-.56-.34-.61-1.56-2.62-7.2-2.22-8.62.02-.06.06-.1.11-.15-.56-4.95-.62-9.91-.61-15.01,0-2.93-.04-5.67.15-8.59.25-3.98.17-7.82.04-11.8l-.24-7.21.07-8.25c.31-5.85.12-11.5-.04-17.37-.12-4.45.26-8.66.48-13.09.16-3.09.23-6.12,1.25-9.02.8-2.29,2.34-4.09,3.87-5.9C12.06.86,18.8.83,26.5,1.04c5.05.14,9.91.08,14.96-.24,5.69-.36,13.01.02,17.48,3.23Z"/>
      <g>
        <path class="cls-3" d="M1.8,103.36l.22,1.95c.71,2.45,1.19,5.04,2.44,7.16,3.55,7.39,11.43,9.63,19.13,10.05,19.65-.16,39.21-.33,58.68-.5,5.14.24,10.3.22,15.49-.07,6.45.09,12.91.11,19.38.07,12.46.27,21.65-10.55,21.56-23.08.14-14.61.26-29.32.36-44.11-.08-5.72-1.33-11.05-4.56-15.78l-.32-1.73c-.3-6.04-.64-12.6-4.18-17.82-1.04-1.11-1.89-2.39-3.16-3.4.86.5,1.87,1.06,2.68,1.92,2.12,2.24,3.39,5,4.16,8l.35,1.35c.42,1.62.58,3.09.7,4.69l.4,5.63c.16,2.3,2.77,4.46,3.77,9.6.32,1.63.7,3.31.75,4.99l.19,6.22-.07,10.39-.17,8.42-.21,9.85c-.01.7-.07,1.32-.04,2.05l.08,1.8c-.31,1.47-.07,2.88-.05,4.35l.03,1.59c.07,3.41-.32,8.59-1.63,11.51-3.41,7.62-8.67,12.9-17.04,14l-2.79.36-10.91.02-1.92-.08c-2.49-.11-4.89-.04-7.38.01l-2.72.06-5.31.1-11.41-.19c-1.31-.02-2.48,0-3.81.02l-8.14.17-2.41.09-28.35.1-2.76.02-7.16.18c-2.33.06-4.49-.22-6.77-.59-5-.82-9.71-2.42-12.85-6.53-.99-1.3-1.88-2.55-2.49-4.12-.99-2.56-1.62-5.19-2.1-7.93-.07-.41.03-.69.35-.81Z"/>
        <path class="cls-5" d="M4.46,112.47c.94,1.59,2.29,2.94,3.57,4.3.44.47,1.14.65,1.4,1.11,6.67,4.21,14.91,4.05,22.38,3.79,16.94-.08,33.78-.23,50.53-.46l.92.21c9.62-.16,19.35-.18,29.18-.04,7.92-.03,13.87-.21,19.78-6.85,4.14-4.66,5.77-10,5.99-16.26-.1-12.22.05-24.48.44-36.77-.06-4.82-.3-9.54-.72-14.16.03.31-.04.48-.21.52-.32-3.5-1.81-6.75-4.3-9.35v-6.4c-.3-4.5-1.4-8.73-3.41-12.63l.92.98c1.11,1.87,1.88,3.88,2.48,6.04l.93,5.87.23,4.46c.08,1.47.4,2.76,1.24,3.96,1.21,1.74,1.85,3.75,2.5,5.81.85,2.65.8,5.43,1.05,8.21v2.7c0,4.21.04,8.33-.06,12.58l-.1,4.24-.02,7.05-.17,18.03-.38,3.74c-.6,5.86-4.46,12.13-9.2,15.49-1.41,1-2.89,2.01-4.57,2.4l-4.63,1.1-3.09.25-3.12-.08c-2.33.25-4.58.05-6.89.05l-5.88-.02c-1.57,0-3.08-.1-4.67-.04l-5.57.21-1.73.02-1.89-.02-6.7-.13-1.56-.06-3.21.02-10.64.19c-4.43.08-8.94.28-13.33.02l-2.92.08-16.23.08c-3.94.02-7.66.39-11.56-.1-3.13-.39-6.13-.99-9.01-2.18-2.69-1.12-4.76-2.91-6.38-5.32-.57-.85-1.43-1.58-1.41-2.65Z"/>
        <path class="cls-6" d="M9.43,117.89c3.82,1.9,7.87,2.91,12.22,3.31,3.97.36,7.78-.04,11.8-.05l18.96-.07,14.13-.15,10.33-.17,13.07.16c6.89-.35,13.56-.08,20.44-.07h6.37c4.66.01,9.36-1.63,13-4.65,5.14-4.27,8.04-10.75,8.04-17.32.2-2.61.18-5.36,0-7.97v-5.56c.08-1.28.15-2.57.2-3.87l.02-9.86c.08-1.14.13-2.3.17-3.47l.03-1.9c.19-1.68.17-3.48,0-5.16l-.05-7.26c-.04-.95-.1-1.89-.17-2.82l-.29-3.14c.05-.19,0-.46.19-.74.43,1.22.44,2.53.55,3.9.2,2.46.45,4.8.43,7.29l-.14,12.33-.22,8.94-.13,6.95-.02,5.68-.02,1.86.04,3.84c.02,2.05-.32,4.04-.54,6.09s-.85,3.84-1.85,5.68c-.54,1-.98,2.04-1.72,3-3.68,4.79-6.94,7.6-13.04,8.59l-1.16.31-5.8.12c-2.58.31-5.04.01-7.64-.02-5.59-.08-11-.17-16.59.21l-6.86-.03-.89-.24-8.36.06c-.83,0-1.6.09-2.4.1l-8.08.14-31.65.2-6.89.13c-1.99.04-3.83-.25-5.82-.58-3.2-.53-6.23-1.46-9.04-3.07-.38-.22-.45-.38-.63-.7Z"/>
        <g>
          <path class="cls-3" d="M67.19,12.44c-.22.02-.96.16-1.14-.14-.74-1.23-1.57-2.25-2.44-3.37-1.42-1.83-2.85-3.6-4.66-4.9,0-.16.07-.26.14-.26.59.07,3.9,3.15,4.78,4.27l2.52,3.21c.33.41.82.65.8,1.18Z"/>
          <path class="cls-5" d="M137.79,98.87v-7.97c.13.06.22.21.22.43v7.1c0,.24-.08.39-.22.44Z"/>
          <path class="cls-5" d="M138.21,66.24v-5.16c.13.04.22.19.22.42v4.32c0,.23-.08.38-.22.42Z"/>
          <path class="cls-5" d="M137.8,85.34v-3.46c-.01-.23.06-.39.2-.41l.02,3.45c0,.23-.09.38-.22.42Z"/>
          <path class="cls-5" d="M138.01,71.61v-3.03c-.02-.21.08-.36.17-.44l.04,3.05c0,.22-.09.37-.21.42Z"/>
          <path class="cls-5" d="M138.17,53.82c-.09-.08-.17-.23-.17-.44v-2.38c.1,0,.2.07.2.22l-.03,2.6Z"/>
          <g>
            <path class="cls-7" d="M115.91,39.6l.42-.41c2.95.43,5.87,1.02,8.77,1.76.88.18,1.39.59,1.52,1.21l1.08.69,1.48,1.26c1.03.88,1.24,2.29,1.45,3.53.29,1.7.89,3.25.6,5.12l.19,1.48c-.06,1.08-.26,2.1-.06,3.16l-.16,1.56c.13,1.65.45,3.17.27,4.85-.06.55-.17,1.45-.09,1.95.17.98-.14,1.63-.16,2.5l-.12,7.3-.06,5.89c0,.17-.42.41-.34.51l.35.41-.18,7.66c.3,1.09.15,2.14.13,3.21l-.04,2.19c0,.21.27.63-.01.85-.14.1-.39.09-.56.41,1.28.21.58,1.6.5,3.26-.16,3.6-1.58,6.92-4.03,9.48-.98,1.03-1.63,2.18-3.15,2.59l-1.76.93-3.58.83-2.93.09-2.94.02c-1.05,0-1.83-.36-2.88-.12s-2.37.19-3.41-.18c-.39.24-.9.19-1.42.2l-3.22.08-2.74-.03c-1.23-.01-2.34.09-3.63-.13-.24-.04-.68.22-.91-.2-.38.62-1.09.22-1.57.29-1.31.2-2.41,0-3.67.02-.76.01-1.55.32-2.43.18-1.03-.17-2.09-.36-3.18-.08-.68.17-1.19-.26-1.7-.32-.41-.06-1.08.15-1.5-.08-.68.51-1.25.09-2,.13l-3.78.17c-.92-.16-1.45-.01-2.29.15-1.01.19-3.92-.42-6.24.02-.21-.06-.56,0-.87,0l-3.54-.11-.56.23c-.15.06-.41-.1-.61-.43-.45.74-1.14.28-1.68.32l-2.66.19c-2.3.17-5.12-.21-6.85-.12l-2.98.16c-.61.03-1.16-.08-1.64-.53-.93.56-1.99.44-3.07.47l-6.97.16c-2.22.05-4.31.15-6.5.12l-5.99-.08-2.96-.42c-.73-.1-1.29-.27-2.02-.54l-2.79-1.03c-.04-.26-.27-.51-.52-.46-.72.16-.91-.46-1.27-.68-1.92-1.19-2.12-2.97-2.76-5.02-.42.35-.75-.17-.16-.33-.82-1.4-.78-3.03-.86-4.72,0-.16-.35-.5-.31-.65.03-.12.13-.28.38-.47-.71-.53-.55-1.32-.55-2.14,0-.44-.02-.82.31-1.11-.55-.64-.7-1.67.17-2.24-.85-.85-1.02-1.95-.55-3.02l-.12-1.85c-.04-.69-.13-1.24-.11-1.91l.15-4.57c.07-1.31.43-2.61-.12-3.95.56-3.65.3-7.31.24-11.05l-.06-4.03-.3-4.33.24-1.56v-2.16c-.37-1.84-.33-3.5.09-5.31.19-.82.14-1.45.52-2.22-.08-.87.22-1.69.92-2.49,1.15-1.23,2.27-2.46,3.37-3.7,1.06.14,2.03-.23,2.92-1.11,1.42-.11,2.83-.3,4.25-.56l.36.38c0-.17.02-.42.13-.45,1.9-.42,4.68-.67,6.63-.75,3.53-.15,7.31-.1,10.77.31,2.14-.06,4.28-.11,6.43-.14,1.08.2,1.99.33,3.07.13,3.24.29,6.47.34,9.71.15,8.85-.01,17.66-.27,26.44-.76,4.05.09,8.1,0,12.15-.27l1.15.18c4.74-.19,9.51-.33,14.3-.41.35-1.45,1.18-.86,1.85.06l2.54.03.28.43Z"/>
            <path class="cls-1" d="M126.61,42.15c-1.2-.77-2.51-1.13-3.85-1.38l-3.93-.73c-1.02-.19-1.86-.44-2.93-.45-.38-.51-.61-1.18-.7-1.99.18-3.19-3.03-6.09-6.11-5.5l-1.67-.5c-3.95-.09-7.9.03-11.86.37-6.62-.33-13.25-.25-19.9.24-2.27-.17-4.59-.21-6.94-.11-6.79.1-13.58.05-20.35-.15-1.87.22-3.7.21-5.5-.02-1.67.17-3.36.2-5.06.08l-9.02.27c-1.98.16-3.91.68-5.52,1.84-2.17,1.57-2.6,3.98-2.49,6.56l-.33.4-4.11.63-.47-.07-.29.41c-.62.4-1.38.74-2.02.94-.47-1.01-.94.76-1.7,1.29-1.53,1.05-2.45,2.7-3.22,4.27-.66-.74-.47-2.83-.45-4.59l.02-2.62c.02-1.71-.34-3.38-.15-5.13.12-1.05-.21-2.09-.16-3.08l.24-4.88.17-4.5c.02-.58.15-1.1.26-1.45-.17-.54.02-1.04,0-1.65l-.03-1.81c.35-1.64.61-3.29,1.49-4.71s1.91-2.61,3.14-3.74l2.23-1.33c.47-.28.91-.55,1.5-.13.99-1.17,3.21-.92,4.92-1l2.34-.11c.9-.04,1.82.11,2.69.08.81-.02,1.53-.01,2.34-.01h1.54c1.24,0,2.37-.06,3.6.11.33.04.73-.11,1.05.23,1.48-.46,3.13-.34,4.69-.43l4.56-.25,3.59.15c.68.03,1.48.21,2.02.45.22.1.79-.28.99.24,2.22.15,4.18,1.39,5.54,3.15.9.52,1.19,1.53,1.8,2.27,1.33,1.61,2.72,3.3,3.24,5.32l2.81.12,4.11.11,3.44.16c.61.03.94,0,1.53,0l3.47.04c.87.35,1.8.35,2.55-.19,1.42.27,2.7-.03,4.06-.04l5.47-.07c.27,0,.81.28,1.01.2.87-.35,1.54-.12,2.32-.17l2.92-.18c1.39-.09,2.68-.03,4.1.08l1.64-.13,1.61.05c1.31.04,3.65.05,4.24-.04,1.46-.22,2.78.05,4.2.04h2c1.1,0,2.09.33,3.3.39,2.1.1,5.73,1.25,6.26,2.55.14.34-.18,1.03.33,1.33v-.94c1.02.38,1.87,2.6,2.1,3.86.06.34.41.71.51,1.3l.45,2.62.54,3.84-.09,3.09v2.44c.01.87.06,1.67-.13,2.57Z"/>
            <path class="cls-4" d="M115.91,39.6l-3.11-.04c-.28-.34-.39-.7-.8-.97-.1-.07-.35.18-.31.29.05.13.17.28.37.45-.98.31-2.01.26-3.14.29l-3.12.08c-1.45.04-2.79-.12-4.23-.03l-1.79.11-1.6-.03-1.26.16c-2.19-.44-3.34-.09-4.82-.02l-5.17.25-2.83-.14c-.72-.03-1.24.08-1.98.11l-5.8.26-5.31.04-4.24.37c-.6.05-1.13-.05-1.7-.03-3.3.16-8.23-.13-9.12.09s-1.32.05-2.11.03l-4.72-.14c-1-.03-1.77-.31-2.79.03l-1.89-.3c-1.35.27-2.49.13-3.82,0-1.18-.11-2.49.36-3.59.01-.74-.24-1.26-.14-2-.15l-3.72-.04c-1.87-.02-4.62-.05-6.12.15l-4.72.63c-.29-.93-.18-1.75.09-2.78.16-.59-.02-1.44.37-1.98,1.01-1.39.61-1.71,2.62-2.87l1.37-.79c1.32-.41,2.75-.78,4.11-.83l6.99-.22c1.71-.05,3.29-.1,5.04.05.84.07,1.64-.41,2.59-.03.8.32,1.88-.09,2.71-.07l1.82.05c-.14-.26-.13-.48-.05-.52.08-.04.32.02.27.06s.07.42.13.42h1.36c2.69.02,6.82.26,7.88.08,1.23-.21,2.3.03,3.48.03s2.22-.11,3.47.05c.54.07,1.49.04,2.1,0,1.82-.12,3.46-.08,5.31,0,.76.03,1.57-.35,2.46-.1,1.25.36,2.66-.11,3.89-.02s2.84-.15,4.55-.16c1.44,0,2.9-.07,4.39-.14l1.62-.07c.82-.04,1.65.29,2.51.17,1.38-.18,2.68.06,4.01.12l1.09-.15c1.18-.16,2.24-.16,3.41-.17l5.03-.06c1.42-.02,2.76-.2,4.06.53,1.13-.27,2.28-.1,3.12.63,1.15.1,1.62,1.1,2.23,1.82.85,1,1.13,1.86,1.12,3.26,0,.67.62,1.54.29,2.19Z"/>
          </g>
        </g>
      </g>
    </g>
  </g>
</svg>