<?xml version="1.0" encoding="UTF-8"?>
<svg id="Layer_2" data-name="Layer 2" xmlns="http://www.w3.org/2000/svg" viewBox="0 0 123.73 106.86">
  <defs>
    <style>
      .cls-1 {
        fill: #5a8fb3;
      }

      .cls-2 {
        fill: #eff7fa;
      }

      .cls-3 {
        fill: #77afca;
      }
    </style>
  </defs>
  <g id="Layer_1-2" data-name="Layer 1">
    <g>
      <path class="cls-3" d="M108.13,32.04l.42-.41c2.95.43,5.87,1.02,8.77,1.76.88.18,1.39.59,1.52,1.21l1.08.69,1.48,1.26c1.03.88,1.24,2.29,1.45,3.53.29,1.7.89,3.25.6,5.12l.19,1.48c-.06,1.08-.26,2.1-.06,3.16l-.16,1.56c.13,1.65.45,3.17.27,4.85-.06.55-.17,1.45-.09,1.95.17.98-.14,1.63-.16,2.5l-.12,7.3-.06,5.89c0,.17-.42.41-.34.51l.35.41-.18,7.66c.3,1.09.15,2.14.13,3.21l-.04,2.19c0,.21.27.63-.01.85-.14.1-.39.09-.56.41,1.28.21.58,1.6.5,3.26-.16,3.6-1.58,6.92-4.03,9.48-.98,1.03-1.63,2.18-3.15,2.59l-1.76.93-3.58.83-2.93.09-2.94.02c-1.05,0-1.83-.36-2.88-.12s-2.37.19-3.41-.18c-.39.24-.9.19-1.42.2l-3.22.08-2.74-.03c-1.23-.01-2.34.09-3.63-.13-.24-.04-.68.22-.91-.2-.38.62-1.09.22-1.57.29-1.31.2-2.41,0-3.67.02-.76.01-1.55.32-2.43.18-1.03-.17-2.09-.36-3.18-.08-.68.17-1.19-.26-1.7-.32-.41-.06-1.08.15-1.5-.08-.68.51-1.25.09-2,.13l-3.78.17c-.92-.16-1.45-.01-2.29.15-1.01.19-3.92-.42-6.24.02-.21-.06-.56,0-.87,0l-3.54-.11-.56.23c-.15.06-.41-.1-.61-.43-.45.74-1.14.28-1.68.32l-2.66.19c-2.3.17-5.12-.21-6.85-.12l-2.98.16c-.61.03-1.16-.08-1.64-.53-.93.56-1.99.44-3.07.47l-6.97.16c-2.22.05-4.31.15-6.5.12l-5.99-.08-2.96-.42c-.73-.1-1.29-.27-2.02-.54l-2.79-1.03c-.04-.26-.27-.51-.52-.46-.72.16-.91-.46-1.27-.68-1.92-1.19-2.12-2.97-2.76-5.02-.42.35-.75-.17-.16-.33-.82-1.4-.78-3.03-.86-4.72,0-.16-.35-.5-.31-.65.03-.12.13-.28.38-.47-.71-.53-.55-1.32-.55-2.14,0-.44-.02-.82.31-1.11-.55-.64-.7-1.67.17-2.24-.85-.85-1.02-1.95-.55-3.02l-.12-1.85c-.04-.69-.13-1.24-.11-1.91l.15-4.57c.07-1.31.43-2.61-.12-3.95.56-3.65.3-7.31.24-11.05l-.06-4.03L.02,52.26l.24-1.56v-2.16c-.37-1.84-.33-3.5.09-5.31.19-.82.14-1.45.52-2.22-.08-.87.22-1.69.92-2.49,1.15-1.23,2.27-2.46,3.37-3.7,1.06.14,2.03-.23,2.92-1.11,1.42-.11,2.83-.3,4.25-.56l.36.38c0-.17.02-.42.13-.45,1.9-.42,4.68-.67,6.63-.75,3.53-.15,7.31-.1,10.77.31,2.14-.06,4.28-.11,6.43-.14,1.08.2,1.99.33,3.07.13,3.24.29,6.47.34,9.71.15,8.85-.01,17.66-.27,26.44-.76,4.05.09,8.1,0,12.15-.27l1.15.18c4.74-.19,9.51-.33,14.3-.41.35-1.45,1.18-.86,1.85.06l2.54.03.28.43Z"/>
      <path class="cls-1" d="M118.83,34.6c-1.2-.77-2.51-1.13-3.85-1.38l-3.93-.73c-1.02-.19-1.86-.44-2.93-.45-.38-.51-.61-1.18-.7-1.99.18-3.19-3.03-6.09-6.11-5.5l-1.67-.5c-3.95-.09-7.9.03-11.86.37-6.62-.33-13.25-.25-19.9.24-2.27-.17-4.59-.21-6.94-.11-6.79.1-13.58.05-20.35-.15-1.87.22-3.7.21-5.5-.02-1.67.17-3.36.2-5.06.08l-9.02.27c-1.98.16-3.91.68-5.52,1.84-2.17,1.57-2.6,3.98-2.49,6.56l-.33.4-4.11.63-.47-.07-.29.41c-.62.4-1.38.74-2.02.94-.47-1.01-.94.76-1.7,1.29-1.53,1.05-2.45,2.7-3.22,4.27-.66-.74-.47-2.83-.45-4.59l.02-2.62c.02-1.71-.34-3.38-.15-5.13.12-1.05-.21-2.09-.16-3.08l.24-4.88.17-4.5c.02-.58.15-1.1.26-1.45-.17-.54.02-1.04,0-1.65l-.03-1.81c.35-1.64.61-3.29,1.49-4.71s1.91-2.61,3.14-3.74l2.23-1.33c.47-.28.91-.55,1.5-.13.99-1.17,3.21-.92,4.92-1l2.34-.11c.9-.04,1.82.11,2.69.08.81-.02,1.53-.01,2.34-.01h1.54c1.24,0,2.37-.06,3.6.11.33.04.73-.11,1.05.23,1.48-.46,3.13-.34,4.69-.43l4.56-.25,3.59.15c.68.03,1.48.21,2.02.45.22.1.79-.28.99.24,2.22.15,4.18,1.39,5.54,3.15.9.52,1.19,1.53,1.8,2.27,1.33,1.61,2.72,3.3,3.24,5.32l2.81.12,4.11.11,3.44.16c.61.03.94,0,1.53,0l3.47.04c.87.35,1.8.35,2.55-.19,1.42.27,2.7-.03,4.06-.04l5.47-.07c.27,0,.81.28,1.01.2.87-.35,1.54-.12,2.32-.17l2.92-.18c1.39-.09,2.68-.03,4.1.08l1.64-.13,1.61.05c1.31.04,3.65.05,4.24-.04,1.46-.22,2.78.05,4.2.04h2c1.1,0,2.09.33,3.3.39,2.1.1,5.73,1.25,6.26,2.55.14.34-.18,1.03.33,1.33v-.94c1.02.38,1.87,2.6,2.1,3.86.06.34.41.71.51,1.3l.45,2.62.54,3.84-.09,3.09v2.44c.01.87.06,1.67-.13,2.57Z"/>
      <path class="cls-2" d="M108.13,32.04l-3.11-.04c-.28-.34-.39-.7-.8-.97-.1-.07-.35.18-.31.29.05.13.17.28.37.45-.98.31-2.01.26-3.14.29l-3.12.08c-1.45.04-2.79-.12-4.23-.03l-1.79.11-1.6-.03-1.26.16c-2.19-.44-3.34-.09-4.82-.02l-5.17.25-2.83-.14c-.72-.03-1.24.08-1.98.11l-5.8.26-5.31.04-4.24.37c-.6.05-1.13-.05-1.7-.03-3.3.16-8.23-.13-9.12.09s-1.32.05-2.11.03l-4.72-.14c-1-.03-1.77-.31-2.79.03l-1.89-.3c-1.35.27-2.49.13-3.82,0-1.18-.11-2.49.36-3.59.01-.74-.24-1.26-.14-2-.15l-3.72-.04c-1.87-.02-4.62-.05-6.12.15l-4.72.63c-.29-.93-.18-1.75.09-2.78.16-.59-.02-1.44.37-1.98,1.01-1.39.61-1.71,2.62-2.87l1.37-.79c1.32-.41,2.75-.78,4.11-.83l6.99-.22c1.71-.05,3.29-.1,5.04.05.84.07,1.64-.41,2.59-.03.8.32,1.88-.09,2.71-.07l1.82.05c-.14-.26-.13-.48-.05-.52.08-.04.32.02.27.06s.07.42.13.42h1.36c2.69.02,6.82.26,7.88.08,1.23-.21,2.3.03,3.48.03s2.22-.11,3.47.05c.54.07,1.49.04,2.1,0,1.82-.12,3.46-.08,5.31,0,.76.03,1.57-.35,2.46-.1,1.25.36,2.66-.11,3.89-.02s2.84-.15,4.55-.16c1.44,0,2.9-.07,4.39-.14l1.62-.07c.82-.04,1.65.29,2.51.17,1.38-.18,2.68.06,4.01.12l1.09-.15c1.18-.16,2.24-.16,3.41-.17l5.03-.06c1.42-.02,2.76-.2,4.06.53,1.13-.27,2.28-.1,3.12.63,1.15.1,1.62,1.1,2.23,1.82.85,1,1.13,1.86,1.12,3.26,0,.67.62,1.54.29,2.19Z"/>
    </g>
  </g>
</svg>