<?xml version="1.0" encoding="UTF-8"?>
<svg id="Layer_2" data-name="Layer 2" xmlns="http://www.w3.org/2000/svg" viewBox="0 0 135.51 95.09">
  <defs>
    <style>
      .cls-1 {
        fill: #f0f8fb;
      }

      .cls-2 {
        fill: #d9dad9;
      }

      .cls-3 {
        fill: #859da8;
      }

      .cls-4 {
        fill: #b9b9b9;
      }
    </style>
  </defs>
  <g id="Layer_1-2" data-name="Layer 1">
    <g>
      <path class="cls-4" d="M5.46,86.89c1.84,2.07,4.43,3.43,7.22,3.73l10.34,1.12,13.06.27,11.6.1,13.08.03,26.33-.71,19.18.31,13.28-.69c7.26-.38,11.55-5.05,12.36-12.29l.67-14.32.5-13.95-.11-14.39-.56-16.93c-.14-4.07-.72-8.02-2.43-11.6-.19-.54-.11-.7.41-.5,1.35.5,3.32,10.53,3.15,11.64,1.25,20.36,1,40.69-.44,61.11-.44,2.92-1.26,5.89-3.09,8.24-2.84,3.64-6.55,4.18-10.71,4.71-5.1.65-11.03.72-16.18.68-13.38-.38-26.75-.26-40.1.36-13.42.1-26.83-.01-40.23-.35-3.37-.23-9.69-.91-12.59-2.06-1.23-.49-5.22-2.96-5.19-4.25,0-.19.22-.27.43-.26Z"/>
      <g>
        <path class="cls-2" d="M3.48,83.37c.02,1.3,1.2,3.43,1.97,4.49,1.77,2.45,4.64,3.8,7.52,4.32l9.86,1.29c24.7.31,37.05.46,37.05.46,11.94-.49,23.87-.73,35.81-.73,7.79.3,15.84.47,23.62-.42,3.85-.44,7.31-.97,10.18-4.09s3.68-7.95,3.91-12.14c.83-18.45,1.61-37.12.29-55.59-.27-3.75-.6-7.11-1.81-10.76-.72-2.16-1.92-3.85-3.5-5.42-.3-.29-.6-.59-.95-.83-.04-.03-.28-.07-.34-.07-.92-.76-1.92-1.31-3.07-1.49l-4.53-.73c-4.43-.71-8.69-1.14-13.23-1.03l-29.48.73-10.98-.4-6.99-.13-31.77.74-4.68.18c-4.09.15-8.05.52-12.08,1.23-1.53.27.24-.82,4.84-1.27l5.55-.54,3.39-.18,8.58-.13,1.84-.06,8.05-.17,3.44-.12,3.12-.13c.87-.04,1.51,0,2.38-.02l6.29-.13,1.89-.02,3.37.04,6.67.14,6.31.2c2.02.26,3.99,0,6.04-.03l10.2-.16,7.6-.23,6.61-.16c1.46-.04,2.77,0,4.24.04l2.91.08,2.15.19,6.11.84c2.08.28,4.19.76,5.95,1.85,5.31,3.29,6.81,11.24,7.02,17.35l.21,5.97.14,5.69.19,2.16.12,5.19-.07,13.79-.2,6.03-.21,5.12-.16,6.77-.22,3.43-.21,2.79-.19,2.36c-.27,3.37-1.97,8.11-4.47,10.39-2.65,2.42-5.86,3.57-9.38,3.84l-2.54.19-3.18.2-2.52.18-2.55.17h-8.82s-1.52-.04-1.52-.04l-2-.05-9.76-.12-1.49.02-6.74.06c-.29,0-.71.26-1,.13-.57-.26-1.01,0-1.55,0l-6.85.15-6.63.16-2.39.13-14.34-.09-15.83-.18-1.84-.07-6.05-.12-1.93-.17-6.89-.89c-3.09-.4-5.93-1.47-8.28-3.62l-1.06-1.25c-1.74-2.35-2.52-5.13-2.9-7.99l-.42-3.17-.2-2.58-.22-5.36-.2-3.65-.2-4.14-.15-4.82-.26-8.76.05-1.28L.01,39.55v-1.71s.1-5.31.1-5.31l.18-5.21c.03-.92.1-1.84.17-2.78l.19-2.56.21-3.87.16-2.6c.34-2.29.29-4.76,1.92-6.73-.72,2.7-1.09,5.22-1.2,8.05l-.77,19.73.25,17.6.88,19.29c.16,3.44.48,6.7,1.36,9.94Z"/>
        <g>
          <path class="cls-3" d="M88.8,84.59c-.41.21-1.98-.02-2.69-.32-.49.59-1.19.19-1.71.27-1.92.27-3.63.45-5.53.23h-1.41s-1.57.02-1.57.02l-1.52.2-3.9.02c-.86,0-1.37.14-2.12.17l-4.29.17-7.1-.16c-1.61.22-3.16.33-4.76-.06-1.92.43-3.95.52-5.91.01-.73.1-1.63.32-2.27.02-.49-.23-.6-.25-1.1-.03-.62.27-1.51-.14-2.18-.09-3.62.3-7.19.26-10.82-.01l-2.36.16-2.46-.25-6.31-.32-3.2-.54c-1.05-.18-1.91-.24-2.95-.71-.45-.2-1.21-.13-1.12-.91-.48.21-.74.04-.92-.12-.3-.27-.34-.56-.43-.97l-.52-2.44c-.51-1.22-.61-2.46-.3-3.54-.81-1.15-.41-2.48-.46-3.66l-.26-6.44-.25-3.39-.08-4.49-.27-1.32-.16-9.67-.06-4.04-.03-5.43.11-4.47.12-3.45.37-5.12c.04-.52.04-.6.03-1.15l-.03-1.78.35-6.99c.03-.64.24-1.59.6-2.11l.97-1.38c.55-.78,1.86-.67,2.72-.85,2.67-.56,5.22-1.09,7.99-.82,2.15-.43,4.32-.72,6.55-.4,1.07-.38,2.17-.13,3.18-.09l1.84.08,2.16-.15,4.7-.02c.74,0,1.19-.02,1.85-.05l4.07-.19,1.52-.04,5.18-.09,5.89-.18c.46-.01.51.08,1.05.07l3.5-.11,1.37.21c1.06-.22,2.02-.03,3.04,0l5.18.21c.44.02,1.17-.27,1.61.04.72.5,1.3,0,1.98-.02l7.1-.24,1.77.19,1.72-.17,3.3.06,3.14-.04,4.44-.02,1.34-.06,10.32-.21c.66-.01.79.44,1.59.08l3,.11c.83.03,1.44.18,2.09.26l4.28.52c1.01.12,2.15.01,3.01.62,1.11.79,1.57,2.13,1.79,3.38l.9,5.1.14,4.08.13,2.75.31,8.57.12,7.47.23,4.1-.15,4.98-.19,2.42.09,2.29-.24,6.67-.27,6.2-.16,5.02-.11,3.09c-.04,1.17.06,2.29-.38,3.5-.06.16.12.68.02.84-.1.14-.3.22-.56.31.21.78-.42,1.26-.65,1.83-.39.97-1.07,1.51-1.97,1.43-.28.28-.75.68-1.21.55-.68-.2-1.15.35-1.72.38l-3.96.21c-1.14.06-2.3.2-3.51-.04-.65.22-1.34.43-2.16.3-1.38.37-2.43.2-3.5.2h-4.44s-1.22-.09-1.22-.09l-1.85.02-7.04-.33c-.54-.03-.7-.2-1.23.06l-1.2.06Z"/>
          <path class="cls-1" d="M94.35,31.8l-1.57,1.29-2.85,2.47c-1.2,1.04-2.15,1.94-3.56,2.67l-1.81,1.56-4.87,4.01-3.16,2.59-1.7,1.47-1.43,1.12c-1.16.9-2.28,1.66-3.59,2.36l-2.37,1.25-1.75-.06-3.72-2.63c-.43-.3-.87-.54-1.28-.88l-2.08-1.7c-.7-.58-1.24-1.01-1.91-1.58l-2.26-1.94-2.66-1.99-3.75-2.72-2.06-1.71-7.1-5-5.52-4.4-3.2-2.62-3.34-2.8-1.17-.86-3.36-2.7-1.7-1.42-1.79-1.41-4.35-3.39,3.5-.05,8.96-.04,1.26.03,4.98.08,3.77-.02,7.11-.04,7.06.09,2.43-.02c1.57-.01,2.97.11,4.52.01l3.92.24c.39.02.5-.24.92-.14,1.38.33,2.86.13,4.17-.07.37.25.87.36,1.3.17l7.03.1c.24.38.84.16,1.15.18l2.82.13c2.18.1,4.14.11,6.15-.02.88-.06,1.94.29,2.75.03.44-.14.42-.1.82-.04,2.15.36,4.32.14,6.47-.02l3.67-.27,4.34.12c1.76.05,3.47-.15,5.26-.07l7.23.32-1.68,1.46c-1.27,1.1-2.46,2.4-3.12,2.78-.9.52-1.32,1.2-2.04,1.85l-5.57,5.04-1.68,1.5-1.36,1-6.23,4.67Z"/>
          <path class="cls-1" d="M94.34,79.71l-2.16.02c-.76,0-1.19-.12-1.83-.11l-5.76.12-8.6.31-4.09.12-5.8.08-8.98.56c-1.61.1-3.22-.42-4.8.17-.18.42-.71.13-.31-.34h-3.01c-.87.01-1.66.34-2.58.04-.49-.16-1.02.08-1.38.13-1.14-.41-2.51-.21-3.73-.18l-7.95.23-3.34-.07-4.61-.12c-1.31-.03-2.53-.1-3.84-.16l-5.87-.23,6.1-5.07,5.26-4.93,2.21-2.21,1.02-.73,2.29-2.2,1.55-1.4,4.67-4.73c.08-.08.07-.46.14-.46h.43s4.39-4.5,4.39-4.5l1.58-1.64,1.4-1.35,3.67-3.54c.29.68.95.89,1.48,1.31l6.46,5.12c.32.25.58.26.97.64.77.75,1.89,1.38,2.87,1.93,2.03,1.13,4.58,1.59,6.85,1.13,2.05-.42,3.81-1.48,5.64-2.41.21-.11.27-.58.23-.8.57.3.8-.07,1.16-.36l3.84-3.13,4.15-3.51,2.24,2.58,3.49,3.73,1.2,1.16,8.25,8.51,5.41,5.07,5.25,4.91,1.23,1.32,2.37,2.54,1.08.95,1.19,1.39-2.39.14h-2.5s-3.78.12-3.78.12l-3.53.05-2.58.02-2.74-.09-3.92-.13Z"/>
          <path class="cls-1" d="M19.1,71.6l-2.63,2.48-3.26,3.41.08-4.23v-1.27c.01-.66.11-1.33-.08-1.99l.14-.57c.04-.15-.24-.38-.62-.39.41-.59.6-1.47.52-2.34-.12-1.27.18-2.82-.3-4.03-.23-.59.08-.87.06-1.26l-.18-4.08c-.05-1.1-.46-2.47-.1-3.54-.73-.49.05-1.25-.03-3.31l-.17-4.51-.08-3.58c-.03-1.34.3-2.73-.39-3.98.52-.8.33-1.57.29-2.35l-.17-2.8c-.06-.95.07-2-.24-2.89.12-.17.34-.5.29-.7-.29-1.24-.26-2.4-.21-3.66l.19-4.59-.2-4.87c-.03-.62-.11-1.21.14-1.71l1.77,1.99,2.55,2.76,1.48,1.46,1.59,1.14,3.39,3.25c.48.46.87,1.01,1.6,1.16.67.82,1.39,1.51,2.42,1.79,1.07,1.51,2.61,2.34,3.94,3.55l1.65,1.51,1.87,1.54,3.5,3.08c.41.36.88.52,1.29.84l2.96,2.29c.37.28.47.41.85.7l4.33,3.4-7.47,6.21-1.2,1.32-3.06,2.94-2.83,2.71-1.68,1.72-3.35,3.18-3.06,2.96-3.32,3.04-2.28,2.17Z"/>
          <path class="cls-1" d="M119.2,75.42l-3.35-3.34-4.66-4.68-4.36-3.95-2.46-2.22-1.2-.94-2.03-2.01-3.02-2.69-2.05-2.24-4.01-3.62c-.84-.76-1.53-1.43-2.54-1.97l-2.93-2.3,2.74-2.31,2.81-2.29,4.13-3.34,3.47-2.89,2.63-1.83,4.7-4.01.87-.39,2.75-2.55,3.82-3.24,1.46-1.51,2.57-2.54,2.81-2.9c.31,1.21.04,2.48,0,3.72l-.06,1.95c-.04,1.25.14,2.39-.11,3.65l.04,2.37-.03,6.21.05,4.49c0,.75.04,1.2.05,2l.02,2.07.03,3.67-.23,4.86-.09,3.53c-.01.53-.22,1.11.44,1.43-.64.32-.57.76-.59,1.34l-.18,4.86-.04,1.78-.14,2.12v1.77c-.02,1.53-.24,2.93-.11,4.49l-.2,4.24c-.54-.03-.65-.44-1-.79Z"/>
        </g>
      </g>
    </g>
  </g>
</svg>