<?xml version="1.0" encoding="UTF-8"?>
<svg id="Layer_2" data-name="Layer 2" xmlns="http://www.w3.org/2000/svg" viewBox="0 0 111.01 132.16">
  <defs>
    <style>
      .cls-1 {
        fill: #fefefd;
      }

      .cls-2 {
        fill: #fdfefd;
      }

      .cls-3 {
        fill: #558aaa;
      }

      .cls-4 {
        fill: #d8d8d8;
      }

      .cls-5 {
        fill: #5389a8;
      }

      .cls-6 {
        fill: #babbba;
      }

      .cls-7 {
        fill: #dadada;
      }

      .cls-8 {
        fill: #5489a8;
      }

      .cls-9 {
        fill: #79aecc;
      }

      .cls-10 {
        fill: #558aa9;
      }
    </style>
  </defs>
  <g id="Layer_1-2" data-name="Layer 1">
    <g>
      <path class="cls-7" d="M49.86,131.98l-3.68-.21-9.21-1.09c-6-.71-10.78-1.86-15.56-5.86-2.87-2.4-5.31-6.96-5.93-10.63l-1.03-6.09-2.15-14.48-.96-7.18-.86-5.97-.47-3.19-1.95-15.4-.75-6.53-.23-2.69c-.16-1.88-.67-3.17-2.34-4.05l-1.42-1.04c-2.08-1.52-2.98-4.02-3.11-6.51l-.16-3.03c-.23-4.48.66-8.71,2.73-12.68.93-1.78,2.13-3.3,3.47-4.82,1.58-1.79,3.62-3,5.76-4,2.74-1.28,5.47-1.89,8.47-2.39l4.13-.69,6.5-.68c.76-.24,1.41-1.29,1.82-1.99C37.01,3.75,41.67,1.19,49.59.43l3.33-.32,2.99-.11,4.2.12,5.59.72c2.06.27,3.99,1.2,5.79,2.2,3.17,1.76,5.53,4.45,6.85,7.82.49,1.26,1.51,1.99,2.86,2.06l2.6.13c4.17.21,8.29.76,12.29,2.09l3.76,1.57c6.49,2.7,10.37,10.18,11.14,17.33v6.9c.01,3.51-2.01,6.36-4.95,8.04-.86.49-1.89,1.21-2,2.23l-.54,5.31-2.52,20.36-1.49,11.35-1.09,9.01-.44,3.22-1.02,6.46-1.04,5.56c-.62,3.31-1.58,6.48-3.17,9.41-.88,1.62-2,2.74-3.39,3.89-2.26,1.87-4.93,2.96-7.85,3.61-5.83,1.29-11.62,2.19-17.58,2.63l-2.16.16h-8.35s-1.55-.09-1.55-.09l-2.01-.09Z"/>
      <path class="cls-1" d="M72.29,4.99c2.77,1.56,4.24,4.75,5.16,7.76.48.03.86.23,1.13.59l12.13,1.46c3.52.42,6.81,1.55,9.79,3.46,2.19,1.05,5.24,4.15,6.16,6.48l-.07.8c1.3,1.78,1.89,4.19,2.31,6.38.06.32-.04.61-.24.86-.06,1.32-.03,2.61.09,3.89.16.02.41.08.42.19.39,5.2-1.11,9.63-6.79,10.48-2.28,20.72-4.97,41.42-8.07,62.09-.43,2.17-1.27,5.83-2.02,7.85-1.7,4.54-5.43,8.24-10.21,9.29-9.76,2.15-19.08,3.41-29.1,3.09-7.34-.24-16.65-.8-23.66-2.75-3.65-1.02-7.9-3.48-9.67-6.89l-.67-.27c-1.35-1.68-2.25-4.91-2.82-7.02l-3.86-26.09.14-.43-1.85-14.1-2.22-17.93-.64-7.07-1.59-.5c-2.86-.9-4.96-3.42-4.95-6.53l.03-7.34c.42-4.3,2.31-8.26,5.01-11.55,3.13-3.81,9.2-5.71,14.06-6.29l12.2-1.47c1.24-3.36,3.13-6.25,5.76-8.55,3.02-2.63,7.35-3.3,11.31-3.71,5.28-.54,10.45-.49,15.67.52,2.64.51,5,1.56,7.05,3.3Z"/>
      <g>
        <path class="cls-4" d="M12.44,86.22l3.8,25.88c.43,2.94,1.91,5.53,3.42,7.93.35,1.2,1.58,2.28,2.55,3.1,3.43,2.9,8.05,4.71,12.43,5.36,12.03,1.55,24.17,2.57,36.61.86,4.22-.58,9.28-1.29,13.2-2.94,6.55-2.75,7.95-7.05,9.39-13.38l2.05-11.59c2.32-16.9,4.43-33.86,6.33-50.88.72-1.94,2.17-3.37,4.36-4.29,2.94-2.33,2.92-7.08,2.66-10.6-.25-3.53-.64-7.38-2.64-10.13-1.43-2.93-3.34-5.52-6.09-7.28.07-.18.23-.24.41-.12,4.37,2.82,7.27,7.25,8.61,12.32.36,1.38.68,2.58.68,4.02v6.45c-.22,3.24-1.89,5.84-4.69,7.26-1.82.93-2.34,2.56-2.53,4.54l-.44,4.82-.39,3.06-.46,3.86-3.91,30.75-1.19,8.46-.88,5.61c-.62,3.99-1.67,7.89-3.41,11.54-1.84,3.88-5.53,6.27-9.48,7.27l-3.76.95-7.08,1.18-5.46.67-4.61.39h-9.56s-3.72-.26-3.72-.26l-3.31-.32-5.5-.55-3.62-.4-2.69-.45-2.15-.43c-2.31-.46-4.37-1.33-6.39-2.54-4.49-2.68-6.86-5.85-8.28-10.94l-.75-2.67-2.65-17.61-.25-1.92-.95-6.38c-.03-.2-.06-.38.01-.51.05-.09.19-.17.3-.1Z"/>
        <g>
          <path class="cls-6" d="M19.65,120.03c.88,1.41,2.08,2.41,3.39,3.37,2.72,1.99,5.69,3.11,9.02,3.72,6.42,1.17,12.75,1.67,19.26,2.04,10.39.6,20.32-.67,30.44-2.94,4.33-.97,9.04-4.79,10.13-9.04l2.02-7.82,2.05-13.58,2.42-18.5,2.2-17.98,1.32-12.33c3.82-.29,6.71-3.07,6.79-6.86l.07-3.44c-.11-1.28-.14-2.58-.09-3.89-.31-2.57-.96-4.95-2.08-7.24.07-.2.26-.19.34-.03,2.02,3.68,2.91,7.69,2.69,11.87l.05,1.73c.06,2.38-.39,4.77-1.96,6.66-1.83,2.2-4.83,1.81-5.24,5.8l-1.25,12.25-1.28,9.82-1.05,8.16-.64,4.52-1.25,10.07-.69,5.12-2.05,11.62-1.4,4.8c-.72,2.45-1.82,4.76-3.86,6.33-2.37,1.83-4.93,2.96-7.84,3.66-11.8,2.83-24.16,3.5-36.21,2.15l-10.07-1.13c-5.54-.62-12.61-3.86-15.46-8.74-.08-.14.15-.28.25-.18Z"/>
          <g>
            <path class="cls-4" d="M78.58,13.35l-1.44-.14c-.92-3.14-2.38-6.13-4.85-8.22.08-.24.26-.24.33-.18l.29.24c1.31,1.09,2.67,2.17,3.46,3.73l2.21,4.57Z"/>
            <path class="cls-4" d="M108.76,36.68c-.1.02-.19-.12-.19-.34l.1-3.55.09,3.89Z"/>
            <g>
              <path class="cls-5" d="M14.37,41.25c-.4-.02-.65-.33-1-.49.43-2.16,2.51-1.97,4.78-2.08,1.24-.06,2.31-.29,3.54-.1.8.13,4.59-.48,8.08-.41,2.04.04,4-.25,6.07.16,1.85-.39,3.77-.63,5.72-.34.86-.34,1.73-.1,2.58-.15l2.44-.14,1.79.17h3.59c1.27-.02,2.68-.56,4.76-.3.39.05.99-.16,1.38.2.98-.41,2.18-.45,3.3-.47l4.78-.11c1.95-.04,3.94-.07,5.92-.12l4.35-.11c.51-.01.77-.12,1.36-.11l5.5.04,4.31.13,2.16.24c.58.07,3.25-.87,4.72,1.47.24.38.88.48.74,1.09-.11.5-.3.87-.91,1.13l-1.71.74-5.75.2-1.71.04c-.59.01-1.48.15-1.99.03-.48-.11-.58-.24-1.12,0-.58.26-1.6-.14-2.24-.02-1.44.27-2.77-.06-4.33,0l-2.38.09-3.28-.15c-1.38.38-2.73.32-3.99.1-1.25.58-2.52.29-3.75.25l-1.97-.07c-.51-.02-.73.02-1.28,0l-3.58-.1c-.71-.02-1.3-.03-1.76-.22-.82.4-1.85.22-2.72.28l-1.98.13-2.22-.15-4.61-.05-1.73-.18-3.53.21-6.51-.14c-.21,0-.56.17-.63.05l-.32-.53c-.35.51-.78.48-1.41.46l-3.77-.11c-.53-.02-.67-.32-1.28-.07l-2.54-.14c-1.04.19-1.74-.16-2.75-.21l-3.11-.14Z"/>
              <g>
                <path class="cls-9" d="M14.37,41.25l.2-.42c4.67.35,9.33.56,13.99.64.45-.28.94-.45,1.23.09,6.34-.08,12.68.01,19,.27,1.58-.02,3.14-.15,4.68-.39,3.79.29,7.58.43,11.38.41.98-.24,2.03-.28,3.14-.12l1.78-.27c3.92.08,7.84.13,11.77.15.72-.21,1.47-.22,2.24-.04l8.75-.31c2.97-1.1,2.85-1.59.43-3.41-.99-.36-2.06-.42-3.2-.18-4.59-.27-8.69-.37-13.3-.3-5.21.08-10.6.22-15.8.36-.88.02-1.73.18-2.58.42-1.95-.32-3.94-.27-5.97.12-3.53-.15-7.04-.11-10.52.13l-2.34-.11c-1.85.32-3.7.41-5.55.25-6.04.11-12.05.35-18.03.72-.85.14-1.59.44-1.83,1.35l-.47.15c-1.26-.58-3.3.25-5.05-.59-.62-.3-.23-.86-.24-1.18l-.11-2.76.39-.24-.24-.39c-.39-1.08.1-2.18.16-3.23.05-.87.32-1.44.65-2.27l.78-1.96,1.02-1.28c.38-.48.47-.49.65-.98.38-1.03,3.92-3.07,5.65-3.21l2.06-.55c.05.38.3.48.37.41.08-.92.74-.68,1.21-.74l3.82-.44c.73-.08,1.38-.29,2.21-.15l1.94-.3c.74-.11,1.52-.45,2.31.09.81-.41,1.75-.52,2.73-.37.62-.57,1.27-.13,1.83-.17.51-.03,1.12-.58,1.85-.23.21.1.65-.09.75-.23.12-.17.08-.57.07-.82-.12-2.01.91-3.54,1.58-5.24.34-.88.61-1.45,1.3-2.18.95-1,1.94-2.23,3.43-2.38.37-.04.47-.07.71-.52,2.06-.55,5.33-1.15,7.26-1.01.53.04.53.35,1.22.04.93-.41,2.28-.29,3.35-.19l5.81.53c.49.04.91.35,1.46.32.84-.04,2.91,1.21,4.02,2.16.99.85,1.22,1.88,1.67,2.86l.87,1.89c.38.81.43,1.49.57,2.32.11.64.45,1.21.2,2.06.78-.14,1.3-.07,1.88.34.83-.25,1.67-.28,2.49.22.77-.45,1.62-.25,2.48,0l1.91.13c.86.06,1.52-.12,2.36.2l1.98.1c.6.27.88.21,1.53.29l2.97.38c1.01-.19,1.36.43,2.05.65.46.15,1.48-.29,1.87.48.13.26.85-.06,1.07.03,1.37.59,2.89,1.42,4.03,2.46l1.42,1.92c-.95.74.65.18.78,1.84-.36.12-.28.46.1.37.69.78.92,1.77,1.05,2.76l.3,2.35c.06.46.08,1-.12,1.36.27.84.23,1.75.1,2.71-.06.4.16.92,0,1.2-.49.82-1.56.27-2.86.87-.59.27-1.22-.3-1.6-.48-.46.3-1.08.52-1.81.41l-.15,2.45c-.05.76-.12,1.26-.22,2.01l-.43,3.52-.41,3.32-.37,2.74-.02,1.04c0,.33-.25,1.01-.23,1.34.27,2.04-.55,3.84-.57,5.8,0,.74-.01,1.15-.28,1.78-.17.4.2,1.31-.09,1.69-.83,1.07.18,1.02-.34,1.9.34.97-.22,2.2-.33,3.21l-.34,3.18c-.06.52-.13.82-.2,1.37l-.43,3.36c-.07.54-.03.71-.31,1.16l-.23,2.29c-.45,1.41-.2,2.88-.45,4.3l-.47,2.61c-.1.57.1,1.2-.51,1.6.37.23.42.53.31.75-.09.2-.19.41-.5.6.39.94.22,1.82.09,2.78l-.32,2.25c-.08.59.23,1.16-.14,1.82l-.2,1.52c-.45,1.08-.84,2.38-.81,3.5,0,.11-.21.12-.28.09-.05-.03-.13.19-.08.22.12.07.24.15.28.2.2.23-.16.46-.16.61,0,.8.05,1.96-.34,2.75l-.35,2-.15,1.32-1.04,3.28c-.15.48-.9.94-.65,1.6.05.13-.21.47-.33.49s-.28.02-.55-.11c-.36,1.16-1.37,1.93-2.56,2.2l-.9.43c-.46,0-.69,0-1.1.44-.19-.2-.13-.4.16-.52.06-.25-.27-.31-.37-.05-.14.22-.34.46-.52.48-.16.02-.41-.2-.56-.47-.51.42-1.02.72-1.72.86l-6.54,1.26-.22-.37c-.04-.06-.24,0-.24.1,0,.07.01.2-.02.26-.25.47-.85.14-1.12.22-1.33.41-2.52.36-3.85.42l-3.06.15c-.52.03-1.15.29-1.6-.16-.61.34-1.3.55-1.95.15-2.16.68-4.65-.02-4.39-.21l-.41.3c-.77.57-1.99.15-2.78-.2-.39.29-.87.3-1.42.21l-2.82-.43-1.53-.07c-1.99-.09-3.64-.26-5.59-.57l-1.79-.28c-1.62-.04-2.8-.31-4.32-.85-.53-.19-1.33-.12-1.64-.61-.73.48-1.35-.17-1.96-.43-1.34-.56-3.4-1.72-3.67-2.44l-.55-.49c-.11-.1-.03-.43.13-.74-.77-.37-1.21-1.14-1.14-2.05-.73-.19-.93-.93-.7-1.71-.45-.91-.25-1.85-.41-2.71l-.23-1.25-.26-1.75-.34-2.24c-.22-1.45-.68-2.76-.67-4.31,0-.56-.52-1.38-.37-2.03s-.16-1.04-.25-1.61l-.81-4.83-.39-3.07-.92-5.73-.31-2.46-.82-6.62-.18-2.81-.57-3.65-.61-4.78c-.06-.46-.26-.88.38-1.17-.35-.09-.57-.15-.58-.28-.09-.96-.32-1.39.45-1.69-.31-.3-.5-.03-.61-.08-.04-.02-.47-2.59-.31-4.28-.17-.3-.55-.82-.48-1.24.24-1.37-.19-2.57-.31-3.89l-.46-5.29c-.08-.93-.1-1.79.14-2.64Z"/>
                <path class="cls-8" d="M69.56,108.18c-1.04-.87-1.23-1.96-1.1-3.24.06-.55-.13-1.15.26-1.71.29-.42.16-.97.23-1.47l.96-7.07.28-1.61c.09-.53.16-.82.2-1.39l.29-3.86c.07-.89.47-1.48.49-2.21l.1-3.13.87-6.31.27-2.14.21-2.01.64-3.79.26-2.42,1.1-5.73.94-4.52c.33-1.58.22-4.11,1.91-4.73.65-.24,1.25.16,1.82.69.43.4.36.63.36,1.14v3.04s-.33,6.97-.33,6.97l-.72,6.72-.44,1.92-.2,2.18-.37,2.67-.22,2.94-.62,5.48c-.08.68.1,1.37-.32,1.9.65.99-.12,2.08-.06,2.98s-.21,1.33-.26,2.03l-.3,4.14-1.29,8.94c-.24,1.66-.91,3.55-2.4,4.26-1.03.49-1.85-.1-2.55-.69Z"/>
                <path class="cls-10" d="M57.06,107.93c-.23.83-.09,1.27-.92,1.63-1.22.54-2.38.22-3.2-.99-.65-.97-.82-2.26-.84-3.48l-.07-5.48c-.01-1.07-.03-1.94.14-3.02.09-.57-.34-1.34.41-1.89-.22-.37-.59-.77-.59-1.16l-.05-3.99.06-5.42c.02-1.41.16-2.79-.17-4.25l.26-2.03-.06-4.18.12-3.53.11-2.96.07-2.92c.02-.83-.23-1.64.33-2.35-.44-.39-.29-.95-.27-1.4l.17-3.28.2-4.72c.04-.86.55-1.9,1.51-2.17,1.03-.29,1.91.68,2.01,1.69l.43,4.28c.07.66.53,1.3-.16,1.77.67.78.42,1.67.28,2.53l.29,2.93.02,1.95.25,7.82-.11,1.68.06,4.28c0,.49.29,1.02-.07,1.58l.27,1.55c-.26.82-.03,1.47,0,2.2l.18,3.85-.07,2.14v4.28c0,.96-.23,1.84.04,2.9l-.29,2.02-.13,2.98-.29.4c-.04.06.31.19.38.33.65,1.34.11,2.92-.3,4.42Z"/>
                <path class="cls-3" d="M40.07,100.9l.41,5.73c.07,1.04.19,2-.62,2.88-.45.49-.88.75-1.58.68-.57-.06-.84-.5-1.27-1.02-1.31-1.58-1.65-3.62-1.81-5.68l-.19-2.34-.57-5.46-.26-2.34-.38-2.57-.57-4.34-1.25-10.2-.81-6.36-.16-1.56c-.2-1.94-.15-3.62-.64-5.29l.35-.42-.35-.33-.41-5.39c-.08-1.08-.28-1.98-.13-3.11.12-.86-.54-2.27,1.53-3.1.8-.32,1.55.35,1.76,1.1l.87,3.2.53,3.39.55,2.62c.12.57.01.85-.17,1.36-.14.4.49,1,.55,1.41l.44,2.99.29,2.15.75,6.3c.06.53.47,1.3.42,1.88-.03.42.16,1.26.23,1.71l.72,4.82.7,4.85c.02.13-.23.36-.28.45-.07.11.14.35.23.48.43.59.15,1.3.22,1.88l.21,1.84.36,4.12.35,3.7Z"/>
                <path class="cls-2" d="M55,19.27l-2.28.21-1.58-.06-2.95.19c-.8.05-1.64-.23-2.48.16-.2.08-.72-.15-1.04-.31.56-.15.66-.55.87-.99l.81-1.74c.61-1.31,2.12-1.7,3.42-1.7l8.37.02,2.64.15c1.09.06,2.29.39,2.87,1.42l.98,1.73.06.58c.01.11.49.11.54.58l-2.79.05-7.43-.3Z"/>
              </g>
            </g>
          </g>
        </g>
      </g>
    </g>
  </g>
</svg>